<?xml version="1.0" encoding="utf-8"?>
<!-- Generator: Adobe Illustrator 25.2.0, SVG Export Plug-In . SVG Version: 6.00 Build 0)  -->
<svg version="1.1" id="Camada_1" xmlns="http://www.w3.org/2000/svg" xmlns:xlink="http://www.w3.org/1999/xlink" x="0px" y="0px"
	 viewBox="0 0 283.46 224.38" style="enable-background:new 0 0 283.46 224.38;" xml:space="preserve">
<style type="text/css">
	.st0{fill:#037D91;}
	.st1{fill:#037D91;stroke:#037D91;stroke-width:0.25;stroke-miterlimit:10;}
</style>
<g>
	<path class="st0" d="M212,112.8c-26.05,0-50.6,9.82-69.41,27.71c0.85-53.99,44.88-97.08,99.01-97.39
		c-0.06,9.05-1.32,18.02-3.78,26.66l1.12,0.31c2.53-8.92,3.82-18.2,3.82-27.56v-0.58h-0.58c-55.1,0-100.02,44.46-100.75,99.38
		c-18.21-18.7-28.21-43.31-28.21-69.44c0-26.41,10.21-51.26,28.77-70.02c14.47,14.64,23.93,33.06,27.35,53.3l1.15-0.2
		c-3.51-20.67-13.22-39.46-28.1-54.34l-0.41-0.42l-0.42,0.42c-18.71,18.7-29.16,43.47-29.49,69.88
		C93.16,52.08,68.26,41.95,41.8,41.95h-0.58v0.58c0,26.74,10.34,51.88,29.13,70.86c-25.38,0.19-50.69,9.97-70.06,29.33
		c38.99,39,102.12,39.13,141.28,0.42c0.14-0.14,0.29-0.28,0.43-0.43c18.77-18.53,43.6-28.75,70-28.75
		c26.61,0,51.63,10.37,70.44,29.18l0.81-0.83C264.23,123.28,238.93,112.8,212,112.8z M71.55,112.97
		C52.88,94.3,42.53,69.5,42.38,43.11c26.31,0.15,51.01,10.44,69.68,29c0.06,26.34,10.17,51.14,28.53,70
		C114.52,141.78,90.05,131.45,71.55,112.97z"/>
	<path class="st0" d="M71.14,172.21c-0.09,0-0.18,0-0.28,0c-26.7-0.07-51.8-10.51-70.68-29.39l-0.1-0.1l0.1-0.1
		c18.68-18.67,43.46-29.09,69.82-29.37C51.35,94.28,41.07,69.18,41.07,42.53V41.8h0.73c26.34,0,51.24,10.07,70.14,28.37
		c0.42-26.31,10.9-51.03,29.53-69.65L141.99,0l0.51,0.52c14.89,14.89,24.62,33.71,28.14,54.41l0.02,0.14l-1.44,0.25l-0.02-0.14
		c-3.41-20.15-12.82-38.51-27.21-53.12c-18.46,18.72-28.63,43.51-28.63,69.82c0,25.94,9.92,50.47,27.93,69.09
		c0.44-26.49,11.1-51.34,30.02-70.03c19.03-18.79,44.19-29.14,70.87-29.14h0.73v0.73c0,9.36-1.29,18.65-3.83,27.6l-0.04,0.14
		l-1.39-0.39l0.04-0.14c2.43-8.56,3.7-17.47,3.77-26.47c-54.4,0.39-97.68,42.9-98.71,96.9c18.78-17.75,43.37-27.52,69.26-27.52
		c26.95,0,52.3,10.5,71.36,29.56l0.1,0.1l-1.02,1.03l-0.1-0.1c-18.79-18.79-43.77-29.14-70.34-29.14c-26.33,0-51.16,10.2-69.9,28.71
		c-0.09,0.1-0.19,0.2-0.29,0.29l-0.14,0.14C122.77,161.93,97.73,172.21,71.14,172.21z M0.5,142.72
		c38.79,38.69,101.99,38.84,140.97,0.31l0.14-0.14c0.09-0.09,0.19-0.19,0.28-0.29c18.8-18.57,43.7-28.79,70.11-28.79
		c26.6,0,51.61,10.34,70.44,29.12l0.61-0.62c-18.99-18.94-44.22-29.37-71.05-29.37c-25.93,0-50.55,9.83-69.31,27.67l-0.25,0.24
		l0.01-0.35c0.41-26.12,10.91-50.6,29.57-68.92c18.63-18.3,43.34-28.46,69.58-28.61l0.15,0l0,0.15c-0.06,9.03-1.32,17.96-3.74,26.56
		l0.84,0.23c2.51-8.88,3.78-18.09,3.78-27.38v-0.44h-0.44c-54.74,0-99.87,44.52-100.6,99.23l0,0.35l-0.24-0.25
		c-18.22-18.71-28.26-43.41-28.26-69.54c0-26.43,10.23-51.34,28.81-70.13l0.1-0.1l0.1,0.1c14.46,14.63,23.92,33.04,27.37,53.24
		l0.86-0.15c-3.52-20.59-13.22-39.3-28.03-54.12l-0.31-0.31l-0.31,0.31c-18.65,18.64-29.11,43.43-29.45,69.78l0,0.34l-0.24-0.24
		C93.1,52.22,68.18,42.09,41.8,42.09h-0.44v0.44c0,26.68,10.33,51.81,29.09,70.76l0.24,0.25l-0.34,0
		C43.99,113.73,19.19,124.09,0.5,142.72z M140.93,142.26l-0.35,0c-26.08-0.34-50.63-10.7-69.14-29.19l0,0
		C52.76,94.39,42.39,69.54,42.24,43.11l0-0.15l0.15,0c26.32,0.15,51.11,10.47,69.78,29.05l0.04,0.04v0.06
		c0.06,26.27,10.17,51.09,28.49,69.9L140.93,142.26z M71.65,112.87c18.37,18.35,42.72,28.67,68.59,29.1
		c-18.2-18.82-28.25-43.59-28.32-69.79C93.33,53.71,68.7,43.44,42.53,43.26C42.72,69.56,53.06,94.27,71.65,112.87L71.65,112.87z"/>
</g>
<g>
	<path class="st0" d="M51.54,204.19H51.5c-0.82,1.63-2.54,2.66-4.72,2.66c-3.18,0-5.86-2.2-5.86-5.88c0-3.43,2.52-5.95,6.09-5.95
		c3.57,0,6.07,2.43,6.07,6.02v4.65c0,4.37-2.63,6.07-6,6.07c-2.72,0-4.9-1.12-5.68-3.64h1.56c0.62,1.6,2.2,2.29,4.12,2.29
		c2.61,0,4.47-1.31,4.47-4.65V204.19z M47.01,196.43c-2.7,0-4.53,1.92-4.53,4.53s1.83,4.46,4.53,4.46s4.53-1.85,4.53-4.46
		S49.71,196.43,47.01,196.43z"/>
	<path class="st0" d="M63.31,200v-0.16c0-2.36-1.31-3.41-3.23-3.41c-1.95,0-3.23,1.05-3.23,3.41v6.78h-1.54v-6.78
		c0-3.25,1.95-4.83,4.76-4.83c2.82,0,4.74,1.58,4.74,4.85V200H63.31z"/>
	<path class="st0" d="M78.03,206.62h-1.42v-2.68h-0.05c-0.76,1.81-2.54,2.98-4.83,2.98c-3.18,0-5.86-2.27-5.86-5.95
		c0-3.43,2.52-5.95,6.09-5.95c3.57,0,6.07,2.45,6.07,6.02V206.62z M76.49,200.96c0-2.61-1.83-4.53-4.53-4.53s-4.53,1.92-4.53,4.53
		s1.83,4.53,4.53,4.53S76.49,203.57,76.49,200.96z"/>
	<path class="st0" d="M89.91,195.3h1.53v5.91c0,3.75-2.24,5.7-5.59,5.7s-5.59-1.95-5.59-5.7v-5.91h1.54v5.91
		c0,2.77,1.6,4.28,4.05,4.28c2.45,0,4.05-1.51,4.05-4.28V195.3z"/>
	<path class="st0" d="M100.71,198.4c-0.07-1.12-1.1-1.99-2.79-1.99c-1.76,0-2.82,0.82-2.82,2.11c0,2.93,7.44,0.21,7.44,4.83
		c0,2.06-1.81,3.57-4.63,3.57c-2.79,0-4.56-1.49-4.62-3.48h1.56c0.07,1.21,1.17,2.08,3.05,2.08c1.99,0,3.09-0.89,3.09-2.18
		c0-2.93-7.42-0.18-7.42-4.83c0-2.04,1.67-3.5,4.33-3.5c2.66,0,4.28,1.47,4.33,3.39H100.71z"/>
	<path class="st0" d="M109.24,200.96c0-3.69,2.68-5.95,5.86-5.95c2.17,0,3.89,1.03,4.72,2.63h0.05v-6.86h1.53v10.11
		c0,3.6-2.5,6.02-6.07,6.02S109.24,204.39,109.24,200.96z M119.86,200.96c0-2.61-1.83-4.53-4.53-4.53s-4.53,1.92-4.53,4.53
		s1.83,4.53,4.53,4.53S119.86,203.57,119.86,200.96z"/>
	<path class="st0" d="M124.3,201.46c0.21,2.36,1.97,4.03,4.51,4.03c1.79,0,3.16-0.73,3.89-2.04h1.67c-0.87,2.08-2.93,3.46-5.56,3.46
		c-3.57,0-6.09-2.52-6.09-5.95s2.52-5.95,6.09-5.95c3.57,0,6.05,2.52,6.05,5.95v0.5H124.3z M124.34,200.04v0.05h8.91v-0.05
		c-0.37-2.15-2.06-3.62-4.44-3.62C126.4,196.43,124.71,197.89,124.34,200.04z"/>
	<path class="st0" d="M141.91,206.62v-15.84h1.53v15.84H141.91z"/>
	<path class="st0" d="M146.12,192.24c0-0.64,0.53-1.17,1.17-1.17c0.64,0,1.17,0.53,1.17,1.17c0,0.62-0.53,1.17-1.17,1.17
		C146.65,193.4,146.12,192.85,146.12,192.24z M146.53,206.62V195.3h1.53v11.31H146.53z"/>
	<path class="st0" d="M150.72,200.89v-10.11h1.54v6.86h0.05c0.82-1.6,2.52-2.63,4.72-2.63c3.16,0,5.86,2.27,5.86,5.95
		c0,3.43-2.52,5.95-6.09,5.95C153.22,206.91,150.72,204.49,150.72,200.89z M161.32,200.96c0-2.61-1.83-4.53-4.53-4.53
		c-2.72,0-4.53,1.92-4.53,4.53s1.81,4.53,4.53,4.53C159.49,205.49,161.32,203.57,161.32,200.96z"/>
	<path class="st0" d="M165.79,201.46c0.21,2.36,1.97,4.03,4.51,4.03c1.79,0,3.16-0.73,3.89-2.04h1.67
		c-0.87,2.08-2.93,3.46-5.56,3.46c-3.57,0-6.09-2.52-6.09-5.95s2.52-5.95,6.09-5.95c3.57,0,6.05,2.52,6.05,5.95v0.5H165.79z
		 M165.83,200.04v0.05h8.91v-0.05c-0.37-2.15-2.06-3.62-4.44-3.62C167.89,196.43,166.2,197.89,165.83,200.04z"/>
	<path class="st0" d="M186.11,200v-0.16c0-2.36-1.31-3.41-3.23-3.41c-1.95,0-3.23,1.05-3.23,3.41v6.78h-1.54v-6.78
		c0-3.25,1.95-4.83,4.76-4.83c2.82,0,4.74,1.58,4.74,4.85V200H186.11z"/>
	<path class="st0" d="M188.68,200.96c0-3.69,2.68-5.95,5.86-5.95c2.17,0,3.89,1.03,4.72,2.63h0.05v-6.86h1.53v10.11
		c0,3.6-2.5,6.02-6.07,6.02C191.2,206.91,188.68,204.39,188.68,200.96z M199.3,200.96c0-2.61-1.83-4.53-4.53-4.53
		s-4.53,1.92-4.53,4.53s1.83,4.53,4.53,4.53S199.3,203.57,199.3,200.96z"/>
	<path class="st0" d="M214.78,206.62h-1.42v-2.68h-0.05c-0.76,1.81-2.54,2.98-4.83,2.98c-3.18,0-5.86-2.27-5.86-5.95
		c0-3.43,2.52-5.95,6.09-5.95s6.07,2.45,6.07,6.02V206.62z M213.24,200.96c0-2.61-1.83-4.53-4.53-4.53s-4.53,1.92-4.53,4.53
		s1.83,4.53,4.53,4.53S213.24,203.57,213.24,200.96z"/>
	<path class="st0" d="M216.56,200.96c0-3.69,2.68-5.95,5.86-5.95c2.17,0,3.89,1.03,4.72,2.63h0.05v-6.86h1.53v10.11
		c0,3.6-2.5,6.02-6.07,6.02C219.08,206.91,216.56,204.39,216.56,200.96z M227.18,200.96c0-2.61-1.83-4.53-4.53-4.53
		s-4.53,1.92-4.53,4.53s1.83,4.53,4.53,4.53S227.18,203.57,227.18,200.96z"/>
	<path class="st0" d="M232.08,201.46c0.21,2.36,1.97,4.03,4.51,4.03c1.79,0,3.16-0.73,3.89-2.04h1.67
		c-0.87,2.08-2.93,3.46-5.56,3.46c-3.57,0-6.09-2.52-6.09-5.95s2.52-5.95,6.09-5.95c3.57,0,6.05,2.52,6.05,5.95v0.5H232.08z
		 M232.12,200.04v0.05h8.91v-0.05c-0.37-2.15-2.06-3.62-4.44-3.62C234.18,196.43,232.49,197.89,232.12,200.04z"/>
</g>
<g>
	<path class="st1" d="M41.49,224.02v-7.82h3.37c1.88,0,2.72,1.05,2.72,2.49c0,1.42-0.85,2.5-2.72,2.5h-2.51v2.84H41.49z
		 M44.88,220.4c1.35,0,1.83-0.74,1.83-1.71c0-0.97-0.49-1.7-1.83-1.7h-2.53v3.41H44.88z"/>
	<path class="st1" d="M52.94,218.31c-0.05-0.9-0.73-1.47-1.85-1.47c-1.13,0-1.85,0.6-1.85,1.52c0,2.2,4.67,0.36,4.67,3.45
		c0,1.46-1.12,2.38-2.84,2.38c-1.69,0-2.81-0.9-2.85-2.36h0.85c0.04,0.99,0.76,1.57,2,1.57s2-0.61,2-1.57
		c0-2.24-4.67-0.36-4.67-3.45c0-1.39,1.07-2.33,2.68-2.33c1.57,0,2.62,0.9,2.67,2.26H52.94z"/>
	<path class="st1" d="M55.19,224.02v-7.82h0.86v7.82H55.19z"/>
	<path class="st1" d="M64.47,218.82c-0.47-1.2-1.6-1.99-3.05-1.99c-1.94,0-3.29,1.39-3.29,3.28s1.35,3.28,3.29,3.28
		c1.45,0,2.58-0.79,3.05-1.99h0.9c-0.5,1.66-2,2.78-3.95,2.78c-2.43,0-4.15-1.72-4.15-4.07c0-2.35,1.71-4.07,4.15-4.07
		c1.95,0,3.45,1.11,3.95,2.78H64.47z"/>
	<path class="st1" d="M70.36,224.18c-2.43,0-4.15-1.72-4.15-4.07c0-2.35,1.71-4.07,4.15-4.07c2.43,0,4.15,1.72,4.15,4.07
		C74.51,222.45,72.79,224.18,70.36,224.18z M73.65,220.11c0-1.89-1.35-3.28-3.29-3.28c-1.94,0-3.29,1.39-3.29,3.28
		s1.35,3.28,3.29,3.28C72.3,223.39,73.65,222,73.65,220.11z"/>
	<path class="st1" d="M77.28,224.02v-7.04h-2.64v-0.79h6.15v0.79h-2.65v7.04H77.28z"/>
	<path class="st1" d="M81.9,224.02v-7.82h5.72v0.79h-4.86v2.67h4.17v0.79h-4.17v2.79h4.86v0.79H81.9z"/>
	<path class="st1" d="M94.3,224.02l-2.11-2.97h-2.37v2.97h-0.86v-7.82h3.44c1.83,0,2.64,1.03,2.64,2.42c0,1.21-0.61,2.14-1.95,2.38
		v0.02l2.24,3H94.3z M92.42,220.26c1.3,0,1.76-0.72,1.76-1.65c0-0.93-0.46-1.63-1.76-1.63h-2.6v3.28H92.42z"/>
	<path class="st1" d="M102.15,224.02v-2.63h-5.04v2.63h-0.83v-4.63c0-2.06,1.19-3.35,3.36-3.35c2.18,0,3.37,1.29,3.37,3.35v4.63
		H102.15z M102.15,219.39c0-1.58-0.86-2.56-2.53-2.56c-1.64,0-2.51,0.98-2.51,2.56v1.21h5.04V219.39z"/>
	<path class="st1" d="M104.43,224.02v-7.82h3.37c1.88,0,2.72,1.05,2.72,2.49c0,1.42-0.85,2.5-2.72,2.5h-2.51v2.84H104.43z
		 M107.81,220.4c1.35,0,1.84-0.74,1.84-1.71c0-0.97-0.49-1.7-1.84-1.7h-2.53v3.41H107.81z"/>
	<path class="st1" d="M111.6,224.02v-7.82h0.86v7.82H111.6z"/>
	<path class="st1" d="M119.76,224.02v-2.63h-5.04v2.63h-0.83v-4.63c0-2.06,1.19-3.35,3.36-3.35c2.18,0,3.37,1.29,3.37,3.35v4.63
		H119.76z M119.76,219.39c0-1.58-0.86-2.56-2.53-2.56c-1.64,0-2.51,0.98-2.51,2.56v1.21h5.04V219.39z"/>
	<path class="st1" d="M125.57,221.33c0.11,1.23,1.02,2.11,2.35,2.11c0.93,0,1.64-0.38,2.03-1.06h0.87
		c-0.45,1.09-1.52,1.81-2.89,1.81c-1.86,0-3.17-1.32-3.17-3.11s1.31-3.11,3.17-3.11c1.86,0,3.15,1.32,3.15,3.11v0.26H125.57z
		 M125.59,220.59v0.02h4.63v-0.02c-0.19-1.12-1.07-1.89-2.31-1.89C126.66,218.7,125.78,219.46,125.59,220.59z"/>
	<path class="st1" d="M140.87,224.02v-4.75c0-1.51-0.83-2.44-2.41-2.44c-1.58,0-2.42,0.93-2.42,2.44v4.75h-0.86v-4.75
		c0-1.97,1.17-3.23,3.28-3.23c2.1,0,3.26,1.26,3.26,3.23v4.75H140.87z"/>
	<path class="st1" d="M143.15,224.02v-7.82h5.72v0.79H144v2.67h4.17v0.79H144v2.79h4.86v0.79H143.15z"/>
	<path class="st1" d="M155.7,216.2h0.83v4.75c0,1.97-1.16,3.23-3.23,3.23c-2.11,0-3.28-1.26-3.28-3.23v-4.75h0.86v4.75
		c0,1.51,0.83,2.44,2.41,2.44c1.57,0,2.41-0.95,2.41-2.44V216.2z"/>
	<path class="st1" d="M163.27,224.02l-2.11-2.97h-2.37v2.97h-0.86v-7.82h3.44c1.83,0,2.64,1.03,2.64,2.42
		c0,1.21-0.61,2.14-1.95,2.38v0.02l2.24,3H163.27z M161.39,220.26c1.3,0,1.76-0.72,1.76-1.65c0-0.93-0.46-1.63-1.76-1.63h-2.6v3.28
		H161.39z"/>
	<path class="st1" d="M169.15,224.18c-2.43,0-4.15-1.72-4.15-4.07c0-2.35,1.72-4.07,4.15-4.07c2.43,0,4.15,1.72,4.15,4.07
		C173.29,222.45,171.58,224.18,169.15,224.18z M172.44,220.11c0-1.89-1.35-3.28-3.29-3.28c-1.94,0-3.29,1.39-3.29,3.28
		s1.35,3.28,3.29,3.28C171.09,223.39,172.44,222,172.44,220.11z"/>
	<path class="st1" d="M174.49,224.02v-7.82h3.37c1.88,0,2.72,1.05,2.72,2.49c0,1.42-0.85,2.5-2.72,2.5h-2.51v2.84H174.49z
		 M177.88,220.4c1.35,0,1.83-0.74,1.83-1.71c0-0.97-0.49-1.7-1.83-1.7h-2.53v3.41H177.88z"/>
	<path class="st1" d="M185.94,218.31c-0.05-0.9-0.73-1.47-1.85-1.47c-1.13,0-1.85,0.6-1.85,1.52c0,2.2,4.67,0.36,4.67,3.45
		c0,1.46-1.12,2.38-2.84,2.38c-1.69,0-2.81-0.9-2.85-2.36h0.85c0.04,0.99,0.76,1.57,2,1.57c1.24,0,2-0.61,2-1.57
		c0-2.24-4.67-0.36-4.67-3.45c0-1.39,1.07-2.33,2.68-2.33c1.57,0,2.62,0.9,2.67,2.26H185.94z"/>
	<path class="st1" d="M188.19,224.02v-7.82h0.86v7.82H188.19z"/>
	<path class="st1" d="M197.47,218.82c-0.47-1.2-1.6-1.99-3.05-1.99c-1.94,0-3.29,1.39-3.29,3.28s1.35,3.28,3.29,3.28
		c1.45,0,2.58-0.79,3.05-1.99h0.9c-0.5,1.66-2,2.78-3.95,2.78c-2.43,0-4.15-1.72-4.15-4.07c0-2.35,1.71-4.07,4.15-4.07
		c1.95,0,3.45,1.11,3.95,2.78H197.47z"/>
	<path class="st1" d="M203.36,224.18c-2.43,0-4.15-1.72-4.15-4.07c0-2.35,1.71-4.07,4.15-4.07c2.43,0,4.15,1.72,4.15,4.07
		C207.51,222.45,205.79,224.18,203.36,224.18z M206.65,220.11c0-1.89-1.35-3.28-3.29-3.28c-1.94,0-3.29,1.39-3.29,3.28
		s1.35,3.28,3.29,3.28C205.31,223.39,206.65,222,206.65,220.11z"/>
	<path class="st1" d="M208.71,224.02v-7.82h0.86v7.04h4.72v0.79H208.71z"/>
	<path class="st1" d="M218.65,224.18c-2.43,0-4.15-1.72-4.15-4.07c0-2.35,1.71-4.07,4.15-4.07c2.43,0,4.15,1.72,4.15,4.07
		C222.79,222.45,221.07,224.18,218.65,224.18z M221.93,220.11c0-1.89-1.35-3.28-3.29-3.28c-1.94,0-3.29,1.39-3.29,3.28
		s1.35,3.28,3.29,3.28C220.59,223.39,221.93,222,221.93,220.11z"/>
	<path class="st1" d="M230.71,218.65c-0.5-1.1-1.58-1.82-2.97-1.82c-1.94,0-3.29,1.39-3.29,3.28s1.35,3.28,3.29,3.28
		c1.69,0,2.92-0.97,3.23-2.49v-0.02h-3.72v-0.79h4.62v0.41c-0.18,2.14-1.84,3.69-4.13,3.69c-2.43,0-4.15-1.72-4.15-4.07
		c0-2.35,1.71-4.07,4.15-4.07c1.88,0,3.36,1.04,3.91,2.61H230.71z"/>
	<path class="st1" d="M233.04,224.02v-7.82h0.86v7.82H233.04z"/>
	<path class="st1" d="M241.2,224.02v-2.63h-5.04v2.63h-0.83v-4.63c0-2.06,1.19-3.35,3.36-3.35c2.18,0,3.37,1.29,3.37,3.35v4.63
		H241.2z M241.2,219.39c0-1.58-0.86-2.56-2.53-2.56c-1.64,0-2.51,0.98-2.51,2.56v1.21h5.04V219.39z"/>
</g>
</svg>
