<?xml version="1.0" standalone="no"?>
<!DOCTYPE svg PUBLIC "-//W3C//DTD SVG 20010904//EN"
 "http://www.w3.org/TR/2001/REC-SVG-20010904/DTD/svg10.dtd">
<svg version="1.0" xmlns="http://www.w3.org/2000/svg"
 width="1565.000000pt" height="1164.000000pt" viewBox="0 0 1565.000000 1164.000000"
 preserveAspectRatio="xMidYMid meet">

<g transform="translate(0.000000,1164.000000) scale(0.100000,-0.100000)"
fill="#187E90" stroke="none">
<path d="M7694 10977 c-375 -392 -649 -775 -890 -1242 -333 -646 -529 -1381
-560 -2107 -4 -87 -9 -158 -11 -158 -2 0 -63 53 -136 118 -373 334 -740 583
-1171 796 -668 330 -1350 499 -2150 532 l-169 7 6 -224 c11 -369 47 -643 133
-1014 91 -387 211 -718 394 -1090 224 -454 460 -800 817 -1197 68 -75 123
-138 123 -140 0 -3 -76 -8 -169 -11 -1007 -38 -2001 -391 -2826 -1002 -157
-116 -332 -264 -464 -391 l-114 -109 109 -104 c526 -503 1191 -903 1887 -1136
376 -125 735 -202 1157 -247 166 -17 791 -18 960 0 650 67 1232 231 1785 503
507 250 923 545 1355 964 580 563 1184 945 1896 1199 781 278 1661 360 2494
231 1017 -158 1935 -607 2704 -1324 l120 -111 24 22 24 23 -108 104 c-632 603
-1440 1049 -2289 1260 -233 58 -508 105 -765 133 -167 17 -821 18 -985 0 -655
-70 -1197 -221 -1760 -491 -427 -205 -906 -529 -1232 -835 -35 -32 -66 -56
-70 -52 -9 8 13 346 33 506 119 988 513 1898 1148 2650 602 713 1387 1247
2268 1541 474 158 922 239 1467 265 l144 7 -6 -194 c-11 -352 -78 -795 -167
-1103 -11 -38 -18 -71 -17 -73 2 -1 17 -6 34 -9 l30 -6 22 82 c97 358 156 768
168 1154 l6 219 -169 -7 c-679 -28 -1263 -152 -1844 -393 -1186 -493 -2166
-1433 -2708 -2598 -220 -473 -372 -998 -437 -1508 -16 -129 -44 -468 -45 -541
l0 -40 -36 35 c-51 49 -206 227 -300 344 -444 557 -771 1220 -948 1920 -150
596 -189 1270 -110 1895 133 1056 609 2064 1341 2839 l88 94 106 -114 c467
-505 811 -1066 1054 -1719 82 -221 176 -562 221 -803 l18 -98 30 7 c17 3 32 8
34 9 6 5 -49 259 -90 420 -190 748 -544 1438 -1039 2030 -76 90 -327 365 -333
365 -2 0 -39 -37 -82 -83z m-4759 -2137 c604 -38 1139 -162 1686 -390 535
-223 1093 -588 1505 -983 l111 -106 6 -193 c38 -1091 435 -2159 1121 -3013 86
-108 273 -322 300 -344 35 -29 17 -34 -106 -27 -784 44 -1429 213 -2090 548
-492 249 -888 538 -1294 943 -323 322 -552 613 -774 979 -417 691 -673 1518
-715 2311 -3 61 -8 149 -11 198 l-6 87 54 0 c29 0 125 -5 213 -10z"/>
<path d="M6700 1515 l0 -165 -41 45 c-52 56 -113 80 -199 79 -157 -3 -264
-116 -263 -279 0 -82 18 -128 70 -186 52 -57 104 -81 190 -87 133 -9 228 41
279 145 l29 58 3 278 4 277 -36 0 -36 0 0 -165z m-157 -109 c92 -27 142 -88
154 -184 15 -133 -81 -241 -215 -242 -137 0 -234 108 -219 242 11 92 64 157
152 184 53 17 73 17 128 0z"/>
<path d="M7770 1300 l0 -380 40 0 40 0 0 380 0 380 -40 0 -40 0 0 -380z"/>
<path d="M8192 1403 c3 -257 5 -281 24 -323 30 -64 65 -102 120 -130 42 -21
62 -25 144 -25 110 0 152 17 213 84 51 57 69 104 70 186 1 117 -48 201 -148
253 -41 21 -63 26 -125 26 -64 0 -84 -5 -125 -28 -28 -15 -62 -43 -77 -63
l-28 -36 0 166 0 167 -36 0 -35 0 3 -277z m396 -15 c114 -55 145 -229 60 -333
-83 -100 -248 -101 -335 -2 -82 93 -65 251 34 321 72 51 156 56 241 14z"/>
<path d="M10510 1514 l0 -167 -40 46 c-51 58 -112 82 -200 81 -76 -2 -125 -21
-179 -70 -59 -52 -84 -114 -85 -205 -1 -100 35 -176 107 -225 60 -42 104 -54
187 -53 116 1 200 51 246 145 l29 59 3 278 4 277 -36 0 -36 0 0 -166z m-110
-127 c87 -45 130 -162 96 -264 -29 -89 -109 -143 -208 -143 -170 1 -268 173
-189 328 52 101 188 137 301 79z"/>
<path d="M11840 1514 l0 -167 -40 46 c-51 58 -112 82 -200 81 -76 -2 -125 -21
-179 -70 -100 -90 -117 -254 -38 -371 24 -35 49 -56 97 -81 62 -32 69 -34 150
-30 102 5 149 26 207 92 62 70 65 89 70 394 l5 272 -36 0 -36 0 0 -166z m-112
-126 c114 -55 145 -229 60 -333 -41 -49 -98 -75 -168 -75 -168 0 -268 162
-196 317 52 111 183 150 304 91z"/>
<path d="M7986 1638 c-20 -29 -20 -34 4 -58 27 -27 56 -25 76 5 38 57 -41 109
-80 53z"/>
<path d="M3180 1471 c-58 -14 -87 -28 -130 -67 -67 -61 -85 -104 -85 -209 0
-80 3 -95 27 -137 57 -95 156 -145 268 -135 70 6 129 35 169 84 l31 38 0 -75
c-1 -129 -50 -198 -155 -220 -94 -20 -189 8 -237 70 -20 26 -31 31 -57 28
l-33 -3 33 -50 c50 -72 108 -99 225 -103 77 -3 99 0 142 18 66 29 117 84 136
151 22 74 22 354 0 428 -19 64 -77 131 -138 159 -49 24 -145 34 -196 23z m165
-78 c78 -40 115 -103 115 -196 0 -85 -29 -141 -95 -182 -42 -26 -58 -30 -120
-30 -62 0 -78 4 -120 30 -66 41 -95 97 -95 182 0 112 58 187 165 214 39 10
112 1 150 -18z"/>
<path d="M3805 1471 c-40 -10 -86 -35 -107 -58 -43 -48 -52 -91 -56 -290 l-4
-193 36 0 36 0 0 183 c0 157 3 188 19 224 29 64 104 94 183 73 66 -18 95 -51
112 -132 5 -23 12 -28 36 -28 24 0 30 4 30 23 0 90 -70 177 -158 196 -58 12
-82 13 -127 2z"/>
<path d="M4370 1471 c-58 -14 -87 -28 -130 -67 -67 -61 -85 -104 -85 -209 0
-107 18 -150 89 -212 52 -45 101 -63 177 -63 90 0 128 16 187 77 l52 55 0 -61
0 -61 30 0 30 0 0 153 c0 185 -13 239 -71 302 -22 24 -59 52 -83 63 -49 24
-145 34 -196 23z m171 -82 c78 -39 114 -111 107 -215 -3 -50 -10 -72 -33 -106
-85 -120 -275 -119 -360 1 -25 36 -30 54 -33 115 -4 78 8 117 52 164 62 69
178 87 267 41z"/>
<path d="M5597 1466 c-78 -22 -127 -81 -127 -153 0 -88 40 -118 188 -143 128
-22 149 -31 158 -67 18 -68 -44 -123 -138 -123 -79 0 -124 20 -145 64 -13 29
-22 36 -45 36 -22 0 -28 -4 -28 -22 0 -35 34 -82 75 -108 52 -32 176 -40 240
-16 106 41 148 163 82 235 -29 31 -52 39 -176 61 -118 21 -145 39 -143 90 2
90 152 131 232 64 16 -14 32 -34 35 -44 9 -30 65 -28 65 1 0 91 -150 160 -273
125z"/>
<path d="M7080 1471 c-84 -19 -155 -73 -192 -145 -29 -56 -35 -148 -14 -220
23 -76 89 -146 165 -171 78 -26 193 -18 254 18 42 25 107 91 107 109 0 5 -15
8 -33 8 -23 0 -41 -8 -58 -26 -60 -66 -187 -85 -270 -41 -52 28 -97 87 -106
140 l-6 37 252 0 251 0 0 28 c0 92 -70 201 -153 240 -50 24 -145 34 -197 23z
m118 -62 c62 -13 124 -64 146 -119 9 -23 14 -46 11 -51 -4 -5 -95 -9 -211 -9
-230 0 -230 0 -195 68 26 52 84 99 136 111 55 12 58 12 113 0z"/>
<path d="M9055 1471 c-86 -22 -155 -76 -191 -147 -28 -58 -27 -204 3 -260 47
-87 126 -135 234 -142 120 -7 223 39 264 119 l16 29 -35 0 c-25 0 -43 -9 -68
-34 -74 -74 -229 -75 -306 -3 -31 29 -62 90 -62 122 l0 25 251 0 252 0 -7 49
c-19 143 -117 234 -263 246 -32 2 -71 1 -88 -4z m175 -81 c19 -10 45 -29 57
-42 27 -28 56 -95 48 -108 -4 -6 -94 -10 -217 -10 l-210 0 6 32 c25 126 190
193 316 128z"/>
<path d="M9645 1465 c-59 -16 -118 -73 -134 -131 -6 -22 -11 -121 -11 -221 l0
-183 35 0 35 0 0 193 c0 215 6 239 72 273 43 23 123 23 166 0 35 -18 71 -81
72 -123 0 -20 5 -23 35 -23 l36 0 -7 38 c-17 100 -70 162 -154 181 -58 13 -84
13 -145 -4z"/>
<path d="M10890 1471 c-58 -14 -87 -28 -130 -67 -67 -61 -85 -104 -85 -209 0
-107 18 -150 89 -212 53 -46 101 -63 182 -63 99 1 148 26 205 104 l29 39 0
-66 0 -67 30 0 30 0 0 153 c0 185 -13 239 -71 302 -22 24 -59 52 -83 63 -49
24 -145 34 -196 23z m171 -82 c78 -39 114 -111 107 -215 -5 -78 -41 -136 -108
-171 -38 -21 -56 -24 -117 -21 -60 3 -78 8 -114 33 -129 91 -120 302 16 373
69 36 148 36 216 1z"/>
<path d="M12220 1471 c-58 -14 -87 -28 -130 -67 -67 -61 -85 -104 -85 -209 0
-80 3 -95 27 -137 54 -91 140 -138 253 -138 105 0 203 49 240 121 l16 29 -34
0 c-23 0 -41 -8 -58 -26 -74 -80 -237 -86 -317 -11 -31 29 -62 90 -62 122 l0
25 251 0 252 0 -7 51 c-19 143 -116 232 -264 244 -26 2 -63 0 -82 -4z m170
-81 c19 -10 45 -29 57 -42 27 -28 56 -95 48 -108 -4 -6 -94 -10 -217 -10
l-210 0 6 32 c25 126 190 193 316 128z"/>
<path d="M4832 1283 c4 -199 15 -239 79 -300 102 -97 319 -82 398 27 41 56 51
116 51 295 l0 155 -34 0 -35 0 -3 -184 -3 -184 -31 -39 c-42 -52 -87 -73 -157
-73 -98 0 -161 46 -186 135 -6 22 -11 109 -11 193 l0 152 -36 0 -36 0 4 -177z"/>
<path d="M7990 1195 l0 -265 35 0 35 0 0 265 0 265 -35 0 -35 0 0 -265z"/>
<path d="M4452 585 c-35 -15 -56 -55 -46 -87 8 -26 39 -43 102 -58 57 -13 74
-39 53 -78 -22 -42 -122 -35 -136 9 -4 10 -11 19 -16 19 -15 0 -10 -26 10 -51
16 -20 29 -24 74 -24 70 0 97 21 97 76 0 44 -21 62 -85 74 -59 10 -75 22 -75
55 0 35 23 50 74 50 27 0 40 -6 52 -25 16 -25 34 -33 34 -16 0 20 -46 60 -75
65 -16 3 -45 -1 -63 -9z"/>
<path d="M4640 455 c0 -138 1 -145 20 -145 19 0 20 7 20 145 0 138 -1 145 -20
145 -19 0 -20 -7 -20 -145z"/>
<path d="M4829 591 c-51 -16 -71 -34 -91 -78 -49 -111 34 -217 158 -198 41 6
104 51 104 76 0 15 -11 10 -46 -21 -44 -38 -91 -47 -138 -25 -44 21 -66 59
-66 116 0 33 6 47 34 75 30 30 40 34 86 34 47 0 56 -4 86 -35 40 -43 62 -47
38 -6 -30 50 -108 80 -165 62z"/>
<path d="M5145 590 c-42 -13 -85 -60 -95 -104 -17 -77 32 -157 106 -170 132
-25 220 95 158 216 -25 48 -108 76 -169 58z m131 -54 c28 -28 34 -42 34 -75 0
-82 -46 -127 -128 -125 -39 1 -50 6 -80 39 -32 34 -34 41 -29 88 6 71 46 107
118 107 45 0 55 -4 85 -34z"/>
<path d="M6203 589 c-59 -17 -73 -48 -73 -165 0 -63 4 -104 10 -104 6 0 10 20
10 45 l0 45 95 0 95 0 0 -45 c0 -25 5 -45 10 -45 6 0 10 41 10 104 0 89 -3
107 -20 129 -17 21 -79 50 -100 46 -3 0 -19 -5 -37 -10z m107 -37 c16 -13 24
-32 28 -70 l5 -52 -98 0 -98 0 5 52 c4 38 12 57 28 70 30 24 100 24 130 0z"/>
<path d="M6670 455 c0 -138 1 -145 20 -145 19 0 20 7 20 145 0 138 -1 145 -20
145 -19 0 -20 -7 -20 -145z"/>
<path d="M6830 587 c-53 -18 -70 -61 -70 -174 0 -76 3 -93 15 -93 11 0 15 12
15 45 l0 45 90 0 90 0 0 -45 c0 -33 4 -45 15 -45 12 0 15 17 15 90 0 97 -15
151 -47 168 -33 18 -87 22 -123 9z m119 -43 c14 -18 21 -41 21 -70 l0 -44 -90
0 -90 0 0 47 c0 65 27 93 91 93 39 0 51 -4 68 -26z"/>
<path d="M7604 589 c-59 -17 -69 -39 -72 -160 -3 -74 0 -109 7 -109 7 0 11 30
11 84 0 133 19 166 98 166 27 0 45 -7 60 -23 20 -21 22 -34 22 -125 0 -84 3
-102 15 -102 21 0 21 166 1 215 -21 50 -80 72 -142 54z"/>
<path d="M8695 585 c-75 -27 -109 -105 -80 -181 23 -61 65 -89 135 -88 91 0
144 53 142 143 -1 97 -101 161 -197 126z m136 -43 c26 -23 33 -38 36 -79 5
-47 3 -54 -29 -88 -30 -33 -41 -38 -80 -39 -82 -2 -128 43 -128 125 0 33 6 47
34 75 30 30 40 34 85 34 41 0 56 -5 82 -28z"/>
<path d="M9244 586 c-35 -16 -56 -59 -43 -93 10 -27 18 -32 92 -52 58 -15 62
-18 65 -47 4 -37 -13 -53 -62 -61 -31 -5 -40 -1 -66 27 -32 35 -46 35 -35 1
10 -32 61 -54 108 -48 45 6 73 29 82 69 9 37 -27 73 -84 82 -60 9 -81 23 -81
51 0 35 26 55 70 55 31 0 43 -5 56 -25 16 -25 34 -33 34 -16 0 20 -46 60 -75
65 -16 3 -44 -1 -61 -8z"/>
<path d="M9430 455 c0 -138 1 -145 20 -145 19 0 20 7 20 145 0 138 -1 145 -20
145 -19 0 -20 -7 -20 -145z"/>
<path d="M9605 585 c-70 -25 -104 -94 -84 -169 20 -74 92 -116 174 -100 35 6
95 52 95 73 0 18 -14 13 -42 -18 -78 -82 -208 -27 -208 87 0 37 6 50 34 78 30
30 40 34 86 34 46 0 56 -4 87 -35 42 -42 60 -45 37 -6 -33 56 -111 81 -179 56z"/>
<path d="M9935 590 c-82 -25 -122 -138 -76 -214 40 -65 148 -84 211 -38 79 58
74 194 -9 237 -38 19 -91 25 -126 15z m131 -54 c28 -28 34 -42 34 -75 0 -58
-24 -100 -67 -118 -126 -52 -230 102 -133 198 24 25 37 29 80 29 46 0 56 -4
86 -34z"/>
<path d="M10485 590 c-82 -25 -122 -138 -76 -214 40 -65 148 -84 211 -38 32
23 60 78 60 117 0 92 -103 163 -195 135z m114 -34 c76 -40 66 -178 -16 -213
-126 -52 -230 102 -133 198 23 24 37 29 75 29 25 0 58 -6 74 -14z"/>
<path d="M10815 589 c-61 -19 -96 -67 -97 -131 -2 -81 44 -133 125 -144 75
-11 143 36 161 109 l6 27 -80 0 c-47 0 -80 -4 -80 -10 0 -6 28 -10 65 -10 36
0 65 -2 65 -5 0 -23 -35 -65 -65 -79 -53 -25 -106 -14 -146 31 -28 33 -31 41
-26 87 6 70 46 106 117 106 41 0 55 -5 85 -31 38 -34 55 -34 34 -1 -27 44
-108 69 -164 51z"/>
<path d="M11050 455 c0 -138 1 -145 20 -145 19 0 20 7 20 145 0 138 -1 145
-20 145 -19 0 -20 -7 -20 -145z"/>
<path d="M11213 589 c-59 -17 -73 -48 -73 -165 0 -63 4 -104 10 -104 6 0 10
20 10 45 l0 45 95 0 95 0 0 -45 c0 -25 5 -45 10 -45 6 0 10 41 10 104 0 89 -3
107 -20 129 -17 21 -79 50 -100 46 -3 0 -19 -5 -37 -10z m107 -37 c16 -13 24
-32 28 -70 l5 -52 -98 0 -98 0 5 52 c4 38 12 57 28 70 30 24 100 24 130 0z"/>
<path d="M4150 455 c0 -113 2 -135 15 -135 11 0 15 12 15 50 l0 50 63 0 c95 0
140 44 117 115 -14 42 -45 55 -135 55 l-75 0 0 -135z m168 99 c15 -10 22 -25
22 -49 0 -47 -29 -65 -102 -65 l-58 0 0 65 0 65 58 0 c36 0 66 -6 80 -16z"/>
<path d="M5350 580 c0 -5 20 -10 45 -10 l45 0 0 -125 c0 -104 2 -125 15 -125
13 0 15 21 15 125 l0 125 45 0 c25 0 45 5 45 10 0 6 -42 10 -105 10 -63 0
-105 -4 -105 -10z"/>
<path d="M5610 455 l0 -135 100 0 c60 0 100 4 100 10 0 6 -37 10 -91 10 l-90
0 3 53 3 52 73 3 c95 4 93 22 -3 22 l-75 0 0 50 0 50 90 0 c53 0 90 4 90 10 0
6 -40 10 -100 10 l-100 0 0 -135z"/>
<path d="M5860 455 c0 -113 2 -135 15 -135 11 0 15 12 15 50 l0 50 45 0 c43 0
47 -3 81 -50 20 -27 43 -50 51 -50 10 0 4 15 -21 49 -40 54 -42 61 -23 61 36
0 65 67 47 109 -16 39 -48 51 -135 51 l-75 0 0 -135z m168 99 c26 -18 30 -75
7 -94 -8 -7 -44 -15 -80 -18 l-65 -5 0 67 0 66 58 0 c36 0 66 -6 80 -16z"/>
<path d="M6420 455 c0 -113 2 -135 15 -135 11 0 15 12 15 50 l0 50 64 0 c85 0
116 23 116 85 0 66 -30 85 -131 85 l-79 0 0 -135z m170 95 c11 -11 20 -31 20
-45 0 -44 -32 -65 -100 -65 l-60 0 0 65 0 65 60 0 c47 0 64 -4 80 -20z"/>
<path d="M7820 455 l0 -135 100 0 c60 0 100 4 100 10 0 6 -37 10 -91 10 l-90
0 3 53 3 52 73 3 c95 4 93 22 -3 22 l-75 0 0 50 0 50 90 0 c53 0 90 4 90 10 0
6 -40 10 -100 10 l-100 0 0 -135z"/>
<path d="M8060 508 c0 -111 13 -154 53 -178 56 -34 137 -19 162 31 17 31 22
229 6 229 -5 0 -11 -47 -13 -105 -3 -119 -15 -141 -81 -152 -31 -5 -40 -1 -67
25 -29 30 -30 32 -30 131 0 83 -3 101 -15 101 -12 0 -15 -16 -15 -82z"/>
<path d="M8350 455 c0 -83 4 -135 10 -135 6 0 10 23 10 50 l0 50 48 0 c47 0
50 -2 83 -50 19 -27 40 -50 47 -50 15 0 11 9 -24 57 -25 34 -30 53 -14 53 6 0
19 9 30 20 29 29 27 84 -5 115 -22 22 -32 25 -105 25 l-80 0 0 -135z m163 103
c27 -21 31 -61 9 -88 -17 -21 -28 -25 -84 -25 l-63 0 -3 63 -3 62 64 0 c35 0
70 -6 80 -12z"/>
<path d="M8950 455 c0 -83 4 -135 10 -135 6 0 10 23 10 50 l0 50 68 0 c44 0
75 5 89 15 45 32 37 121 -13 144 -14 6 -56 11 -94 11 l-70 0 0 -135z m158 99
c15 -10 22 -25 22 -49 0 -47 -29 -65 -102 -65 l-58 0 0 65 0 65 58 0 c36 0 66
-6 80 -16z"/>
<path d="M10180 455 l0 -135 95 0 c57 0 95 4 95 10 0 6 -35 10 -85 10 l-85 0
0 125 c0 77 -4 125 -10 125 -6 0 -10 -52 -10 -135z"/>
<path d="M7210 513 c-76 -39 -74 -152 3 -189 42 -20 99 -12 128 17 27 27 16
38 -12 13 -32 -29 -105 -26 -130 5 -37 45 -27 51 76 51 95 0 95 0 95 25 0 14
-12 38 -27 55 -36 39 -85 48 -133 23z m109 -29 c53 -44 42 -54 -54 -54 -88 0
-100 7 -72 42 34 44 83 48 126 12z"/>
</g>
</svg>
