<?xml version="1.0" encoding="UTF-8" standalone="no"?>
<svg
   xmlns:dc="http://purl.org/dc/elements/1.1/"
   xmlns:cc="http://creativecommons.org/ns#"
   xmlns:rdf="http://www.w3.org/1999/02/22-rdf-syntax-ns#"
   xmlns:svg="http://www.w3.org/2000/svg"
   xmlns="http://www.w3.org/2000/svg"
   xmlns:sodipodi="http://sodipodi.sourceforge.net/DTD/sodipodi-0.dtd"
   xmlns:inkscape="http://www.inkscape.org/namespaces/inkscape"
   version="1.1"
   id="svg2"
   xml:space="preserve"
   width="4800"
   height="2666.6667"
   viewBox="0 0 4800 2666.6667"
   sodipodi:docname="psy.eps"><metadata
     id="metadata8"><rdf:RDF><cc:Work
         rdf:about=""><dc:format>image/svg+xml</dc:format><dc:type
           rdf:resource="http://purl.org/dc/dcmitype/StillImage" /></cc:Work></rdf:RDF></metadata><defs
     id="defs6" /><sodipodi:namedview
     pagecolor="#ffffff"
     bordercolor="#666666"
     borderopacity="1"
     objecttolerance="10"
     gridtolerance="10"
     guidetolerance="10"
     inkscape:pageopacity="0"
     inkscape:pageshadow="2"
     inkscape:window-width="640"
     inkscape:window-height="480"
     id="namedview4" /><g
     id="g10"
     inkscape:groupmode="layer"
     inkscape:label="ink_ext_XXXXXX"
     transform="matrix(1.3333333,0,0,-1.3333333,0,2666.6667)"><g
       id="g12"
       transform="scale(0.1)"><path
         d="M 0,0 H 36000 V 20000 H 0 Z"
         style="fill:#ffffff;fill-opacity:1;fill-rule:nonzero;stroke:none"
         id="path14" /><path
         d="M 32611.5,4467 C 32154.4,3428.3 31264.8,2969.8 30414.2,2781.7 H 5428.46 c -2358.61,881.1 -3613.69,7289.1 -116.11,8847.9 1916.59,854.2 3236.82,1002.5 3609.45,2348.7 1081.7,3907.9 4093.7,3436.1 6539.8,2964.3 1097.7,-211.7 2081.4,-423.4 2725.6,-239.3 3880.6,1109.2 5419.5,-1215.3 6671.4,-3539.9 1134,-2105.5 2032.6,-4211 4222.9,-3764.7 2114.8,430.8 4872.3,-1881.7 3530,-4931.7"
         style="fill:#ebf2f9;fill-opacity:1;fill-rule:nonzero;stroke:none"
         id="path16" /><path
         d="m 20103.9,7577.7 c 0,0 -821.6,-611 -981.8,-573.9 -160.2,37.1 600.4,659.5 600.4,659.5 -286.2,137.6 -1175.9,51.3 -1175.9,51.3 0,0 -296.4,-955.7 -442.5,-880.3 -146.2,75.3 305.6,832.8 305.6,832.8 -318.8,19.2 -709.8,-217.5 -709.8,-217.5 -535.3,-422.7 35.2,-1088.2 35.2,-1088.2 0,0 -109.9,-329 -447.9,-628.6 0,0 -482.8,-357 -516.3,-994.9 l 87.6,-7.9 c 0,0 138.9,594.2 391.4,875.2 9.8,10.2 24,24.7 41.5,42.4 v 0 c 41.3,38.2 70.1,66.9 89.5,88.2 125.6,120.6 299.2,274.3 382.8,289.2 0,0 -4.2,15.4 -3.6,42.1 1.2,-13.5 2.4,-27.3 3.6,-42.1 28.7,-336.3 681.2,-630.1 1082.6,-690.5 401.5,-60.4 277.4,104.6 139.1,349.3 -138.4,244.7 -576.1,354.2 -676,466.9 -99.8,112.6 106.7,112.9 348.5,2.4 241.9,-110.4 275,-405 663,-590.8 388,-185.8 971.9,458 971.9,458 -309.3,15.7 -750.9,351.5 -734.9,454.3 16,102.8 749.6,-177.3 875,-190.7 125.4,-13.5 410.8,142.5 454.9,647.7 44.2,505.2 -783.9,646.1 -783.9,646.1"
         style="fill:#82b378;fill-opacity:1;fill-rule:nonzero;stroke:none"
         id="path18" /><path
         d="m 15740.6,7198.3 c 0,0 907.4,508.2 484,1197.8 0,0 -338.8,423.5 -701.8,532.4 0,0 193.6,-1028.4 0,-1052.6 -193.5,-24.2 -133.1,1161.5 -133.1,1161.5 0,0 -955.8,459.7 -1330.8,423.5 0,0 592.8,-1004.3 399.2,-980.1 -193.6,24.2 -859,1040.6 -859,1040.6 0,0 -980,181.4 -1137.3,-399.3 -157.3,-580.8 96.8,-871.1 242,-907.4 145.2,-36.3 1076.8,-24.2 1052.6,-145.2 -24.2,-121 -653.4,-314.6 -1004.2,-205.7 0,0 387.1,-955.8 895.3,-907.4 508.2,48.4 665.4,362.9 980,387.1 314.6,24.2 544.5,-60.5 387.2,-145.2 -157.3,-84.6 -689.7,-27.7 -943.7,-243.7 -254.1,-216 -459.8,-349.1 12.1,-445.9 471.8,-96.8 1318.7,-36.3 1488.1,326.7 169.4,362.9 169.4,362.9 169.4,362.9"
         style="fill:#a8d29f;fill-opacity:1;fill-rule:nonzero;stroke:none"
         id="path20" /><path
         d="m 15982.6,6315.1 c -254.1,471.9 -242,883.2 -242,883.2 -290.4,919.6 -2831.1,1742.3 -2831.1,1742.3 3230.4,-1306.7 2661.7,-2105.2 2661.7,-2105.2 87.1,-50.8 217.6,-293 308.2,-478.7 12.9,-31.7 33.3,-75.4 63.7,-134.8 v 0 c 12.3,-26.9 22.1,-48.8 28.9,-64.2 166.4,-416.2 78.2,-1134.8 78.2,-1134.8 l 100.8,-27.1 c 223.4,724.3 -168.4,1319.3 -168.4,1319.3"
         style="fill:#82b378;fill-opacity:1;fill-rule:nonzero;stroke:none"
         id="path22" /><path
         d="m 17184.3,7899.2 c 0,0 -1196.2,669.8 -638,1578.9 0,0 446.6,558.2 925,701.7 0,0 -255.1,-1355.6 0,-1387.5 255.2,-31.9 175.5,1531.1 175.5,1531.1 0,0 1259.9,606 1754.3,558.2 0,0 -781.5,-1323.8 -526.3,-1291.9 255.2,31.9 1132.4,1371.6 1132.4,1371.6 0,0 1291.8,239.2 1499.1,-526.3 207.4,-765.5 -127.5,-1148.3 -318.9,-1196.2 -191.4,-47.8 -1419.5,-31.8 -1387.6,-191.3 31.9,-159.5 861.3,-414.7 1323.8,-271.2 0,0 -510.4,-1259.9 -1180.2,-1196.1 -669.9,63.8 -877.2,478.5 -1291.9,510.3 -414.6,31.9 -717.7,-79.7 -510.3,-191.3 207.3,-111.7 909.1,-36.6 1244,-321.4 334.9,-284.7 606,-460.1 -16,-587.7 -622,-127.6 -1738.4,-47.9 -1961.7,430.6 -223.2,478.5 -223.2,478.5 -223.2,478.5"
         style="fill:#a8d29f;fill-opacity:1;fill-rule:nonzero;stroke:none"
         id="path24" /><path
         d="m 20916.3,10195.8 c 0,0 -3349.3,-1084.5 -3732,-2296.6 0,0 15.9,-542.3 -319,-1164.3 0,0 -516.5,-784.3 -222.1,-1739.1 l 132.9,35.7 c 0,0 -116.1,947.3 103.1,1495.9 9,20.2 21.9,49.2 38.2,84.6 40,78.3 66.9,136 83.9,177.6 119.4,245 291.5,564.2 406.2,631.1 0,0 -749.6,1052.6 3508.8,2775.1"
         style="fill:#82b378;fill-opacity:1;fill-rule:nonzero;stroke:none"
         id="path26" /><path
         d="m 15190.2,8012 c 0,0 1979.7,565.5 2477,27.5 435.6,-471.3 1616.9,-2336.9 1679.1,-3441 C 19406.7,3525.6 18271,2820.1 17102.8,2820.1 H 15028 l 162.2,5191.9"
         style="fill:#f1a34f;fill-opacity:1;fill-rule:nonzero;stroke:none"
         id="path28" /><path
         d="m 13820.1,7462.2 c 0,0 2798.9,1271.5 3329.1,440.9 281.5,-441 1056.1,-2200.5 1113.3,-3304.6 55.6,-1072.9 -988.8,-1778.4 -2063.1,-1778.4 h -1908 l -471.3,4642.1"
         style="fill:#d16e24;fill-opacity:1;fill-rule:nonzero;stroke:none"
         id="path30" /><path
         d="m 8301.35,11373.7 c 0,0 3481.55,94.3 4810.45,91.3 683.7,-1.5 666.8,-519 995.3,-1118.6 657.9,-1201 1750.3,-3266.7 1663.4,-3589.5 -123.8,-459.5 -4784.2,-777.6 -5114.2,-671.6 -329.9,106 -2354.95,5288.4 -2354.95,5288.4"
         style="fill:#e78b37;fill-opacity:1;fill-rule:nonzero;stroke:none"
         id="path32" /><path
         d="m 10123.5,7629.7 c -93.3,277.9 -186.29,554.7 -277.26,825.2 55.32,1785.4 915.26,2559.6 1063.36,2612.5 6.8,2.4 13.2,3.6 19.3,3.6 141.8,0 98.5,-628 98.5,-628 L 14031.7,8004.1 13122.4,7853 c -13.6,23.4 -26.4,44.5 -38.3,63.2 -130.6,205.1 -398.7,282.5 -728.6,282.5 -553.8,0 -1281.7,-217.7 -1826.6,-414.5 -152,-54.8 -289.7,-108.1 -405.4,-154.5"
         style="fill:#d97321;fill-opacity:1;fill-rule:nonzero;stroke:none"
         id="path34" /><path
         d="m 15715.3,7673.4 -1242.1,-613.6 c 0,0 -1064.3,3913.3 -1135,4211.8 -31.5,133 -128.6,181.1 -226.4,193.4 172.2,15.7 297.4,16.9 297.4,16.9 338.9,0 640,-215.9 748.7,-536.7 237.2,-699.7 674,-1990.1 1116.4,-3304.3 115.7,46.3 253.4,99.4 405.4,154.1 l 35.6,-121.6"
         style="fill:#f1a34f;fill-opacity:1;fill-rule:nonzero;stroke:none"
         id="path36" /><path
         d="m 13229.3,7461.4 c 0,0 4013.9,355.5 4508.8,-118.4 229.7,-220.1 358.7,-1216.5 431,-2220.9 90.2,-1253 -925.2,-2325.1 -2174.2,-2307.1 l -4351.4,-2 1585.8,4648.4"
         style="fill:#df812f;fill-opacity:1;fill-rule:nonzero;stroke:none"
         id="path38" /><path
         d="m 11726.9,12304.4 c -115,25.8 -234.2,-4 -314.8,-33.9 14.4,28.3 53.6,48.9 53.6,48.9 -53.2,-8 -151.4,-93.2 -151.4,-93.2 -791.6,56.7 -584.4,-1020.1 -495.6,-1257.8 88.8,-237.7 175.7,-516 -111.5,-841.2 -565,-640 249.8,-1207 249.8,-1207 6.5,-1.6 489.4,-444.1 489.4,-444.1 -77.6,190.3 510.2,1499.3 886.9,1952.6 63.2,203.9 12.8,514.7 8.7,539.1 52.5,-242.6 52.5,-387.6 39.2,-473.4 286.8,489.1 -349.7,1741.8 -654.3,1810"
         style="fill:#b5453c;fill-opacity:1;fill-rule:nonzero;stroke:none"
         id="path40" /><path
         d="m 14762.2,10425.3 c 11.8,17.7 111.9,324 218,318.1 106,-5.9 271,-23.6 312.2,-11.8 41.2,11.8 179.5,116.2 203.2,91.3 58.9,-61.8 -73.6,-253.3 -167.9,-282.7 -94.2,-29.5 -247.4,14.7 -282.7,-20.7 -35.4,-35.3 -29.5,-162 -29.5,-162 l -253.3,67.8"
         style="fill:#ffb27d;fill-opacity:1;fill-rule:nonzero;stroke:none"
         id="path42" /><path
         d="m 17566,3645.2 c -11.6,-125 162.5,-155.4 364,-165.4 201.5,-10.1 140.6,-51.4 416.8,-101.4 276.2,-50 386.9,25.6 406.9,62.9 17.8,33.1 -110.6,84.9 -247.5,143.4 -17.2,7.3 -34.4,14.9 -51.7,22.4 -154,67.7 -240.4,205.8 -360.5,333.9 -113.7,121.3 -221.7,509.7 -221.7,509.7 l -375.4,80.1 c 0,0 105.4,-349.5 142,-498.7 21.5,-87.8 -10.2,-186 -38.4,-260.7 -15.2,-40.6 -30.5,-82.2 -34.5,-126.2"
         style="fill:#ffb27d;fill-opacity:1;fill-rule:nonzero;stroke:none"
         id="path44" /><path
         d="m 17930,3479.8 c 201.5,-10.1 140.6,-51.4 416.8,-101.4 276.2,-50 386.9,25.6 406.9,62.9 17.8,33.1 -110.6,84.9 -247.5,143.4 l -2.1,-2.3 c 0,0 -194.2,-66 -418.4,-5 -182.7,49.6 -359.3,158.8 -485.2,194 -15.2,-40.6 -30.5,-82.2 -34.5,-126.2 -11.6,-125 162.5,-155.4 364,-165.4"
         style="fill:#c65447;fill-opacity:1;fill-rule:nonzero;stroke:none"
         id="path46" /><path
         d="m 13828.5,8095.8 c 0,0 2494,187.7 2963.6,-108.6 469.5,-296.3 1222.5,-3747.9 1222.5,-3747.9 0,0 -46.5,-37.3 -150.3,-48.5 -96.5,-10.4 -309.1,46.3 -309.1,46.3 0,0 -1082.2,1544.4 -1158.5,1933.4 -76.2,389.1 -57.6,736.3 -231.2,745.6 -173.5,9.3 -2337.3,-263.1 -2664.6,313.5 -327.3,576.6 -56.7,1147.4 -56.7,1147.4 l 384.3,-281.2"
         style="fill:#aa413e;fill-opacity:1;fill-rule:nonzero;stroke:none"
         id="path48" /><path
         d="m 15011.2,10055.1 c -169.6,-429.3 -579.1,-1129.1 -684.9,-1155.6 -89.2,-22.2 -525.2,77.3 -879.5,198.2 -207.4,70.8 -386.6,148.9 -451.9,214.2 -176.7,176.7 -758.4,1215 -758.4,1215 0,0 546.4,69.2 805.6,-83.9 259.2,-153.2 883.6,-860.1 977.9,-836.6 94.2,23.6 541.9,813 718.7,883.7 0,0 270.9,58.9 341.6,-129.6 17.8,-47.4 -12.1,-161.1 -69.1,-305.4"
         style="fill:#699dee;fill-opacity:1;fill-rule:nonzero;stroke:none"
         id="path50" /><path
         d="m 16611.7,3244.6 c -11.6,-125 162.4,-155.4 364,-165.4 201.5,-10.1 140.6,-51.3 416.8,-101.4 276.2,-50 386.9,25.6 406.8,62.9 17.8,33.1 -110.6,84.9 -247.4,143.4 -17.2,7.3 -34.5,14.9 -51.7,22.4 -154,67.7 -240.4,205.9 -360.5,333.9 -113.8,121.3 -221.8,509.7 -221.8,509.7 l -375.3,80.2 c 0,0 105.4,-349.6 142,-498.8 21.5,-87.8 -10.2,-185.9 -38.4,-260.6 -15.2,-40.7 -30.5,-82.3 -34.5,-126.3"
         style="fill:#ffb27d;fill-opacity:1;fill-rule:nonzero;stroke:none"
         id="path52" /><path
         d="m 16975.7,3079.2 c 201.5,-10.1 140.6,-51.3 416.8,-101.4 276.2,-50 386.9,25.6 406.8,62.9 17.8,33.1 -110.6,84.9 -247.4,143.4 l -2.1,-2.3 c 0,0 -194.2,-66 -418.4,-5 -182.7,49.6 -359.4,158.8 -485.2,194.1 -15.2,-40.7 -30.5,-82.3 -34.5,-126.3 -11.6,-125 162.4,-155.4 364,-165.4"
         style="fill:#c65447;fill-opacity:1;fill-rule:nonzero;stroke:none"
         id="path54" /><path
         d="m 15011.2,10055.1 c -169.6,-429.3 -579.1,-1129.1 -684.9,-1155.6 -89.2,-22.2 -525.2,77.3 -879.5,198.2 -146.7,125.1 -236.7,233.3 -251.4,255.3 11.6,-4.3 837.5,-317.5 1001.3,-247.3 148.4,63.6 568.6,780.6 814.5,949.4"
         style="fill:#4a75cb;fill-opacity:1;fill-rule:nonzero;stroke:none"
         id="path56" /><path
         d="m 12310.1,10404.8 c 2.7,-0.4 -190.7,-189.9 -378.1,-195.4 -176.2,-5.4 -346.9,173.1 -344.8,174.2 64.7,34.8 55.7,135.5 -70,541.8 l 33,3.4 555.3,56.2 c 0,0 38.4,-168.4 85.4,-323.8 39.5,-130.4 85.1,-251.6 119.2,-256.4"
         style="fill:#ffb27d;fill-opacity:1;fill-rule:nonzero;stroke:none"
         id="path58" /><path
         d="m 12105.5,10985 c 0,0 38.4,-168.4 85.4,-323.8 -295.5,-81.2 -532,138.8 -640.7,267.6 l 555.3,56.2"
         style="fill:#e2915a;fill-opacity:1;fill-rule:nonzero;stroke:none"
         id="path60" /><path
         d="m 13340,7941.3 c 0,0 2215.6,-104.9 2673.2,-419.3 457.6,-314.3 1075.8,-3792.6 1075.8,-3792.6 0,0 -47.9,-35.4 -152.1,-42.6 -96.9,-6.7 -307.1,58.3 -307.1,58.3 0,0 -1021.3,1585.3 -1082.3,1977 -61,391.8 -28.9,737.9 -202,754 -173.1,16 -2345.9,-171.9 -2650.5,417 -304.6,588.9 645,1048.2 645,1048.2"
         style="fill:#c65447;fill-opacity:1;fill-rule:nonzero;stroke:none"
         id="path62" /><path
         d="m 11478.7,10969.3 c 0,0 -227.6,195.7 -327.8,391.9 -71.6,140.1 -163.8,712.1 412.1,801.5 0,0 165,33.2 346.7,-22.6 144.5,-44.3 370.7,-166.2 323.7,-704.2 l -0.8,-177.2 -753.9,-289.4"
         style="fill:#b5453c;fill-opacity:1;fill-rule:nonzero;stroke:none"
         id="path64" /><path
         d="m 13352.3,7752.8 c -19.4,-0.1 -46.8,1.2 -78.8,3.7 -129.5,9.9 -335.9,37.6 -408.1,59.1 -609.6,182.2 -1195.3,406.8 -1444.7,1196.1 -30.2,95.4 -55.4,199.1 -75.2,312 l 95.1,362.4 185.4,765 c 0,0 228.2,-122 440.1,-74.9 108.5,24.1 170.4,150.6 170.4,150.6 0,0 1147.3,-449.1 1536.1,-1379.8 388.8,-930.8 522.3,-789.4 640.1,-989.7 117.8,-200.3 -404.5,-400.6 -1060.4,-404.5"
         style="fill:#699dee;fill-opacity:1;fill-rule:nonzero;stroke:none"
         id="path66" /><path
         d="m 12248.2,10867.9 c 0,0 -689.7,-223.1 -822.1,208.5 -132.3,431.7 -310.5,693.6 124.3,854.4 434.8,160.7 571.3,22.3 650.5,-111 79.2,-133.4 223.3,-882.7 47.3,-951.9"
         style="fill:#ffb27d;fill-opacity:1;fill-rule:nonzero;stroke:none"
         id="path68" /><path
         d="m 11862.9,12037.8 c 0,0 -35.1,-564.6 -303.5,-728.5 -268.4,-163.9 -418.6,-124.4 -418.6,-124.4 0,0 169.2,245.7 121,569.8 0,0 384.3,480.5 601.1,283.1"
         style="fill:#b5453c;fill-opacity:1;fill-rule:nonzero;stroke:none"
         id="path70" /><path
         d="m 11828.4,11982.3 c 0,0 176.3,-69.9 244.5,-169.3 68.1,-99.4 152.8,-321 216.4,-293.2 0,0 37.8,388.1 -182.3,533.8 -233.5,154.5 -278.6,-71.3 -278.6,-71.3"
         style="fill:#b5453c;fill-opacity:1;fill-rule:nonzero;stroke:none"
         id="path72" /><path
         d="m 13273.5,7756.5 c -129.5,9.9 -335.9,37.6 -408.1,59.1 -609.6,182.2 -1195.3,406.8 -1444.7,1196.1 -0.9,5.8 -2,11.6 -3.1,17.4 l 84.6,66.6 c 173,136.1 406.3,167.2 609,81.7 481.5,-203.4 1143,-572 1162.3,-1420.9"
         style="fill:#4a75cb;fill-opacity:1;fill-rule:nonzero;stroke:none"
         id="path74" /><path
         d="m 11626,10451.1 c 0,0 -712.5,-107.1 -830.3,-554.3 -117.8,-447.1 -222.6,-1908 -116.5,-2023.4 106,-115.4 422.8,18.5 493.5,76.2 70.7,57.7 435.9,1543.4 435.9,1543.4 0,0 178.7,671.5 17.4,958.1"
         style="fill:#699dee;fill-opacity:1;fill-rule:nonzero;stroke:none"
         id="path76" /><path
         d="m 12710.9,8397.9 c 0,0 409.9,79.3 456.1,59.5 46.3,-19.9 304.1,-251.2 277.7,-297.5 -26.5,-46.3 -132.2,-79.3 -251.2,-39.7 -119,39.7 -376.8,59.5 -423.1,119 -46.3,59.5 -59.5,158.7 -59.5,158.7"
         style="fill:#ffb27d;fill-opacity:1;fill-rule:nonzero;stroke:none"
         id="path78" /><path
         d="m 12821.1,8455.2 c 0,0 -1599.8,26.4 -1983.3,-224.8 0,0 -224.7,-231.4 -158.6,-357 66.1,-125.6 271,-105.7 363.6,-99.1 92.5,6.6 1712.2,376.8 1712.2,376.8 0,0 185.1,138.8 66.1,304.1"
         style="fill:#699dee;fill-opacity:1;fill-rule:nonzero;stroke:none"
         id="path80" /><path
         d="m 11459.4,8012 c 0,0 1820.5,565.5 2277.8,27.5 400.6,-471.3 1486.9,-2336.9 1544.1,-3441 55.6,-1072.9 -988.8,-1778.4 -2063.1,-1778.4 h -1908.1 l 149.3,5191.9"
         style="fill:#f1a34f;fill-opacity:1;fill-rule:nonzero;stroke:none"
         id="path82" /><path
         d="m 14197.4,4598.5 c -57.2,1104.1 -831.8,2863.6 -1113.3,3304.6 -410.7,643.4 -2182.8,25.4 -2960.6,-285.8 -442.42,1314.3 -879.2,2604.6 -1116.34,3304.3 -108.75,320.9 -409.88,536.7 -748.7,536.7 0,0 -1264.98,186.9 -1460.74,-1498.4 C 6171.1,4565.3 6674.6,2825.7 8922.37,2812.3 c 281.9,-1.7 832.88,3.3 1303.73,8.6 l 0.1,-0.8 h 1908.1 c 1074.3,0 2118.6,705.5 2063.1,1778.4"
         style="fill:#f1a34f;fill-opacity:1;fill-rule:nonzero;stroke:none"
         id="path84" /><path
         d="m 14197.4,4602 c -57.2,1107.4 -831.8,2871.9 -1113.3,3314.2 -349.6,549.4 -1685.7,182 -2555.2,-132 -152,-54.8 -289.7,-108.1 -405.4,-154.5 -442.39,1318.1 -879.14,2612.2 -1116.31,3313.9 -108.75,321.8 -409.89,538.3 -748.73,538.3 0,0 -125.24,-1.2 -297.37,-16.9 h -0.23 c -277.35,-25.3 -676.04,-88.4 -867.15,-245.2 -129.6,-106.4 -218.66,-573 -295.96,-1240.7 -182.73,-1577.4 -269.33,-2843.2 -244.7,-3845.4 12.6,-514 54.54,-958.5 127.83,-1340.3 51.25,-267.4 117.82,-503.9 200.65,-711.8 358.75,-901.7 1019.82,-1264.9 2040.83,-1271 118.65,-0.8 285.01,-0.3 473.05,0.9 258.6,1.7 558.1,4.7 830.69,7.8 l 0.2,-0.8 h 1908 c 1074.3,0 2118.7,707.5 2063.1,1783.5"
         style="fill:#d16e24;fill-opacity:1;fill-rule:nonzero;stroke:none"
         id="path86" /><path
         d="m 10102.5,7703.4 c -287.1,-112.8 -605.3,-237.7 -862.8,-338.8 -251.7,926.1 -993.7,3659.5 -1052.3,3907 -31.4,133 -128.5,181.1 -226.3,193.4 172.1,15.7 297.4,16.9 297.4,16.9 338.8,0 639.9,-215.9 748.7,-536.7 233.4,-688.6 660.1,-1949.3 1095.3,-3241.8"
         style="fill:#f1a34f;fill-opacity:1;fill-rule:nonzero;stroke:none"
         id="path88" /><path
         d="M 9399.14,2806.1 H 6316.2 c 0,84.1 84,152.3 187.68,152.3 h 784.67 c -544.08,178.4 -931.94,604.9 -950.56,1107 h -50.77 v 37.8 h 585.03 c 109.61,-281.6 248.32,-511.6 417.66,-695.1 381.6,-414.7 919.16,-593.2 1632.45,-597.5 38.01,-0.3 80.91,-0.4 127.85,-0.4 99.6,0 217.39,0.5 345.2,1.3 1.2,0 2.41,0 3.61,0 0.08,-1.8 0.12,-3.6 0.12,-5.4"
         style="fill:#dbb195;fill-opacity:1;fill-rule:nonzero;stroke:none"
         id="path90" /><path
         d="m 7289.91,3408.1 c -169.34,183.5 -308.05,413.5 -417.66,695.1 h 0.79 c 2.81,-7.2 5.64,-14.4 8.49,-21.6 108.12,-271.7 243.76,-494.6 408.38,-673.5"
         style="fill:#df812f;fill-opacity:1;fill-rule:nonzero;stroke:none"
         id="path92" /><path
         d="m 9050.21,2810.2 c -46.94,0 -89.84,0.1 -127.85,0.4 -713.29,4.3 -1250.85,182.8 -1632.45,597.5 -164.62,178.9 -300.26,401.8 -408.38,673.5 -2.85,7.2 -5.68,14.4 -8.49,21.6 h 287.21 c 7.41,130 4.83,330.6 -63.04,468.3 -4.36,8.1 -10.84,19.8 -18.85,34 -19.55,31.2 -32.87,54.1 -41.24,70.9 -58.78,97.7 -143.5,225.3 -199.93,252.1 0,0 7.07,8.1 13.67,23.9 -4.36,-7.7 -8.96,-15.5 -13.67,-23.9 -27.69,-48.2 -83.53,-86.4 -156.35,-115.6 -73.29,380.7 -115.22,823.9 -127.83,1336.4 99.08,-34.6 166.36,-60.9 166.36,-60.9 0,0 -38.45,-612 82.61,-612 1.24,0 2.49,0 3.75,0.2 125.6,12.8 0,554.4 0,554.4 235.52,-57.2 455.36,-280.4 455.36,-280.4 274.76,-363.2 -313.97,-630.9 -313.97,-630.9 0,0 -7.91,-216.7 156.93,-465.3 0,0 192.87,-237.7 146.8,-551.2 h 240.46 c -87.65,435.5 185.56,772.4 185.56,772.4 217.38,327.6 207.01,613.2 207.01,613.2 0,0 -776.18,352.9 -414.01,831.7 0,0 289.84,294.1 600.28,369.7 0,0 -165.53,-714.1 0,-730.9 1.67,-0.2 3.31,-0.3 4.93,-0.3 159.68,0 108.88,806.9 108.88,806.9 0,0 756.73,295.3 1099.84,295.3 13.54,0 26.46,-0.4 38.64,-1.4 0,0 -495.1,-680.7 -347.19,-680.7 1.78,0 3.67,0.1 5.64,0.3 165.65,16.7 734.83,722.5 734.83,722.5 0,0 123.92,18.6 284.17,18.6 256.41,0 605.81,-47.7 688.61,-295.8 134.6,-403.3 -82.7,-604.9 -207,-630.1 -124.1,-25.3 -921.06,-16.9 -900.33,-100.9 16.45,-66.7 358.75,-165.1 649.33,-165.1 75.6,0 147.7,6.7 209.7,22.3 0,0 -315.1,-631.3 -733.87,-631.3 -10.58,0 -21.25,0.4 -31.97,1.2 -62.91,5 -119.35,13.7 -171.07,25.1 -25.8,-17.5 -67.39,-46.1 -113.57,-79.3 52.42,-35.9 97.31,-68.1 124.88,-97.2 139.97,75.3 263.92,150.1 263.92,150.1 0,0 537.38,-74.2 508.58,-340.2 -27.5,-255.9 -199.5,-341.6 -285.2,-341.6 -3.41,0 -6.73,0.1 -9.89,0.4 -68.83,5.9 -419.66,112.3 -532.76,112.3 -20.68,0 -33.41,-3.6 -35.01,-12 -10.38,-54 276.16,-230.9 476.81,-239.2 0,0 -289.32,-259 -530.34,-259 -34.77,0 -68.59,5.4 -100.34,17.8 -251.78,97.8 -273.22,252.9 -430.16,311.1 -78.06,29 -150.4,43.5 -195.48,43.5 -45.62,0 -63.32,-14.9 -30.73,-44.8 64.8,-59.3 348.86,-117 438.63,-245.8 77.19,-110.9 147.52,-190.7 0.18,-190.7 -24.03,0 -53.89,2.2 -90.42,6.6 -260.49,31.8 -683.93,186.7 -702.55,363.7 v 0 c -54.31,-7.7 -167.19,-88.9 -248.71,-152.5 -12.61,-11.2 -31.1,-26.2 -57.62,-46.1 -10.01,-8.3 -18.26,-15.1 -24.5,-20.3 -53.61,-47.6 -99.32,-112.8 -136.79,-179.5 h 1620.59 v -37.8 h -35.35 c -18.73,-502.1 -406.47,-928.6 -950.55,-1107 h 784.66 c 90.72,0 166.36,-52.3 183.8,-121.6 2.04,-8.2 3.28,-16.7 3.65,-25.3 -1.2,0 -2.41,0 -3.61,0 -127.81,-0.8 -245.6,-1.3 -345.2,-1.3 M 8028.8,5236.8 c -74.46,-35.2 -186.16,-203.3 -263.68,-332.3 -5.53,-11 -12.61,-24.1 -21.56,-39.5 -9.07,-15.6 -19.9,-33.5 -32.86,-54.1 -10.61,-18.7 -18.97,-33.9 -24.75,-44.7 -97.78,-198.5 -92.84,-496.2 -80.12,-663 h 102.86 c 99.44,158.8 242,244.6 242,244.6 219.38,157.7 290.66,331 290.66,331 0,0 -272.16,257.8 -130.78,471.7 -35.35,25.5 -63.38,54.3 -81.77,86.3 m 228.8,-712.9 c -0.47,-14.1 2.24,-22.3 2.24,-22.3 -0.7,7.8 -1.53,15.1 -2.24,22.3 m -246.95,744.5 c 8.14,-19.6 16.97,-30.2 18.03,-31.5 -6.24,11.1 -12.25,21.4 -18.03,31.5 m 1125.99,137.4 c 64.82,0 131.1,-1.7 192.17,-6 -191.58,76.1 -311.76,178.6 -492.84,189.9 -31.86,2 -62.66,2.9 -92.07,2.9 -218.9,0 -357.73,-51.8 -239.12,-103.8 98.14,-42.7 366.54,-33.4 589.09,-83.3 14.14,0.2 28.41,0.3 42.77,0.3"
         style="fill:#cc6216;fill-opacity:1;fill-rule:nonzero;stroke:none"
         id="path94" /><path
         d="m 7755.33,5113.2 c 0,0 -370.17,431.9 -22.82,706.2 0,0 253.72,153.6 460.59,141.1 0,0 -293.14,-491.5 -198.31,-540.4 94.84,-48.9 287.16,571.3 287.16,571.3 0,0 577.37,56 763.1,-33.3 0,0 -493.58,-404 -389.63,-428 103.96,-24 637.09,372.4 637.09,372.4 0,0 537.37,-91.4 508.72,-419.3 -28.66,-327.8 -213.82,-429 -295.2,-420.3 -81.38,8.7 -557.43,190.5 -567.8,123.8 -10.37,-66.7 276.18,-284.6 476.85,-294.8 0,0 -378.85,-417.8 -630.65,-297.2 -251.78,120.5 -273.28,311.7 -430.23,383.4 -156.96,71.7 -290.94,71.5 -226.14,-1.6 64.8,-73.1 348.86,-144.2 438.61,-303 89.77,-158.7 170.3,-265.8 -90.21,-226.6 -260.5,39.2 -683.95,229.8 -702.54,448.1 -18.59,218.2 -18.59,218.2 -18.59,218.2"
         style="fill:#82b378;fill-opacity:1;fill-rule:nonzero;stroke:none"
         id="path96" /><path
         d="m 9537.19,5474.4 c 0,0 -1459.53,56.2 -1781.86,-361.2 0,0 -71.28,-213.5 -290.63,-407.9 0,0 -313.28,-231.6 -335.04,-645.6 l 56.86,-5.1 c 0,0 90.15,385.6 253.94,567.9 6.38,6.6 15.63,16.1 27.05,27.6 26.57,24.6 45.1,43 57.66,56.8 81.54,78.4 194.41,178.4 248.75,188.1 0,0 -141.53,517.1 1763.27,579.4"
         style="fill:#82b378;fill-opacity:1;fill-rule:nonzero;stroke:none"
         id="path98" /><path
         d="m 6461.09,5656.3 c 0,0 588.85,329.8 314.05,777.3 0,0 -219.84,274.8 -455.37,345.5 0,0 125.62,-667.4 0,-683.1 -125.63,-15.7 -86.37,753.7 -86.37,753.7 0,0 -620.25,298.4 -863.64,274.8 0,0 384.71,-651.6 259.09,-635.9 -125.62,15.7 -557.44,675.2 -557.44,675.2 0,0 -635.96,117.8 -738.03,-259.1 -102.06,-376.9 62.82,-565.3 157.03,-588.9 94.21,-23.5 698.76,-15.7 683.07,-94.2 -15.71,-78.5 -423.98,-204.1 -651.66,-133.4 0,0 251.24,-620.3 580.99,-588.9 329.76,31.4 431.82,235.6 635.96,251.3 204.13,15.7 353.31,-39.3 251.24,-94.3 -102.07,-54.9 -447.52,-18 -612.4,-158.1 -164.88,-140.2 -298.35,-226.6 7.85,-289.4 306.2,-62.8 855.79,-23.5 965.71,212 109.92,235.5 109.92,235.5 109.92,235.5"
         style="fill:#a8d29f;fill-opacity:1;fill-rule:nonzero;stroke:none"
         id="path100" /><path
         d="m 6618.12,5083.2 c -164.88,306.2 -157.03,573.1 -157.03,573.1 C 6272.66,6253 4623.88,6786.9 4623.88,6786.9 6720.18,5939 6351.17,5420.8 6351.17,5420.8 c 56.49,-32.9 141.2,-190.1 199.98,-310.7 8.37,-20.5 21.63,-48.9 41.33,-87.4 v 0 c 7.98,-17.4 14.36,-31.7 18.77,-41.6 107.94,-270.1 50.76,-736.5 50.76,-736.5 l 65.41,-17.5 c 144.96,470 -109.3,856.1 -109.3,856.1"
         style="fill:#82b378;fill-opacity:1;fill-rule:nonzero;stroke:none"
         id="path102" /><path
         d="m 7397.9,6111.1 c 0,0 -776.22,434.7 -413.98,1024.6 0,0 289.78,362.2 600.27,455.4 0,0 -165.6,-879.7 0,-900.4 165.59,-20.7 113.84,993.5 113.84,993.5 0,0 817.61,393.3 1138.44,362.3 0,0 -507.12,-859 -341.53,-838.3 165.59,20.7 734.82,890 734.82,890 0,0 838.34,155.3 972.84,-341.5 134.5,-496.8 -82.8,-745.2 -206.98,-776.2 -124.2,-31.1 -921.11,-20.7 -900.41,-124.2 20.7,-103.5 558.87,-269.1 859.01,-176 0,0 -331.19,-817.6 -765.87,-776.2 -434.67,41.4 -569.21,310.5 -838.3,331.2 -269.09,20.7 -465.73,-51.7 -331.18,-124.2 134.54,-72.4 589.91,-23.7 807.25,-208.5 217.34,-184.8 393.28,-298.6 -10.34,-381.4 -403.64,-82.8 -1128.1,-31.1 -1272.99,279.4 -144.89,310.5 -144.89,310.5 -144.89,310.5"
         style="fill:#a8d29f;fill-opacity:1;fill-rule:nonzero;stroke:none"
         id="path104" /><path
         d="m 9819.67,7601.4 c 0,0 -2173.39,-703.7 -2421.77,-1490.3 0,0 10.35,-351.9 -206.99,-755.5 0,0 -335.17,-509 -144.09,-1128.5 l 86.23,23.1 c 0,0 -75.37,614.8 66.9,970.8 5.81,13.1 14.23,31.9 24.76,54.9 25.95,50.8 43.43,88.2 54.46,115.2 77.5,159 189.16,366.1 263.62,409.5 0,0 -486.43,683.1 2276.88,1800.8"
         style="fill:#82b378;fill-opacity:1;fill-rule:nonzero;stroke:none"
         id="path106" /><path
         d="m 5851.27,4404 c 0,-839.8 680.74,-1520.5 1520.47,-1520.5 839.73,0 1520.48,680.7 1520.48,1520.5 H 5851.27"
         style="fill:#699dee;fill-opacity:1;fill-rule:nonzero;stroke:none"
         id="path108" /><path
         d="m 7745.89,2895.1 c -61.85,-7.7 -124.9,-11.6 -188.91,-11.6 -839.72,0 -1520.4,680.8 -1520.4,1520.5 h 377.73 c 0,-775.8 580.98,-1415.8 1331.58,-1508.9"
         style="fill:#a1c7ff;fill-opacity:1;fill-rule:nonzero;stroke:none"
         id="path110" /><path
         d="M 8725.63,2993.7 H 6017.86 c -103.6,0 -187.59,-84 -187.59,-187.6 h 3082.94 c 0,103.6 -83.98,187.6 -187.58,187.6"
         style="fill:#4a75cb;fill-opacity:1;fill-rule:nonzero;stroke:none"
         id="path112" /><path
         d="m 5801.27,4404 v -46.7 H 8926.79 V 4404 H 5801.27"
         style="fill:#4a75cb;fill-opacity:1;fill-rule:nonzero;stroke:none"
         id="path114" /><path
         d="M 25706.5,7342.4 V 5882.3 c 0,-256.6 -72.5,-464.1 -162.1,-464.1 h -2859.3 c -89.6,0 -162.1,207.5 -162.1,464.1 v 1460.1 c 0,256.5 252.7,494.1 993.9,485.9 l 2027.5,-21.8 c 89.6,0 162.1,-207.6 162.1,-464.1"
         style="fill:#f1a34f;fill-opacity:1;fill-rule:nonzero;stroke:none"
         id="path116" /><path
         d="M 26085.3,7342.4 V 5882.3 c 0,-256.6 -72.4,-464.1 -162.1,-464.1 h -2859.3 c -89.6,0 -162,207.5 -162,464.1 v 1460.1 c 0,256.5 269.1,502.4 680.9,494.1 l 2340.4,-30 c 89.7,0 162.1,-207.6 162.1,-464.1"
         style="fill:#e78b37;fill-opacity:1;fill-rule:nonzero;stroke:none"
         id="path118" /><path
         d="m 25380.3,9093.6 c 38.9,86.1 -19.5,3680.3 856.8,3637.2 876.4,-43 2512.2,-86.1 2512.2,-86.1 0,0 740,-64.5 292.1,-1829.3 -447.9,-1764.8 -350.5,-4562.7 -350.5,-4562.7 h -3232.7 l -77.9,2840.9"
         style="fill:#f1a34f;fill-opacity:1;fill-rule:nonzero;stroke:none"
         id="path120" /><path
         d="m 28417.9,10815.1 c -54,-210.8 -98.8,-436.1 -138.3,-669.4 -158.1,-944.7 -206.9,-2021.2 -218.7,-2802.6 -9.3,-645.7 6.5,-1089.7 6.5,-1089.7 h -3232.2 l -77.7,2840.8 c 38.2,85.7 -19.8,3680.3 856.5,3636.8 448,-22.4 1094.9,-43.5 1619.4,-60.6 65.9,-1.4 130.4,-4 192.3,-5.3 405.9,-11.9 701,-19.8 701,-19.8 0,0 739.2,-64.5 291.2,-1830.2"
         style="fill:#e78b37;fill-opacity:1;fill-rule:nonzero;stroke:none"
         id="path122" /><path
         d="m 26387.7,3605.4 v 1895.8 c 0,80.4 -67.2,147.6 -147.6,147.6 h -1.3 c -26.3,0 -51.4,-7.9 -72.4,-21.1 -44.8,-25 -75.1,-72.4 -75.1,-126.5 V 3602.8 c -5.8,-0.9 -11.5,-1.9 -17.2,-2.9 -424.3,-65.9 -769.5,-376.9 -885.4,-784.1 h 2117.4 c -119.2,417.5 -478.1,733.4 -918.4,789.6"
         style="fill:#d16e24;fill-opacity:1;fill-rule:nonzero;stroke:none"
         id="path124" /><path
         d="m 27127.1,12694.6 c -321.5,11.4 -637.3,23.8 -890,36.2 -5.2,0.3 -10.3,0.4 -15.5,0.4 -39.5,0 -77.1,-7.5 -112.8,-21.8 -58.4,2.3 -115.9,4.6 -171.8,6.9 61.1,60.5 99.9,86.1 99.9,86.1 l 1090.2,-107.8"
         style="fill:#e7b999;fill-opacity:1;fill-rule:nonzero;stroke:none"
         id="path126" /><path
         d="m 27425.7,12665.1 c -61.9,1.3 -126.4,3.9 -192.3,5.3 -352.1,11.5 -759.4,24.7 -1124.6,39 35.7,14.3 73.3,21.8 112.8,21.8 5.2,0 10.3,-0.1 15.5,-0.4 252.7,-12.4 568.5,-24.8 890,-36.2 l 298.6,-29.5"
         style="fill:#df812f;fill-opacity:1;fill-rule:nonzero;stroke:none"
         id="path128" /><path
         d="m 28060.9,7343.1 c -401.9,26.3 -1694.5,114.6 -1694.5,114.6 l 108.6,2647.2 c -340.1,-784.5 -700.8,-1444.7 -951.4,-1444.7 -139.6,0 -245.1,205.1 -293.7,708.1 -213.4,2206.6 447.6,3091.1 707.1,3348 55.9,-2.3 113.4,-4.6 171.8,-6.9 365.2,-14.3 772.5,-27.5 1124.6,-39 65.9,-1.4 130.4,-4 192.3,-5.3 v 0 c 138.4,-213.5 772.2,-1250.5 851.3,-2462.7 1.3,-18.5 2.6,-38.2 2.6,-56.7 -158.1,-944.7 -206.9,-2021.2 -218.7,-2802.6 v 0"
         style="fill:#d97321;fill-opacity:1;fill-rule:nonzero;stroke:none"
         id="path130" /><path
         d="m 26166.4,5627.7 c -44.8,-25 -75.1,-72.4 -75.1,-126.5 v -2323 c 0,-55.3 30.3,-102.8 75.1,-126.5 43.4,25 73.7,72.5 73.7,126.5 v 2323 c 0,54.1 -30.3,101.5 -73.7,126.5"
         style="fill:#f1a34f;fill-opacity:1;fill-rule:nonzero;stroke:none"
         id="path132" /><path
         d="m 26074.1,3599.9 c -424.3,-65.9 -769.5,-376.9 -885.4,-784.1 h 1770.9 c -116,407.2 -459.9,718.2 -885.5,784.1"
         style="fill:#f1a34f;fill-opacity:1;fill-rule:nonzero;stroke:none"
         id="path134" /><path
         d="m 28737.1,6090.2 -73.1,-419.6 c 0,-89.6 0.6,-252.4 -89,-252.4 h -5033.4 c -89.6,0 -162.1,72.5 -162.1,162.1 v 509.9 c 0,89.6 72.5,162.1 162.1,162.1 H 28575 c 89.6,0 162.1,-72.5 162.1,-162.1"
         style="fill:#f1a34f;fill-opacity:1;fill-rule:nonzero;stroke:none"
         id="path136" /><path
         d="m 22682.5,3121.3 c 9.2,-44.8 18.4,-90.9 15.8,-138.4 -6.6,-26.3 -23.7,-46.1 -48.8,-61.9 l -23.7,-44.8 c -25,-11.9 -85.6,-21.1 -163.4,-29 l -1.3,36.9 c -10.5,0 -21.1,0 -31.6,-1.3 v 1.3 c -92.2,-1.3 -206.9,-9.2 -346.6,-64.6 -1.3,0 -2.6,-1.3 -3.9,-1.3 -25,-1.3 -50.1,-2.6 -72.5,-3.9 h -339.9 c -163.4,23.7 -228,89.5 -239.9,122.5 0,9.2 122.6,69.8 224.1,98.8 1.3,0 3.9,1.3 7.9,1.3 14.4,5.3 42.1,15.9 48.7,17.2 18.5,6.6 39.5,11.8 58,17.1 170,50.1 284.6,163.4 419,288.6 154.2,143.6 363.7,784 336,795.8 l 346.6,-44.8 c 0,0 -278.1,-556 -255.7,-728.6 9.2,-76.5 36.9,-141 55.4,-206.9 1.3,-2.6 1.3,-6.6 2.6,-9.2 4,-9.3 6.6,-18.5 9.2,-27.7 1.3,-6.6 2.7,-11.9 4,-17.1"
         style="fill:#ef9a60;fill-opacity:1;fill-rule:nonzero;stroke:none"
         id="path138" /><path
         d="m 27043.5,7930.2 -1490.5,60.9 c 0,0 -2266.7,-146.3 -2459,-475.8 l -854.8,-3998.2 c 0,0 47.3,-63.9 207.9,-91.4 84.9,-14.5 269.7,27.5 269.7,27.5 0,0 1107,1415.5 1249.3,2304.3 118.9,742.7 166,820.3 573.1,804.9 407.2,-15.4 1656.6,-113.8 2250.3,1.2 593.7,114.9 254,1366.6 254,1366.6"
         style="fill:#233862;fill-opacity:1;fill-rule:nonzero;stroke:none"
         id="path140" /><path
         d="m 22704.9,3019.8 c 0,-13.2 -1.3,-26.3 -6.6,-36.9 -6.6,-26.3 -23.7,-46.1 -48.8,-61.9 -2.6,-2.6 -5.2,-4 -7.9,-5.3 0,0 0,0 -1.3,0 -1.3,-1.3 -2.6,-1.3 -3.9,-2.6 -43.5,-26.4 -101.5,-26.4 -175.3,-29 h -31.6 c -92.2,-1.3 -206.9,-9.2 -346.6,-64.6 -1.3,0 -2.6,-1.3 -3.9,-1.3 -4,-1.3 -6.6,-2.6 -10.6,-3.9 h -575.8 c -79,31.6 -94.8,81.6 -102.7,100.1 -6.6,14.5 11.8,30.3 47.4,47.4 2.6,1.4 6.6,2.7 9.2,5.3 50.1,22.4 125.2,46.1 205.6,72.5 1.3,-1.3 3.9,-1.3 6.6,-2.7 54,-18.4 242.4,-77.7 463.8,-35.6 184.5,35.6 367.6,122.6 508.6,164.8 11.8,2.6 23.7,6.6 35.6,9.2 2.6,1.3 5.2,1.3 7.9,2.6 2.6,-5.2 3.9,-11.8 5.2,-17.1 13.2,-44.8 25.1,-92.2 25.1,-141"
         style="fill:#365da4;fill-opacity:1;fill-rule:nonzero;stroke:none"
         id="path142" /><path
         d="m 22657.4,2935.5 -7.9,-14.5 -23.7,-44.8 -32.9,-61.9 h -162.1 v 32.9 l -1.3,35.6 v 15.8 l 218.7,35.6 9.2,1.3"
         style="fill:#365da4;fill-opacity:1;fill-rule:nonzero;stroke:none"
         id="path144" /><path
         d="m 23187.6,3121.3 c 9.2,-44.8 18.4,-90.9 15.8,-138.4 -6.6,-26.3 -23.7,-46.1 -48.8,-61.9 l -23.7,-44.8 c -25,-11.9 -85.6,-21.1 -163.4,-29 l -1.3,36.9 c -10.5,0 -21.1,0 -31.6,-1.3 v 1.3 c -92.2,-1.3 -206.9,-9.2 -346.6,-64.6 -1.3,0 -2.6,-1.3 -3.9,-1.3 -25,-1.3 -50.1,-2.6 -72.5,-3.9 h -339.9 c -163.4,23.7 -228,89.5 -239.8,122.5 0,9.2 122.5,69.8 223.9,98.8 1.4,0 4,1.3 8,1.3 14.5,5.3 42.1,15.9 48.7,17.2 18.5,6.6 39.6,11.8 58,17.1 170,50.1 284.6,163.4 419,288.6 154.2,143.6 363.7,784 336,795.8 l 346.6,-44.8 c 0,0 -278.1,-556 -255.7,-728.6 9.2,-76.5 36.9,-141 55.4,-206.9 1.3,-2.6 1.3,-6.6 2.6,-9.2 3.9,-9.3 6.6,-18.5 9.2,-27.7 1.3,-6.6 2.7,-11.9 4,-17.1"
         style="fill:#ffb27d;fill-opacity:1;fill-rule:nonzero;stroke:none"
         id="path146" /><path
         d="m 26139.3,11628.2 -116,-460.4 -609.1,-2406.7 c -23.3,-36.3 -217.2,-113 -431.8,-185 -255.5,-85.4 -540.8,-165.9 -594.8,-161.2 -98.8,8 -153.4,214.4 -125.3,272.6 18.2,38.4 343.9,211.2 598.6,366.1 142.2,86.4 262,167.1 295.2,215.2 59.8,89.1 208.7,908.5 330,1508.3 61.8,307.6 117.1,557.6 149,623.2 81.2,171.1 397,217.3 482.5,226.1 13.7,1.8 21.7,1.8 21.7,1.8"
         style="fill:#466aa5;fill-opacity:1;fill-rule:nonzero;stroke:none"
         id="path148" /><path
         d="m 27437.7,7928.8 -1490.4,61 c 0,0 -2266.8,-146.4 -2459.1,-475.9 l -789.9,-4077.1 c 0,0 137.9,-47.1 224.4,-53.6 137.9,-10.3 232.7,35 232.7,35 0,0 1062.6,1449.2 1205,2337.9 118.9,742.7 165.9,820.3 573.1,804.9 407.2,-15.4 1656.6,-113.8 2250.3,1.2 593.7,115 253.9,1366.6 253.9,1366.6"
         style="fill:#2b478b;fill-opacity:1;fill-rule:nonzero;stroke:none"
         id="path150" /><path
         d="m 23210,3019.8 c 0,-13.2 -1.3,-26.3 -6.6,-36.9 -6.6,-26.3 -23.7,-46.1 -48.8,-61.9 -2.6,-2.6 -5.2,-4 -7.9,-5.3 0,0 0,0 -1.3,0 -1.3,-1.3 -2.6,-1.3 -3.9,-2.6 -43.5,-26.4 -101.5,-26.4 -175.3,-29 h -31.6 c -92.2,-1.3 -206.9,-9.2 -346.6,-64.6 -1.3,0 -2.6,-1.3 -3.9,-1.3 -4,-1.3 -6.6,-2.6 -10.6,-3.9 h -575.8 c -79,31.6 -94.8,81.6 -102.7,100.1 -6.6,14.5 11.8,30.3 47.4,47.4 2.6,1.4 6.6,2.7 9.2,5.3 50.1,22.4 125.2,46.1 205.6,72.5 1.3,-1.3 3.9,-1.3 6.6,-2.7 54,-18.4 242.4,-77.7 463.8,-35.6 184.5,35.6 367.6,122.6 508.6,164.8 11.8,2.6 23.7,6.6 35.6,9.2 2.6,1.3 5.2,1.3 7.9,2.6 2.6,-5.2 3.9,-11.8 5.2,-17.1 13.2,-44.8 25.1,-92.2 25.1,-141"
         style="fill:#466aa5;fill-opacity:1;fill-rule:nonzero;stroke:none"
         id="path152" /><path
         d="m 23162.5,2935.5 -7.9,-14.5 -23.7,-44.8 -32.9,-61.9 h -162.1 v 32.9 l -1.3,35.6 v 15.8 l 218.7,35.6 9.2,1.3"
         style="fill:#466aa5;fill-opacity:1;fill-rule:nonzero;stroke:none"
         id="path154" /><path
         d="m 26884.8,12275.3 c 714.8,54.3 854.6,1521.3 4.2,1342.7 0,0 -119.2,77.9 -178.1,78.7 0,0 45.6,-16.7 65.4,-45.2 -91.8,20.5 -234.3,53.8 -346.5,-9.8 -1150,-652.3 178,-1387.4 455,-1366.4"
         style="fill:#163560;fill-opacity:1;fill-rule:nonzero;stroke:none"
         id="path156" /><path
         d="m 26078.3,11494.3 c -2.9,-0.8 235.1,-177.9 439.2,-156.1 191.9,20.3 350.7,239.2 348.3,240.2 -75.4,28.1 -80.5,138.7 -4.3,598.2 l -36.3,-1.3 -610.8,-21.2 c 0,0 -16.7,-188.4 -44.8,-363.9 -23.5,-147.4 -55,-285.7 -91.3,-295.9"
         style="fill:#ffb27d;fill-opacity:1;fill-rule:nonzero;stroke:none"
         id="path158" /><path
         d="m 26023.3,11167.8 -609.1,-2406.7 c -23.3,-36.3 -217.2,-113 -431.8,-185 -18.2,44.3 -35.3,95.2 -51.6,151.2 -32.5,112.1 -56.2,221.4 -69.9,326.3 142.2,86.4 262,167.1 295.2,215.2 59.8,89.1 208.7,908.5 330,1508.3 273,268 530.6,399.8 530.6,399.8 l 6.6,-9.1"
         style="fill:#2b478b;fill-opacity:1;fill-rule:nonzero;stroke:none"
         id="path160" /><path
         d="m 26214.4,12154.1 c 0,0 -16.7,-188.4 -44.8,-363.9 332.7,-44.4 556.7,229.3 655.6,385.1 l -610.8,-21.2"
         style="fill:#ef9a60;fill-opacity:1;fill-rule:nonzero;stroke:none"
         id="path162" /><path
         d="m 26896.7,12229.8 c 0,0 218,246.1 297.7,473.8 56.9,162.6 72.2,796.9 -565.8,808.6 0,0 -184,11.6 -372.9,-75.8 -150.2,-69.5 -377.5,-235.2 -246.9,-812.1 l 27.1,-192.1 860.8,-202.4"
         style="fill:#163560;fill-opacity:1;fill-rule:nonzero;stroke:none"
         id="path164" /><path
         d="m 26076.9,12005.9 c 0,0 781.4,-140 861,348 79.7,488 234.2,798.5 -261.3,908.5 -495.6,110 -623.2,-60.3 -689.4,-216.7 -66.2,-156.4 -111.5,-990.8 89.7,-1039.8"
         style="fill:#ffb27d;fill-opacity:1;fill-rule:nonzero;stroke:none"
         id="path166" /><path
         d="m 26321.7,13332.2 c 0,0 121.6,-607.3 437.1,-745.4 315.5,-138 472.6,-72.9 472.6,-72.9 0,0 -220,241.5 -215.6,600.2 0,0 -488.1,464.4 -694.1,218.1"
         style="fill:#163560;fill-opacity:1;fill-rule:nonzero;stroke:none"
         id="path168" /><path
         d="m 26367.3,13277.1 c 0,0 -180.9,-101.8 -240.2,-219.8 -59.2,-117.9 -118.2,-370.9 -191.4,-350.1 0,0 -98.5,415.3 118.8,606.1 230.5,202.2 312.8,-36.2 312.8,-36.2"
         style="fill:#163560;fill-opacity:1;fill-rule:nonzero;stroke:none"
         id="path170" /><path
         d="m 27499.2,7188.3 c -62.1,-111.4 -197,-120.3 -366.6,-71.4 -81.8,22.6 -170.6,59.7 -263.7,102.8 -8.5,5.4 -18.5,9.7 -27.1,13.8 -274.7,133.9 -581,335.7 -820.4,489.4 -501.8,321.6 -535,141.4 -683.8,319.1 0,0 152.9,160.7 -43.2,2038.6 -55.7,537.7 844.9,1547.6 844.9,1547.6 0,0 6,-333.3 726.1,-49.6 25.5,9.2 222.4,-415.2 394.3,-927.6 28.1,-81.9 54.6,-165 79.7,-249.2 119.8,-397.2 208.7,-812 184.7,-1100.5 -5.8,-68.4 -17.2,-130.7 -36.3,-182.3 -2.1,-5 -4.2,-10 -6.4,-15 -247.1,-594 195.3,-1594.8 17.8,-1915.7"
         style="fill:#466aa5;fill-opacity:1;fill-rule:nonzero;stroke:none"
         id="path172" /><path
         d="m 25021.8,9534.8 -1327.2,94.9 568.3,-1547.4 1242.8,-128.9 -483.9,1581.4"
         style="fill:#b64c41;fill-opacity:1;fill-rule:nonzero;stroke:none"
         id="path174" /><path
         d="m 25010,9518.1 -1327.2,94.8 568.3,-1547.3 1242.8,-129 -483.9,1581.5"
         style="fill:#d6716b;fill-opacity:1;fill-rule:nonzero;stroke:none"
         id="path176" /><path
         d="m 24890.5,9544.2 c 0,0 31.9,200.5 -81.1,204.6 -113,4.1 -179.1,-191.9 -179.1,-191.9 l 260.2,-12.7"
         style="fill:#b2cbfd;fill-opacity:1;fill-rule:nonzero;stroke:none"
         id="path178" /><path
         d="m 24678.1,9362.6 c 31.6,-142.6 214.1,-376 203.2,-494.1 l -848.3,11 c 0,0 5.5,54.9 -175.7,444.7 -74.5,160.3 13.7,449.9 90.1,456.5 l 861.8,-31.6 c 0,0 -192.6,-108.5 -131.1,-386.5"
         style="fill:#d2e9ff;fill-opacity:1;fill-rule:nonzero;stroke:none"
         id="path180" /><path
         d="m 23694.6,9629.7 -11.8,-16.8 29.3,-1.8 -2.6,10.3 -14.9,8.3"
         style="fill:#b64c41;fill-opacity:1;fill-rule:nonzero;stroke:none"
         id="path182" /><path
         d="m 25493.9,7936.6 11.8,16.8 -22.4,17.3 z"
         style="fill:#b64c41;fill-opacity:1;fill-rule:nonzero;stroke:none"
         id="path184" /><path
         d="m 27499.2,7188.3 c -62.1,-111.4 -197,-120.3 -366.6,-71.4 -81.8,22.6 -170.6,59.7 -263.7,102.8 -329.8,213.7 -682.9,555.2 -881.1,1102.6 -445.4,1229.6 1267.4,2119.9 1267.4,2119.9 l 84.2,-40.4 c 119.8,-397.2 208.7,-812 184.7,-1100.5 -5.8,-68.4 -17.2,-130.7 -36.3,-182.3 -2.1,-5 -4.2,-10 -6.4,-15 -247.1,-594 195.3,-1594.8 17.8,-1915.7"
         style="fill:#2b478b;fill-opacity:1;fill-rule:nonzero;stroke:none"
         id="path186" /><path
         d="m 25528.6,8458.7 -53.7,38.2 514.8,725.2 53.7,-38.1 -514.8,-725.3"
         style="fill:#d16e24;fill-opacity:1;fill-rule:nonzero;stroke:none"
         id="path188" /><path
         d="m 25474.9,8496.9 -4.2,-64.6 57.9,26.4 z"
         style="fill:#f1a34f;fill-opacity:1;fill-rule:nonzero;stroke:none"
         id="path190" /><path
         d="m 26161.6,8809.5 c 0,0 -232.3,96.4 -350.1,69.3 -117.9,-27.1 -357.6,-105.9 -347,-170.6 10.5,-64.8 267.2,-140 387.7,-96.5 120.5,43.5 189.8,-47.6 332.2,-24.5 142.5,23.2 -22.8,222.3 -22.8,222.3"
         style="fill:#ffb27d;fill-opacity:1;fill-rule:nonzero;stroke:none"
         id="path192" /><path
         d="m 26865.8,11578.4 c 0,0 731.4,-124.2 822.5,-317 91.1,-192.7 30.6,-2213 -26.2,-2426.3 -56.9,-213.2 -1238.4,-313.7 -1592.2,-300.8 0,0 -55.7,239.8 10.5,373.7 66.2,133.9 940.6,278.6 1012.4,378.2 71.8,99.6 -143.5,1327.5 -115.7,1567.7 27.8,240.2 -111.3,724.5 -111.3,724.5"
         style="fill:#466aa5;fill-opacity:1;fill-rule:nonzero;stroke:none"
         id="path194" /><path
         d="m 23999.6,8732.3 c 0,0 241.5,23.4 208.8,-75.6 -32.7,-99 -123.9,-146.8 -123.9,-146.8 0,0 -186.8,134.6 -84.9,222.4"
         style="fill:#ffb27d;fill-opacity:1;fill-rule:nonzero;stroke:none"
         id="path196" /><path
         d="M 28358.3,7342.4 V 5882.3 c 0,-256.6 -72.5,-464.1 -162.1,-464.1 h -2859.3 c -89.6,0 -162.1,207.5 -162.1,464.1 v 1460.1 c 0,256.5 228,510.6 1010.4,464.1 h 2011 c 89.6,0 162.1,-207.6 162.1,-464.1"
         style="fill:#f1a34f;fill-opacity:1;fill-rule:nonzero;stroke:none"
         id="path198" /><path
         d="M 28737.1,7342.4 V 5882.3 c 0,-256.6 -72.5,-464.1 -162.1,-464.1 h -2859.3 c -89.6,0 -162.1,207.5 -162.1,464.1 v 1460.1 c 0,256.5 244.5,485.9 821,464.1 l 2042.4,13.6 c 321.1,0 320.1,-221.2 320.1,-477.7"
         style="fill:#df812f;fill-opacity:1;fill-rule:nonzero;stroke:none"
         id="path200" /><path
         d="m 31744.8,6696.7 h -3717.5 c -88.4,0 -160.8,-72.4 -160.8,-160.8 v -57.6 c 0,-88.4 72.4,-160.8 160.8,-160.8 h 1714.5 l 96.2,-2943 c -474.1,-14.9 -865.9,-249.9 -969,-561.6 h 2034.1 c -102.3,309.2 -488.7,542.8 -957.8,561.1 l 85.3,2943.5 h 1714.2 c 88.5,0 160.8,72.4 160.8,160.8 v 57.6 c 0,88.4 -72.3,160.8 -160.8,160.8"
         style="fill:#4a75cb;fill-opacity:1;fill-rule:nonzero;stroke:none"
         id="path202" /><path
         d="m 29626,6915.1 c -12.7,-32.7 -69.5,-50.3 -97.5,-57.1 11.2,25.8 18.2,53.7 20.2,83.1 17.3,23.6 44.6,37.5 64.6,33.8 17.9,-3.2 28.7,-18.5 12.7,-59.8 z m 26.4,90.8 c -23.7,14.6 -69.7,8.9 -103.1,1.9 v 48.4 c 0,10.6 -0.8,21.2 -2.1,31.5 h -500.6 c -1.3,-10.3 -2.1,-20.9 -2.1,-31.5 v -98.3 c 0,-138.8 113.6,-252.4 252.4,-252.4 75.2,0 142.9,33.3 189.2,85.9 v 0 c 0,0 119.1,29.3 156.5,73.7 37.4,44.4 49.5,116.3 9.8,140.8"
         style="fill:#699dee;fill-opacity:1;fill-rule:nonzero;stroke:none"
         id="path204" /><path
         d="m 29085.5,7056.2 v -98.3 c 0,-138.8 113.6,-252.5 252.3,-252.5 11.5,0 22.9,0.9 34,2.5 -122.9,16.6 -218.5,122.7 -218.5,250 v 98.3 c 0,10.6 0.8,21.2 2.1,31.5 h -67.9 c -1.3,-10.3 -2,-20.9 -2,-31.5"
         style="fill:#afcdfb;fill-opacity:1;fill-rule:nonzero;stroke:none"
         id="path206" /><path
         d="m 29399.7,6696.7 h -206 v 30.8 h 206 v -30.8"
         style="fill:#699dee;fill-opacity:1;fill-rule:nonzero;stroke:none"
         id="path208" /><path
         d="m 30951.9,6915.1 c -12.7,-32.7 -69.5,-50.3 -97.5,-57.1 11.2,25.8 18.2,53.7 20.2,83.1 17.2,23.6 44.6,37.5 64.6,33.8 17.9,-3.2 28.7,-18.5 12.7,-59.8 z m 26.4,90.8 c -23.7,14.6 -69.7,8.9 -103.1,1.9 v 48.4 c 0,10.6 -0.8,21.2 -2.1,31.5 h -500.6 c -1.3,-10.3 -2.1,-20.9 -2.1,-31.5 v -98.3 c 0,-138.8 113.6,-252.4 252.4,-252.4 75.2,0 142.9,33.3 189.2,85.9 v 0 c 0,0 119.1,29.3 156.5,73.7 37.4,44.4 49.5,116.3 9.8,140.8"
         style="fill:#699dee;fill-opacity:1;fill-rule:nonzero;stroke:none"
         id="path210" /><path
         d="m 30411.4,7056.2 v -98.3 c 0,-138.8 113.6,-252.5 252.3,-252.5 11.5,0 22.9,0.9 33.9,2.5 -122.8,16.6 -218.4,122.7 -218.4,250 v 98.3 c 0,10.6 0.8,21.2 2.1,31.5 h -67.9 c -1.3,-10.3 -2,-20.9 -2,-31.5"
         style="fill:#afcdfb;fill-opacity:1;fill-rule:nonzero;stroke:none"
         id="path212" /><path
         d="m 30725.6,6696.7 h -206 v 30.8 h 206 v -30.8"
         style="fill:#699dee;fill-opacity:1;fill-rule:nonzero;stroke:none"
         id="path214" /><path
         d="M 32418.9,2747.7 H 2772.01 c -16.32,0 -29.68,13.4 -29.68,29.7 v 7.2 c 0,16.3 13.36,29.7 29.68,29.7 H 32418.9 c 16.3,0 29.7,-13.4 29.7,-29.7 v -7.2 c 0,-16.3 -13.4,-29.7 -29.7,-29.7"
         style="fill:#283250;fill-opacity:1;fill-rule:nonzero;stroke:none"
         id="path216" /></g></g></svg>
