<?xml version="1.0" encoding="utf-8"?>
<!-- Generator: Adobe Illustrator 25.2.0, SVG Export Plug-In . SVG Version: 6.00 Build 0)  -->
<svg version="1.1" id="Camada_1"
   xmlns="http://www.w3.org/2000/svg"
   xmlns:xlink="http://www.w3.org/1999/xlink" x="0px" y="0px" viewBox="0 0 243.850 148.2" style="enable-background:new 0 0 283.46 224.38;" xml:space="preserve">
   <style type="text/css">
	.st0{fill:#037D91;}
	.st1{fill:#037D91;stroke:#037D91;stroke-width:0.25;stroke-miterlimit:10;}
   </style>
   <g id="g100" transform="translate(-19.8,-45.27)">
      <defs id="defs5">
         <rect id="SVGID_1_" width="283.45999" height="283.45999" x="0" y="0" />
      </defs>
      <clipPath id="SVGID_00000150804494495873189020000014494503066165521073_">
         <use xlink:href="#SVGID_1_" style="overflow:visible" id="use7" x="0" y="0" width="100%" height="100%" />
      </clipPath>
      <path style="fill:#1c7f8f" d="m 202.17,142.34 c -22.42,0 -43.54,8.45 -59.73,23.85 0.73,-46.46 38.62,-83.54 85.2,-83.81 -0.05,7.79 -1.14,15.51 -3.25,22.94 l 0.96,0.27 c 2.18,-7.68 3.29,-15.66 3.29,-23.72 v -0.5 h -0.5 c -47.42,0 -86.07,38.26 -86.7,85.52 -15.67,-16.09 -24.28,-37.27 -24.28,-59.76 0,-22.73 8.79,-44.11 24.76,-60.26 12.45,12.6 20.59,28.45 23.54,45.87 l 0.99,-0.17 C 163.43,74.78 155.07,58.61 142.27,45.81 l -0.35,-0.36 -0.36,0.36 C 125.46,61.9 116.47,83.22 116.18,105.95 99.9,90.09 78.47,81.37 55.7,81.37 h -0.5 v 0.5 c 0,23.01 8.9,44.65 25.07,60.98 -21.84,0.16 -43.62,8.58 -60.29,25.24 33.55,33.56 87.88,33.67 121.58,0.36 0.12,-0.12 0.25,-0.24 0.37,-0.37 16.15,-15.95 37.52,-24.74 60.24,-24.74 22.9,0 44.43,8.92 60.62,25.11 l 0.7,-0.71 c -16.38,-16.38 -38.15,-25.4 -61.32,-25.4 M 81.3,142.49 C 65.23,126.42 56.33,105.08 56.2,82.37 c 22.64,0.13 43.9,8.98 59.96,24.96 0.05,22.67 8.75,44.01 24.55,60.24 -22.43,-0.29 -43.49,-9.18 -59.41,-25.08" clip-path="url(#SVGID_00000150804494495873189020000014494503066165521073_)" id="path10" />
      <path style="fill:#1c7f8f" d="M 80.95,193.47 H 80.71 C 57.73,193.41 36.13,184.43 19.89,168.18 L 19.8,168.09 19.89,168 C 35.96,151.94 57.29,142.97 79.97,142.73 63.91,126.4 55.07,104.8 55.07,81.87 v -0.62 h 0.62 c 22.67,0 44.09,8.67 60.36,24.41 0.36,-22.64 9.38,-43.92 25.41,-59.94 l 0.45,-0.45 0.44,0.45 c 12.82,12.82 21.19,29.01 24.21,46.83 l 0.02,0.12 -1.24,0.21 -0.02,-0.12 C 162.39,75.42 154.29,59.62 141.9,47.05 c -15.89,16.11 -24.63,37.44 -24.63,60.08 0,22.33 8.53,43.43 24.03,59.46 0.38,-22.79 9.55,-44.19 25.84,-60.27 16.37,-16.17 38.03,-25.07 60.98,-25.07 h 0.62 v 0.62 c 0,8.06 -1.11,16.05 -3.29,23.75 l -0.03,0.12 -1.2,-0.34 0.03,-0.12 c 2.09,-7.37 3.18,-15.03 3.24,-22.78 -46.81,0.34 -84.06,36.92 -84.94,83.39 16.17,-15.27 37.32,-23.68 59.6,-23.68 23.2,0 45.01,9.03 61.41,25.44 l 0.09,0.09 -0.88,0.89 -0.09,-0.09 c -16.17,-16.17 -37.67,-25.07 -60.53,-25.07 -22.66,0 -44.02,8.77 -60.15,24.7 -0.08,0.08 -0.17,0.17 -0.25,0.25 l -0.12,0.12 c -16.26,16.08 -37.8,24.93 -60.68,24.93 M 20.16,168.09 c 33.38,33.3 87.77,33.42 121.31,0.27 l 0.12,-0.12 c 0.08,-0.08 0.16,-0.16 0.24,-0.25 16.18,-15.98 37.61,-24.78 60.33,-24.78 22.89,0 44.41,8.9 60.62,25.06 l 0.53,-0.53 c -16.35,-16.3 -38.05,-25.28 -61.14,-25.28 -22.32,0 -43.5,8.46 -59.64,23.82 l -0.22,0.2 0.01,-0.3 c 0.35,-22.48 9.39,-43.55 25.44,-59.31 16.03,-15.74 37.3,-24.49 59.88,-24.62 h 0.13 v 0.13 c -0.05,7.77 -1.13,15.46 -3.22,22.85 l 0.72,0.2 c 2.16,-7.64 3.25,-15.57 3.25,-23.57 v -0.38 h -0.38 c -47.11,0 -85.95,38.31 -86.57,85.4 v 0.3 l -0.21,-0.22 c -15.68,-16.1 -24.32,-37.35 -24.32,-59.85 0,-22.75 8.81,-44.18 24.8,-60.35 l 0.09,-0.09 0.09,0.09 c 12.44,12.59 20.58,28.43 23.55,45.81 l 0.74,-0.13 C 163.28,74.72 154.94,58.62 142.19,45.87 l -0.26,-0.27 -0.27,0.27 c -16.05,16.04 -25.05,37.37 -25.34,60.05 v 0.29 l -0.21,-0.2 C 99.84,90.21 78.4,81.49 55.7,81.49 h -0.38 v 0.38 c 0,22.96 8.89,44.59 25.03,60.89 l 0.21,0.21 h -0.3 c -22.68,0.17 -44.02,9.09 -60.1,25.12 m 120.85,-0.39 h -0.3 C 118.27,167.41 97.14,158.49 81.21,142.58 65.13,126.5 56.2,105.11 56.07,82.37 v -0.13 h 0.13 c 22.65,0.13 43.98,9.01 60.05,25 l 0.04,0.04 v 0.05 c 0.05,22.6 8.76,43.97 24.51,60.15 z M 81.39,142.4 c 15.81,15.79 36.76,24.67 59.02,25.04 C 124.75,151.25 116.1,129.93 116.03,107.38 100.04,91.49 78.84,82.66 56.32,82.49 c 0.17,22.64 9.06,43.91 25.07,59.91" clip-path="url(#SVGID_00000150804494495873189020000014494503066165521073_)" id="path12" />
   </g>
</svg>
