<?xml version="1.0" encoding="UTF-8" standalone="no"?>
<svg
   xmlns:dc="http://purl.org/dc/elements/1.1/"
   xmlns:cc="http://creativecommons.org/ns#"
   xmlns:rdf="http://www.w3.org/1999/02/22-rdf-syntax-ns#"
   xmlns:svg="http://www.w3.org/2000/svg"
   xmlns="http://www.w3.org/2000/svg"
   xmlns:sodipodi="http://sodipodi.sourceforge.net/DTD/sodipodi-0.dtd"
   xmlns:inkscape="http://www.inkscape.org/namespaces/inkscape"
   version="1.1"
   id="Camada_1"
   x="0px"
   y="0px"
   viewBox="0 0 283.39002 172.21"
   xml:space="preserve"
   sodipodi:docname="graus_logo.svg"
   width="283.39001"
   height="172.21001"
   inkscape:version="1.0.2-2 (e86c870879, 2021-01-15)"><metadata
   id="metadata38"><rdf:RDF><cc:Work
       rdf:about=""><dc:format>image/svg+xml</dc:format><dc:type
         rdf:resource="http://purl.org/dc/dcmitype/StillImage" /></cc:Work></rdf:RDF></metadata><defs
   id="defs36" /><sodipodi:namedview
   pagecolor="#ffffff"
   bordercolor="#666666"
   borderopacity="1"
   objecttolerance="10"
   gridtolerance="10"
   guidetolerance="10"
   inkscape:pageopacity="0"
   inkscape:pageshadow="2"
   inkscape:window-width="2560"
   inkscape:window-height="1377"
   id="namedview34"
   showgrid="false"
   inkscape:zoom="3.7677274"
   inkscape:cx="104.72902"
   inkscape:cy="112.2088"
   inkscape:window-x="-8"
   inkscape:window-y="-8"
   inkscape:window-maximized="1"
   inkscape:current-layer="Camada_1" />
<style
   type="text/css"
   id="style25">
	.st0{fill:#037D91;}
	.st1{fill:#037D91;stroke:#037D91;stroke-width:0.25;stroke-miterlimit:10;}
</style>
<g
   id="g31"
   transform="translate(-0.08)">
	<path
   class="st0"
   d="m 212,112.8 c -26.05,0 -50.6,9.82 -69.41,27.71 0.85,-53.99 44.88,-97.08 99.01,-97.39 -0.06,9.05 -1.32,18.02 -3.78,26.66 l 1.12,0.31 c 2.53,-8.92 3.82,-18.2 3.82,-27.56 v -0.58 h -0.58 c -55.1,0 -100.02,44.46 -100.75,99.38 -18.21,-18.7 -28.21,-43.31 -28.21,-69.44 0,-26.41 10.21,-51.26 28.77,-70.02 14.47,14.64 23.93,33.06 27.35,53.3 l 1.15,-0.2 C 166.98,34.3 157.27,15.51 142.39,0.63 l -0.41,-0.42 -0.42,0.42 C 122.85,19.33 112.4,44.1 112.07,70.51 93.16,52.08 68.26,41.95 41.8,41.95 h -0.58 v 0.58 c 0,26.74 10.34,51.88 29.13,70.86 -25.38,0.19 -50.69,9.97 -70.06,29.33 38.99,39 102.12,39.13 141.28,0.42 0.14,-0.14 0.29,-0.28 0.43,-0.43 18.77,-18.53 43.6,-28.75 70,-28.75 26.61,0 51.63,10.37 70.44,29.18 l 0.81,-0.83 C 264.23,123.28 238.93,112.8 212,112.8 Z M 71.55,112.97 C 52.88,94.3 42.53,69.5 42.38,43.11 c 26.31,0.15 51.01,10.44 69.68,29 0.06,26.34 10.17,51.14 28.53,70 -26.07,-0.33 -50.54,-10.66 -69.04,-29.14 z"
   id="path27" />
	<path
   class="st0"
   d="m 71.14,172.21 c -0.09,0 -0.18,0 -0.28,0 -26.7,-0.07 -51.8,-10.51 -70.68,-29.39 l -0.1,-0.1 0.1,-0.1 C 18.86,123.95 43.64,113.53 70,113.25 51.35,94.28 41.07,69.18 41.07,42.53 V 41.8 h 0.73 c 26.34,0 51.24,10.07 70.14,28.37 0.42,-26.31 10.9,-51.03 29.53,-69.65 L 141.99,0 142.5,0.52 c 14.89,14.89 24.62,33.71 28.14,54.41 l 0.02,0.14 -1.44,0.25 -0.02,-0.14 C 165.79,35.03 156.38,16.67 141.99,2.06 c -18.46,18.72 -28.63,43.51 -28.63,69.82 0,25.94 9.92,50.47 27.93,69.09 0.44,-26.49 11.1,-51.34 30.02,-70.03 C 190.34,52.15 215.5,41.8 242.18,41.8 h 0.73 v 0.73 c 0,9.36 -1.29,18.65 -3.83,27.6 l -0.04,0.14 -1.39,-0.39 0.04,-0.14 c 2.43,-8.56 3.7,-17.47 3.77,-26.47 -54.4,0.39 -97.68,42.9 -98.71,96.9 18.78,-17.75 43.37,-27.52 69.26,-27.52 26.95,0 52.3,10.5 71.36,29.56 l 0.1,0.1 -1.02,1.03 -0.1,-0.1 c -18.79,-18.79 -43.77,-29.14 -70.34,-29.14 -26.33,0 -51.16,10.2 -69.9,28.71 -0.09,0.1 -0.19,0.2 -0.29,0.29 l -0.14,0.14 c -18.91,18.69 -43.95,28.97 -70.54,28.97 z M 0.5,142.72 c 38.79,38.69 101.99,38.84 140.97,0.31 l 0.14,-0.14 c 0.09,-0.09 0.19,-0.19 0.28,-0.29 18.8,-18.57 43.7,-28.79 70.11,-28.79 26.6,0 51.61,10.34 70.44,29.12 l 0.61,-0.62 C 264.06,123.37 238.83,112.94 212,112.94 c -25.93,0 -50.55,9.83 -69.31,27.67 l -0.25,0.24 0.01,-0.35 c 0.41,-26.12 10.91,-50.6 29.57,-68.92 18.63,-18.3 43.34,-28.46 69.58,-28.61 h 0.15 v 0.15 c -0.06,9.03 -1.32,17.96 -3.74,26.56 l 0.84,0.23 c 2.51,-8.88 3.78,-18.09 3.78,-27.38 v -0.44 h -0.44 c -54.74,0 -99.87,44.52 -100.6,99.23 v 0.35 l -0.24,-0.25 c -18.22,-18.71 -28.26,-43.41 -28.26,-69.54 0,-26.43 10.23,-51.34 28.81,-70.13 l 0.1,-0.1 0.1,0.1 c 14.46,14.63 23.92,33.04 27.37,53.24 l 0.86,-0.15 C 166.81,34.25 157.11,15.54 142.3,0.72 l -0.31,-0.31 -0.31,0.31 C 123.03,19.36 112.57,44.15 112.23,70.5 v 0.34 L 111.99,70.6 C 93.1,52.22 68.18,42.09 41.8,42.09 h -0.44 v 0.44 c 0,26.68 10.33,51.81 29.09,70.76 l 0.24,0.25 H 70.35 C 43.99,113.73 19.19,124.09 0.5,142.72 Z m 140.43,-0.46 h -0.35 C 114.5,141.92 89.95,131.56 71.44,113.07 v 0 C 52.76,94.39 42.39,69.54 42.24,43.11 v -0.15 h 0.15 c 26.32,0.15 51.11,10.47 69.78,29.05 l 0.04,0.04 v 0.06 c 0.06,26.27 10.17,51.09 28.49,69.9 z M 71.65,112.87 c 18.37,18.35 42.72,28.67 68.59,29.1 C 122.04,123.15 111.99,98.38 111.92,72.18 93.33,53.71 68.7,43.44 42.53,43.26 c 0.19,26.3 10.53,51.01 29.12,69.61 z"
   id="path29" />
</g>
</svg>
