<?xml version="1.0" encoding="UTF-8" standalone="no"?>
<svg
   xmlns:dc="http://purl.org/dc/elements/1.1/"
   xmlns:cc="http://creativecommons.org/ns#"
   xmlns:rdf="http://www.w3.org/1999/02/22-rdf-syntax-ns#"
   xmlns:svg="http://www.w3.org/2000/svg"
   xmlns="http://www.w3.org/2000/svg"
   xmlns:sodipodi="http://sodipodi.sourceforge.net/DTD/sodipodi-0.dtd"
   xmlns:inkscape="http://www.inkscape.org/namespaces/inkscape"
   version="1.1"
   id="Camada_1"
   x="0px"
   y="0px"
   viewBox="0 0 201.72001 33.534999"
   xml:space="preserve"
   sodipodi:docname="graus_nome.svg"
   width="201.72"
   height="33.535"
   inkscape:version="1.0.2-2 (e86c870879, 2021-01-15)"><metadata
   id="metadata101"><rdf:RDF><cc:Work
       rdf:about=""><dc:format>image/svg+xml</dc:format><dc:type
         rdf:resource="http://purl.org/dc/dcmitype/StillImage" /></cc:Work></rdf:RDF></metadata><defs
   id="defs99" /><sodipodi:namedview
   pagecolor="#ffffff"
   bordercolor="#666666"
   borderopacity="1"
   objecttolerance="10"
   gridtolerance="10"
   guidetolerance="10"
   inkscape:pageopacity="0"
   inkscape:pageshadow="2"
   inkscape:window-width="2560"
   inkscape:window-height="1377"
   id="namedview97"
   showgrid="false"
   inkscape:zoom="3.6760038"
   inkscape:cx="100.81"
   inkscape:cy="-78.589998"
   inkscape:window-x="-8"
   inkscape:window-y="-8"
   inkscape:window-maximized="1"
   inkscape:current-layer="Camada_1" />
<style
   type="text/css"
   id="style2">
	.st0{fill:#037D91;}
	.st1{fill:#037D91;stroke:#037D91;stroke-width:0.25;stroke-miterlimit:10;}
</style>
<g
   id="g36"
   transform="translate(-40.92,-190.78)">
	<path
   class="st0"
   d="M 51.54,204.19 H 51.5 c -0.82,1.63 -2.54,2.66 -4.72,2.66 -3.18,0 -5.86,-2.2 -5.86,-5.88 0,-3.43 2.52,-5.95 6.09,-5.95 3.57,0 6.07,2.43 6.07,6.02 v 4.65 c 0,4.37 -2.63,6.07 -6,6.07 -2.72,0 -4.9,-1.12 -5.68,-3.64 h 1.56 c 0.62,1.6 2.2,2.29 4.12,2.29 2.61,0 4.47,-1.31 4.47,-4.65 v -1.57 z m -4.53,-7.76 c -2.7,0 -4.53,1.92 -4.53,4.53 0,2.61 1.83,4.46 4.53,4.46 2.7,0 4.53,-1.85 4.53,-4.46 0,-2.61 -1.83,-4.53 -4.53,-4.53 z"
   id="path4" />
	<path
   class="st0"
   d="m 63.31,200 v -0.16 c 0,-2.36 -1.31,-3.41 -3.23,-3.41 -1.95,0 -3.23,1.05 -3.23,3.41 v 6.78 h -1.54 v -6.78 c 0,-3.25 1.95,-4.83 4.76,-4.83 2.82,0 4.74,1.58 4.74,4.85 V 200 Z"
   id="path6" />
	<path
   class="st0"
   d="m 78.03,206.62 h -1.42 v -2.68 h -0.05 c -0.76,1.81 -2.54,2.98 -4.83,2.98 -3.18,0 -5.86,-2.27 -5.86,-5.95 0,-3.43 2.52,-5.95 6.09,-5.95 3.57,0 6.07,2.45 6.07,6.02 z m -1.54,-5.66 c 0,-2.61 -1.83,-4.53 -4.53,-4.53 -2.7,0 -4.53,1.92 -4.53,4.53 0,2.61 1.83,4.53 4.53,4.53 2.7,0 4.53,-1.92 4.53,-4.53 z"
   id="path8" />
	<path
   class="st0"
   d="m 89.91,195.3 h 1.53 v 5.91 c 0,3.75 -2.24,5.7 -5.59,5.7 -3.35,0 -5.59,-1.95 -5.59,-5.7 v -5.91 h 1.54 v 5.91 c 0,2.77 1.6,4.28 4.05,4.28 2.45,0 4.05,-1.51 4.05,-4.28 v -5.91 z"
   id="path10" />
	<path
   class="st0"
   d="m 100.71,198.4 c -0.07,-1.12 -1.1,-1.99 -2.79,-1.99 -1.76,0 -2.82,0.82 -2.82,2.11 0,2.93 7.44,0.21 7.44,4.83 0,2.06 -1.81,3.57 -4.63,3.57 -2.79,0 -4.56,-1.49 -4.62,-3.48 h 1.56 c 0.07,1.21 1.17,2.08 3.05,2.08 1.99,0 3.09,-0.89 3.09,-2.18 0,-2.93 -7.42,-0.18 -7.42,-4.83 0,-2.04 1.67,-3.5 4.33,-3.5 2.66,0 4.28,1.47 4.33,3.39 z"
   id="path12" />
	<path
   class="st0"
   d="m 109.24,200.96 c 0,-3.69 2.68,-5.95 5.86,-5.95 2.17,0 3.89,1.03 4.72,2.63 h 0.05 v -6.86 h 1.53 v 10.11 c 0,3.6 -2.5,6.02 -6.07,6.02 -3.57,0 -6.09,-2.52 -6.09,-5.95 z m 10.62,0 c 0,-2.61 -1.83,-4.53 -4.53,-4.53 -2.7,0 -4.53,1.92 -4.53,4.53 0,2.61 1.83,4.53 4.53,4.53 2.7,0 4.53,-1.92 4.53,-4.53 z"
   id="path14" />
	<path
   class="st0"
   d="m 124.3,201.46 c 0.21,2.36 1.97,4.03 4.51,4.03 1.79,0 3.16,-0.73 3.89,-2.04 h 1.67 c -0.87,2.08 -2.93,3.46 -5.56,3.46 -3.57,0 -6.09,-2.52 -6.09,-5.95 0,-3.43 2.52,-5.95 6.09,-5.95 3.57,0 6.05,2.52 6.05,5.95 v 0.5 z m 0.04,-1.42 v 0.05 h 8.91 v -0.05 c -0.37,-2.15 -2.06,-3.62 -4.44,-3.62 -2.41,0.01 -4.1,1.47 -4.47,3.62 z"
   id="path16" />
	<path
   class="st0"
   d="m 141.91,206.62 v -15.84 h 1.53 v 15.84 z"
   id="path18" />
	<path
   class="st0"
   d="m 146.12,192.24 c 0,-0.64 0.53,-1.17 1.17,-1.17 0.64,0 1.17,0.53 1.17,1.17 0,0.62 -0.53,1.17 -1.17,1.17 -0.64,-0.01 -1.17,-0.56 -1.17,-1.17 z m 0.41,14.38 V 195.3 h 1.53 v 11.31 h -1.53 z"
   id="path20" />
	<path
   class="st0"
   d="m 150.72,200.89 v -10.11 h 1.54 v 6.86 h 0.05 c 0.82,-1.6 2.52,-2.63 4.72,-2.63 3.16,0 5.86,2.27 5.86,5.95 0,3.43 -2.52,5.95 -6.09,5.95 -3.58,0 -6.08,-2.42 -6.08,-6.02 z m 10.6,0.07 c 0,-2.61 -1.83,-4.53 -4.53,-4.53 -2.72,0 -4.53,1.92 -4.53,4.53 0,2.61 1.81,4.53 4.53,4.53 2.7,0 4.53,-1.92 4.53,-4.53 z"
   id="path22" />
	<path
   class="st0"
   d="m 165.79,201.46 c 0.21,2.36 1.97,4.03 4.51,4.03 1.79,0 3.16,-0.73 3.89,-2.04 h 1.67 c -0.87,2.08 -2.93,3.46 -5.56,3.46 -3.57,0 -6.09,-2.52 -6.09,-5.95 0,-3.43 2.52,-5.95 6.09,-5.95 3.57,0 6.05,2.52 6.05,5.95 v 0.5 z m 0.04,-1.42 v 0.05 h 8.91 v -0.05 c -0.37,-2.15 -2.06,-3.62 -4.44,-3.62 -2.41,0.01 -4.1,1.47 -4.47,3.62 z"
   id="path24" />
	<path
   class="st0"
   d="m 186.11,200 v -0.16 c 0,-2.36 -1.31,-3.41 -3.23,-3.41 -1.95,0 -3.23,1.05 -3.23,3.41 v 6.78 h -1.54 v -6.78 c 0,-3.25 1.95,-4.83 4.76,-4.83 2.82,0 4.74,1.58 4.74,4.85 V 200 Z"
   id="path26" />
	<path
   class="st0"
   d="m 188.68,200.96 c 0,-3.69 2.68,-5.95 5.86,-5.95 2.17,0 3.89,1.03 4.72,2.63 h 0.05 v -6.86 h 1.53 v 10.11 c 0,3.6 -2.5,6.02 -6.07,6.02 -3.57,0 -6.09,-2.52 -6.09,-5.95 z m 10.62,0 c 0,-2.61 -1.83,-4.53 -4.53,-4.53 -2.7,0 -4.53,1.92 -4.53,4.53 0,2.61 1.83,4.53 4.53,4.53 2.7,0 4.53,-1.92 4.53,-4.53 z"
   id="path28" />
	<path
   class="st0"
   d="m 214.78,206.62 h -1.42 v -2.68 h -0.05 c -0.76,1.81 -2.54,2.98 -4.83,2.98 -3.18,0 -5.86,-2.27 -5.86,-5.95 0,-3.43 2.52,-5.95 6.09,-5.95 3.57,0 6.07,2.45 6.07,6.02 z m -1.54,-5.66 c 0,-2.61 -1.83,-4.53 -4.53,-4.53 -2.7,0 -4.53,1.92 -4.53,4.53 0,2.61 1.83,4.53 4.53,4.53 2.7,0 4.53,-1.92 4.53,-4.53 z"
   id="path30" />
	<path
   class="st0"
   d="m 216.56,200.96 c 0,-3.69 2.68,-5.95 5.86,-5.95 2.17,0 3.89,1.03 4.72,2.63 h 0.05 v -6.86 h 1.53 v 10.11 c 0,3.6 -2.5,6.02 -6.07,6.02 -3.57,0 -6.09,-2.52 -6.09,-5.95 z m 10.62,0 c 0,-2.61 -1.83,-4.53 -4.53,-4.53 -2.7,0 -4.53,1.92 -4.53,4.53 0,2.61 1.83,4.53 4.53,4.53 2.7,0 4.53,-1.92 4.53,-4.53 z"
   id="path32" />
	<path
   class="st0"
   d="m 232.08,201.46 c 0.21,2.36 1.97,4.03 4.51,4.03 1.79,0 3.16,-0.73 3.89,-2.04 h 1.67 c -0.87,2.08 -2.93,3.46 -5.56,3.46 -3.57,0 -6.09,-2.52 -6.09,-5.95 0,-3.43 2.52,-5.95 6.09,-5.95 3.57,0 6.05,2.52 6.05,5.95 v 0.5 z m 0.04,-1.42 v 0.05 h 8.91 v -0.05 c -0.37,-2.15 -2.06,-3.62 -4.44,-3.62 -2.41,0.01 -4.1,1.47 -4.47,3.62 z"
   id="path34" />
</g>
<g
   id="g94"
   transform="translate(-40.92,-190.78)">
	<path
   class="st1"
   d="m 41.49,224.02 v -7.82 h 3.37 c 1.88,0 2.72,1.05 2.72,2.49 0,1.42 -0.85,2.5 -2.72,2.5 h -2.51 v 2.84 h -0.86 z m 3.39,-3.62 c 1.35,0 1.83,-0.74 1.83,-1.71 0,-0.97 -0.49,-1.7 -1.83,-1.7 h -2.53 v 3.41 z"
   id="path38" />
	<path
   class="st1"
   d="m 52.94,218.31 c -0.05,-0.9 -0.73,-1.47 -1.85,-1.47 -1.13,0 -1.85,0.6 -1.85,1.52 0,2.2 4.67,0.36 4.67,3.45 0,1.46 -1.12,2.38 -2.84,2.38 -1.69,0 -2.81,-0.9 -2.85,-2.36 h 0.85 c 0.04,0.99 0.76,1.57 2,1.57 1.24,0 2,-0.61 2,-1.57 0,-2.24 -4.67,-0.36 -4.67,-3.45 0,-1.39 1.07,-2.33 2.68,-2.33 1.57,0 2.62,0.9 2.67,2.26 z"
   id="path40" />
	<path
   class="st1"
   d="m 55.19,224.02 v -7.82 h 0.86 v 7.82 z"
   id="path42" />
	<path
   class="st1"
   d="m 64.47,218.82 c -0.47,-1.2 -1.6,-1.99 -3.05,-1.99 -1.94,0 -3.29,1.39 -3.29,3.28 0,1.89 1.35,3.28 3.29,3.28 1.45,0 2.58,-0.79 3.05,-1.99 h 0.9 c -0.5,1.66 -2,2.78 -3.95,2.78 -2.43,0 -4.15,-1.72 -4.15,-4.07 0,-2.35 1.71,-4.07 4.15,-4.07 1.95,0 3.45,1.11 3.95,2.78 z"
   id="path44" />
	<path
   class="st1"
   d="m 70.36,224.18 c -2.43,0 -4.15,-1.72 -4.15,-4.07 0,-2.35 1.71,-4.07 4.15,-4.07 2.43,0 4.15,1.72 4.15,4.07 0,2.34 -1.72,4.07 -4.15,4.07 z m 3.29,-4.07 c 0,-1.89 -1.35,-3.28 -3.29,-3.28 -1.94,0 -3.29,1.39 -3.29,3.28 0,1.89 1.35,3.28 3.29,3.28 1.94,0 3.29,-1.39 3.29,-3.28 z"
   id="path46" />
	<path
   class="st1"
   d="m 77.28,224.02 v -7.04 h -2.64 v -0.79 h 6.15 v 0.79 h -2.65 v 7.04 z"
   id="path48" />
	<path
   class="st1"
   d="m 81.9,224.02 v -7.82 h 5.72 v 0.79 h -4.86 v 2.67 h 4.17 v 0.79 h -4.17 v 2.79 h 4.86 v 0.79 H 81.9 Z"
   id="path50" />
	<path
   class="st1"
   d="m 94.3,224.02 -2.11,-2.97 h -2.37 v 2.97 h -0.86 v -7.82 h 3.44 c 1.83,0 2.64,1.03 2.64,2.42 0,1.21 -0.61,2.14 -1.95,2.38 v 0.02 l 2.24,3 z m -1.88,-3.76 c 1.3,0 1.76,-0.72 1.76,-1.65 0,-0.93 -0.46,-1.63 -1.76,-1.63 h -2.6 v 3.28 z"
   id="path52" />
	<path
   class="st1"
   d="m 102.15,224.02 v -2.63 h -5.04 v 2.63 h -0.83 v -4.63 c 0,-2.06 1.19,-3.35 3.36,-3.35 2.18,0 3.37,1.29 3.37,3.35 v 4.63 z m 0,-4.63 c 0,-1.58 -0.86,-2.56 -2.53,-2.56 -1.64,0 -2.51,0.98 -2.51,2.56 v 1.21 h 5.04 z"
   id="path54" />
	<path
   class="st1"
   d="m 104.43,224.02 v -7.82 h 3.37 c 1.88,0 2.72,1.05 2.72,2.49 0,1.42 -0.85,2.5 -2.72,2.5 h -2.51 v 2.84 h -0.86 z m 3.38,-3.62 c 1.35,0 1.84,-0.74 1.84,-1.71 0,-0.97 -0.49,-1.7 -1.84,-1.7 h -2.53 v 3.41 z"
   id="path56" />
	<path
   class="st1"
   d="m 111.6,224.02 v -7.82 h 0.86 v 7.82 z"
   id="path58" />
	<path
   class="st1"
   d="m 119.76,224.02 v -2.63 h -5.04 v 2.63 h -0.83 v -4.63 c 0,-2.06 1.19,-3.35 3.36,-3.35 2.18,0 3.37,1.29 3.37,3.35 v 4.63 z m 0,-4.63 c 0,-1.58 -0.86,-2.56 -2.53,-2.56 -1.64,0 -2.51,0.98 -2.51,2.56 v 1.21 h 5.04 z"
   id="path60" />
	<path
   class="st1"
   d="m 125.57,221.33 c 0.11,1.23 1.02,2.11 2.35,2.11 0.93,0 1.64,-0.38 2.03,-1.06 h 0.87 c -0.45,1.09 -1.52,1.81 -2.89,1.81 -1.86,0 -3.17,-1.32 -3.17,-3.11 0,-1.79 1.31,-3.11 3.17,-3.11 1.86,0 3.15,1.32 3.15,3.11 v 0.26 h -5.51 z m 0.02,-0.74 v 0.02 h 4.63 v -0.02 c -0.19,-1.12 -1.07,-1.89 -2.31,-1.89 -1.25,0 -2.13,0.76 -2.32,1.89 z"
   id="path62" />
	<path
   class="st1"
   d="m 140.87,224.02 v -4.75 c 0,-1.51 -0.83,-2.44 -2.41,-2.44 -1.58,0 -2.42,0.93 -2.42,2.44 v 4.75 h -0.86 v -4.75 c 0,-1.97 1.17,-3.23 3.28,-3.23 2.1,0 3.26,1.26 3.26,3.23 v 4.75 z"
   id="path64" />
	<path
   class="st1"
   d="m 143.15,224.02 v -7.82 h 5.72 v 0.79 H 144 v 2.67 h 4.17 v 0.79 H 144 v 2.79 h 4.86 v 0.79 h -5.71 z"
   id="path66" />
	<path
   class="st1"
   d="m 155.7,216.2 h 0.83 v 4.75 c 0,1.97 -1.16,3.23 -3.23,3.23 -2.11,0 -3.28,-1.26 -3.28,-3.23 v -4.75 h 0.86 v 4.75 c 0,1.51 0.83,2.44 2.41,2.44 1.57,0 2.41,-0.95 2.41,-2.44 z"
   id="path68" />
	<path
   class="st1"
   d="m 163.27,224.02 -2.11,-2.97 h -2.37 v 2.97 h -0.86 v -7.82 h 3.44 c 1.83,0 2.64,1.03 2.64,2.42 0,1.21 -0.61,2.14 -1.95,2.38 v 0.02 l 2.24,3 z m -1.88,-3.76 c 1.3,0 1.76,-0.72 1.76,-1.65 0,-0.93 -0.46,-1.63 -1.76,-1.63 h -2.6 v 3.28 z"
   id="path70" />
	<path
   class="st1"
   d="m 169.15,224.18 c -2.43,0 -4.15,-1.72 -4.15,-4.07 0,-2.35 1.72,-4.07 4.15,-4.07 2.43,0 4.15,1.72 4.15,4.07 -0.01,2.34 -1.72,4.07 -4.15,4.07 z m 3.29,-4.07 c 0,-1.89 -1.35,-3.28 -3.29,-3.28 -1.94,0 -3.29,1.39 -3.29,3.28 0,1.89 1.35,3.28 3.29,3.28 1.94,0 3.29,-1.39 3.29,-3.28 z"
   id="path72" />
	<path
   class="st1"
   d="m 174.49,224.02 v -7.82 h 3.37 c 1.88,0 2.72,1.05 2.72,2.49 0,1.42 -0.85,2.5 -2.72,2.5 h -2.51 v 2.84 h -0.86 z m 3.39,-3.62 c 1.35,0 1.83,-0.74 1.83,-1.71 0,-0.97 -0.49,-1.7 -1.83,-1.7 h -2.53 v 3.41 z"
   id="path74" />
	<path
   class="st1"
   d="m 185.94,218.31 c -0.05,-0.9 -0.73,-1.47 -1.85,-1.47 -1.13,0 -1.85,0.6 -1.85,1.52 0,2.2 4.67,0.36 4.67,3.45 0,1.46 -1.12,2.38 -2.84,2.38 -1.69,0 -2.81,-0.9 -2.85,-2.36 h 0.85 c 0.04,0.99 0.76,1.57 2,1.57 1.24,0 2,-0.61 2,-1.57 0,-2.24 -4.67,-0.36 -4.67,-3.45 0,-1.39 1.07,-2.33 2.68,-2.33 1.57,0 2.62,0.9 2.67,2.26 z"
   id="path76" />
	<path
   class="st1"
   d="m 188.19,224.02 v -7.82 h 0.86 v 7.82 z"
   id="path78" />
	<path
   class="st1"
   d="m 197.47,218.82 c -0.47,-1.2 -1.6,-1.99 -3.05,-1.99 -1.94,0 -3.29,1.39 -3.29,3.28 0,1.89 1.35,3.28 3.29,3.28 1.45,0 2.58,-0.79 3.05,-1.99 h 0.9 c -0.5,1.66 -2,2.78 -3.95,2.78 -2.43,0 -4.15,-1.72 -4.15,-4.07 0,-2.35 1.71,-4.07 4.15,-4.07 1.95,0 3.45,1.11 3.95,2.78 z"
   id="path80" />
	<path
   class="st1"
   d="m 203.36,224.18 c -2.43,0 -4.15,-1.72 -4.15,-4.07 0,-2.35 1.71,-4.07 4.15,-4.07 2.43,0 4.15,1.72 4.15,4.07 0,2.34 -1.72,4.07 -4.15,4.07 z m 3.29,-4.07 c 0,-1.89 -1.35,-3.28 -3.29,-3.28 -1.94,0 -3.29,1.39 -3.29,3.28 0,1.89 1.35,3.28 3.29,3.28 1.95,0 3.29,-1.39 3.29,-3.28 z"
   id="path82" />
	<path
   class="st1"
   d="m 208.71,224.02 v -7.82 h 0.86 v 7.04 h 4.72 v 0.79 h -5.58 z"
   id="path84" />
	<path
   class="st1"
   d="m 218.65,224.18 c -2.43,0 -4.15,-1.72 -4.15,-4.07 0,-2.35 1.71,-4.07 4.15,-4.07 2.43,0 4.15,1.72 4.15,4.07 -0.01,2.34 -1.73,4.07 -4.15,4.07 z m 3.28,-4.07 c 0,-1.89 -1.35,-3.28 -3.29,-3.28 -1.94,0 -3.29,1.39 -3.29,3.28 0,1.89 1.35,3.28 3.29,3.28 1.95,0 3.29,-1.39 3.29,-3.28 z"
   id="path86" />
	<path
   class="st1"
   d="m 230.71,218.65 c -0.5,-1.1 -1.58,-1.82 -2.97,-1.82 -1.94,0 -3.29,1.39 -3.29,3.28 0,1.89 1.35,3.28 3.29,3.28 1.69,0 2.92,-0.97 3.23,-2.49 v -0.02 h -3.72 v -0.79 h 4.62 v 0.41 c -0.18,2.14 -1.84,3.69 -4.13,3.69 -2.43,0 -4.15,-1.72 -4.15,-4.07 0,-2.35 1.71,-4.07 4.15,-4.07 1.88,0 3.36,1.04 3.91,2.61 h -0.94 z"
   id="path88" />
	<path
   class="st1"
   d="m 233.04,224.02 v -7.82 h 0.86 v 7.82 z"
   id="path90" />
	<path
   class="st1"
   d="m 241.2,224.02 v -2.63 h -5.04 v 2.63 h -0.83 v -4.63 c 0,-2.06 1.19,-3.35 3.36,-3.35 2.18,0 3.37,1.29 3.37,3.35 v 4.63 z m 0,-4.63 c 0,-1.58 -0.86,-2.56 -2.53,-2.56 -1.64,0 -2.51,0.98 -2.51,2.56 v 1.21 h 5.04 z"
   id="path92" />
</g>
</svg>
