<?xml version="1.0" encoding="utf-8"?>
<!-- Generator: Adobe Illustrator 25.2.0, SVG Export Plug-In . SVG Version: 6.00 Build 0)  -->
<svg version="1.1" id="Camada_1"
   xmlns="http://www.w3.org/2000/svg"
   xmlns:xlink="http://www.w3.org/1999/xlink" x="0px" y="0px" viewBox="41.1 157.4 161.6 25.2" style="enable-background:new 0 0 283.46 224.38;" xml:space="preserve">
   <style type="text/css">
	.st0{fill:#037D91;}
	.st1{fill:#037D91;stroke:#037D91;stroke-width:0.25;stroke-miterlimit:10;}
   </style>
   <g id="g100" transform="translate(-19.8,-45.27)">
      <defs id="defs5">
         <rect id="SVGID_1_" width="283.45999" height="283.45999" x="0" y="0" />
      </defs>
      <clipPath id="SVGID_00000150804494495873189020000014494503066165521073_">
         <use xlink:href="#SVGID_1_" style="overflow:visible" id="use7" x="0" y="0" width="100%" height="100%" />
      </clipPath>
      <path style="fill:#1c7f8f" d="m 69.49,213.45 h -0.04 c -0.66,1.3 -2.03,2.13 -3.78,2.13 -2.55,0 -4.69,-1.76 -4.69,-4.71 0,-2.75 2.02,-4.77 4.88,-4.77 2.86,0 4.86,1.94 4.86,4.82 v 3.72 c 0,3.5 -2.11,4.86 -4.8,4.86 -2.18,0 -3.92,-0.9 -4.55,-2.91 h 1.25 c 0.49,1.28 1.76,1.83 3.3,1.83 2.09,0 3.58,-1.05 3.58,-3.72 v -1.25 z m -3.63,-6.21 c -2.16,0 -3.63,1.54 -3.63,3.63 0,2.09 1.47,3.57 3.63,3.57 2.16,0 3.63,-1.48 3.63,-3.57 0,-2.09 -1.47,-3.63 -3.63,-3.63" clip-path="url(#SVGID_00000150804494495873189020000014494503066165521073_)" id="path14" />
      <path style="fill:#1c7f8f" d="m 78.91,210.1 v -0.13 c 0,-1.89 -1.05,-2.73 -2.59,-2.73 -1.56,0 -2.58,0.84 -2.58,2.73 v 5.43 h -1.23 v -5.43 c 0,-2.6 1.56,-3.87 3.81,-3.87 2.26,0 3.8,1.27 3.8,3.89 v 0.11 z" clip-path="url(#SVGID_00000150804494495873189020000014494503066165521073_)" id="path16" />
      <path style="fill:#1c7f8f" d="m 90.69,215.4 h -1.14 v -2.14 h -0.04 c -0.6,1.45 -2.04,2.38 -3.87,2.38 -2.55,0 -4.69,-1.81 -4.69,-4.77 0,-2.75 2.02,-4.77 4.88,-4.77 2.86,0 4.86,1.96 4.86,4.82 z m -1.22,-4.53 c 0,-2.09 -1.47,-3.63 -3.63,-3.63 -2.16,0 -3.63,1.54 -3.63,3.63 0,2.09 1.47,3.63 3.63,3.63 2.16,0 3.63,-1.54 3.63,-3.63" clip-path="url(#SVGID_00000150804494495873189020000014494503066165521073_)" id="path18" />
      <path style="fill:#1c7f8f" d="m 100.21,206.34 h 1.23 v 4.73 c 0,3.01 -1.8,4.56 -4.47,4.56 -2.68,0 -4.47,-1.56 -4.47,-4.56 v -4.73 h 1.23 v 4.73 c 0,2.22 1.28,3.43 3.25,3.43 1.96,0 3.25,-1.21 3.25,-3.43 v -4.73 z" clip-path="url(#SVGID_00000150804494495873189020000014494503066165521073_)" id="path20" />
      <path style="fill:#1c7f8f" d="m 108.86,208.82 c -0.06,-0.9 -0.88,-1.59 -2.24,-1.59 -1.41,0 -2.25,0.66 -2.25,1.69 0,2.35 5.96,0.17 5.96,3.87 0,1.65 -1.45,2.86 -3.7,2.86 -2.24,0 -3.65,-1.19 -3.7,-2.79 h 1.25 c 0.06,0.97 0.93,1.67 2.44,1.67 1.6,0 2.47,-0.71 2.47,-1.74 0,-2.35 -5.94,-0.15 -5.94,-3.87 0,-1.63 1.34,-2.8 3.46,-2.8 2.12,0 3.43,1.17 3.47,2.71 h -1.22 z" clip-path="url(#SVGID_00000150804494495873189020000014494503066165521073_)" id="path22" />
      <path style="fill:#1c7f8f" d="m 115.31,210.87 c 0,-2.95 2.14,-4.77 4.69,-4.77 1.74,0 3.12,0.83 3.78,2.11 h 0.04 v -5.49 h 1.23 v 8.1 c 0,2.88 -2,4.82 -4.86,4.82 -2.86,0 -4.88,-2.02 -4.88,-4.77 m 8.51,0 c 0,-2.09 -1.47,-3.63 -3.63,-3.63 -2.16,0 -3.63,1.54 -3.63,3.63 0,2.09 1.47,3.63 3.63,3.63 2.16,0 3.63,-1.54 3.63,-3.63" clip-path="url(#SVGID_00000150804494495873189020000014494503066165521073_)" id="path24" />
      <path style="fill:#1c7f8f" d="m 127.74,211.27 c 0.17,1.89 1.58,3.23 3.61,3.23 1.43,0 2.53,-0.59 3.12,-1.63 h 1.34 c -0.7,1.67 -2.35,2.77 -4.45,2.77 -2.86,0 -4.88,-2.02 -4.88,-4.77 0,-2.75 2.02,-4.77 4.88,-4.77 2.86,0 4.84,2.02 4.84,4.77 v 0.4 z m 0.04,-1.13 v 0.04 h 7.13 v -0.04 c -0.29,-1.72 -1.65,-2.9 -3.56,-2.9 -1.92,0 -3.28,1.17 -3.57,2.9" clip-path="url(#SVGID_00000150804494495873189020000014494503066165521073_)" id="path26" />

      <rect x="141.84" y="202.72" style="fill:#1c7f8f" width="1.23" height="12.68" clip-path="url(#SVGID_00000150804494495873189020000014494503066165521073_)" id="rect28" />
      <path style="fill:#1c7f8f" d="m 145.21,203.89 c 0,-0.51 0.42,-0.93 0.93,-0.93 0.51,0 0.94,0.42 0.94,0.93 0,0.5 -0.42,0.94 -0.94,0.94 -0.52,0 -0.93,-0.45 -0.93,-0.94 m 0.33,2.45 h 1.23 v 9.06 h -1.23 z" clip-path="url(#SVGID_00000150804494495873189020000014494503066165521073_)" id="path30" />
      <path style="fill:#1c7f8f" d="m 148.89,210.82 v -8.1 h 1.23 v 5.49 h 0.04 c 0.66,-1.28 2.02,-2.11 3.78,-2.11 2.53,0 4.69,1.82 4.69,4.77 0,2.75 -2.02,4.77 -4.88,4.77 -2.86,0 -4.86,-1.95 -4.86,-4.82 m 8.49,0.05 c 0,-2.09 -1.47,-3.63 -3.63,-3.63 -2.18,0 -3.63,1.54 -3.63,3.63 0,2.09 1.45,3.63 3.63,3.63 2.17,0 3.63,-1.54 3.63,-3.63" clip-path="url(#SVGID_00000150804494495873189020000014494503066165521073_)" id="path32" />
      <path style="fill:#1c7f8f" d="m 160.95,211.27 c 0.16,1.89 1.58,3.23 3.61,3.23 1.43,0 2.53,-0.59 3.12,-1.63 h 1.34 c -0.7,1.67 -2.35,2.77 -4.45,2.77 -2.86,0 -4.88,-2.02 -4.88,-4.77 0,-2.75 2.02,-4.77 4.88,-4.77 2.86,0 4.84,2.02 4.84,4.77 v 0.4 z m 0.04,-1.13 v 0.04 h 7.13 v -0.04 c -0.29,-1.72 -1.65,-2.9 -3.56,-2.9 -1.92,0 -3.28,1.17 -3.57,2.9" clip-path="url(#SVGID_00000150804494495873189020000014494503066165521073_)" id="path34" />
      <path style="fill:#1c7f8f" d="m 177.23,210.1 v -0.13 c 0,-1.89 -1.05,-2.73 -2.59,-2.73 -1.56,0 -2.58,0.84 -2.58,2.73 v 5.43 h -1.23 v -5.43 c 0,-2.6 1.56,-3.87 3.81,-3.87 2.26,0 3.79,1.27 3.79,3.89 v 0.11 z" clip-path="url(#SVGID_00000150804494495873189020000014494503066165521073_)" id="path36" />
      <path style="fill:#1c7f8f" d="m 179.28,210.87 c 0,-2.95 2.14,-4.77 4.69,-4.77 1.74,0 3.12,0.83 3.78,2.11 h 0.04 v -5.49 h 1.23 v 8.1 c 0,2.88 -2,4.82 -4.86,4.82 -2.86,0 -4.88,-2.02 -4.88,-4.77 m 8.51,0 c 0,-2.09 -1.47,-3.63 -3.63,-3.63 -2.16,0 -3.63,1.54 -3.63,3.63 0,2.09 1.47,3.63 3.63,3.63 2.16,0 3.63,-1.54 3.63,-3.63" clip-path="url(#SVGID_00000150804494495873189020000014494503066165521073_)" id="path38" />
      <path style="fill:#1c7f8f" d="m 200.18,215.4 h -1.14 v -2.14 H 199 c -0.6,1.45 -2.04,2.38 -3.87,2.38 -2.55,0 -4.69,-1.81 -4.69,-4.77 0,-2.75 2.02,-4.77 4.88,-4.77 2.86,0 4.86,1.96 4.86,4.82 z m -1.23,-4.53 c 0,-2.09 -1.47,-3.63 -3.63,-3.63 -2.16,0 -3.63,1.54 -3.63,3.63 0,2.09 1.47,3.63 3.63,3.63 2.16,0 3.63,-1.54 3.63,-3.63" clip-path="url(#SVGID_00000150804494495873189020000014494503066165521073_)" id="path40" />
      <path style="fill:#1c7f8f" d="m 201.6,210.87 c 0,-2.95 2.14,-4.77 4.69,-4.77 1.74,0 3.12,0.83 3.78,2.11 h 0.04 v -5.49 h 1.23 v 8.1 c 0,2.88 -2,4.82 -4.86,4.82 -2.86,0 -4.88,-2.02 -4.88,-4.77 m 8.51,0 c 0,-2.09 -1.47,-3.63 -3.63,-3.63 -2.16,0 -3.63,1.54 -3.63,3.63 0,2.09 1.47,3.63 3.63,3.63 2.16,0 3.63,-1.54 3.63,-3.63" clip-path="url(#SVGID_00000150804494495873189020000014494503066165521073_)" id="path42" />
      <path style="fill:#1c7f8f" d="m 214.03,211.27 c 0.16,1.89 1.58,3.23 3.61,3.23 1.43,0 2.53,-0.59 3.12,-1.63 h 1.34 c -0.7,1.67 -2.35,2.77 -4.45,2.77 -2.86,0 -4.88,-2.02 -4.88,-4.77 0,-2.75 2.02,-4.77 4.88,-4.77 2.86,0 4.84,2.02 4.84,4.77 v 0.4 z m 0.04,-1.13 v 0.04 h 7.13 v -0.04 c -0.29,-1.72 -1.65,-2.9 -3.56,-2.9 -1.92,0 -3.28,1.17 -3.57,2.9" clip-path="url(#SVGID_00000150804494495873189020000014494503066165521073_)" id="path44" />
      <path style="fill:#1c7f8f" d="m 78.28,227.7 v -4.71 h 2.04 c 1.14,0 1.64,0.63 1.64,1.5 0,0.86 -0.51,1.51 -1.64,1.51 H 78.8 v 1.71 h -0.52 z m 2.05,-2.18 c 0.81,0 1.11,-0.45 1.11,-1.03 0,-0.58 -0.29,-1.02 -1.11,-1.02 H 78.8 v 2.05 z" clip-path="url(#SVGID_00000150804494495873189020000014494503066165521073_)" id="path46" />
      <path style="fill:#1c7f8f" d="m 85.21,224.26 c -0.03,-0.54 -0.44,-0.89 -1.12,-0.89 -0.68,0 -1.12,0.36 -1.12,0.92 0,1.33 2.82,0.22 2.82,2.07 0,0.88 -0.68,1.44 -1.71,1.44 -1.02,0 -1.7,-0.54 -1.72,-1.42 h 0.51 c 0.02,0.6 0.46,0.94 1.21,0.94 0.75,0 1.21,-0.37 1.21,-0.94 0,-1.35 -2.83,-0.22 -2.83,-2.08 0,-0.84 0.65,-1.4 1.62,-1.4 0.95,0 1.58,0.54 1.61,1.36 z" clip-path="url(#SVGID_00000150804494495873189020000014494503066165521073_)" id="path48" />

      <rect x="86.57" y="222.99001" style="fill:#1c7f8f" width="0.51999998" height="4.71" clip-path="url(#SVGID_00000150804494495873189020000014494503066165521073_)" id="rect50" />
      <path style="fill:#1c7f8f" d="m 92.18,224.56 c -0.28,-0.72 -0.97,-1.2 -1.85,-1.2 -1.18,0 -1.99,0.84 -1.99,1.97 0,1.14 0.82,1.98 1.99,1.98 0.88,0 1.56,-0.48 1.85,-1.2 h 0.55 c -0.3,1 -1.21,1.67 -2.39,1.67 -1.47,0 -2.51,-1.04 -2.51,-2.45 0,-1.41 1.04,-2.45 2.51,-2.45 1.18,0 2.09,0.67 2.39,1.67 h -0.55 z" clip-path="url(#SVGID_00000150804494495873189020000014494503066165521073_)" id="path52" />
      <path style="fill:#1c7f8f" d="m 95.75,227.79 c -1.47,0 -2.51,-1.04 -2.51,-2.45 0,-1.41 1.04,-2.45 2.51,-2.45 1.47,0 2.51,1.04 2.51,2.45 0,1.42 -1.04,2.45 -2.51,2.45 m 1.99,-2.45 c 0,-1.14 -0.82,-1.97 -1.99,-1.97 -1.17,0 -1.99,0.84 -1.99,1.97 0,1.14 0.82,1.98 1.99,1.98 1.17,0 1.99,-0.84 1.99,-1.98" clip-path="url(#SVGID_00000150804494495873189020000014494503066165521073_)" id="path54" />
      <polygon style="fill:#1c7f8f" points="98.34,223.46 98.34,222.99 102.06,222.99 102.06,223.46 100.46,223.46 100.46,227.7 99.94,227.7 99.94,223.46 " clip-path="url(#SVGID_00000150804494495873189020000014494503066165521073_)" id="polygon56" />
      <polygon style="fill:#1c7f8f" points="106.19,227.22 106.19,227.7 102.73,227.7 102.73,222.99 106.19,222.99 106.19,223.46 103.25,223.46 103.25,225.07 105.77,225.07 105.77,225.54 103.25,225.54 103.25,227.22 " clip-path="url(#SVGID_00000150804494495873189020000014494503066165521073_)" id="polygon58" />
      <path style="fill:#1c7f8f" d="m 110.23,227.7 -1.27,-1.79 h -1.43 v 1.79 H 107 v -4.71 h 2.08 c 1.11,0 1.6,0.62 1.6,1.46 0,0.73 -0.37,1.29 -1.18,1.43 v 0.01 l 1.36,1.81 z m -1.14,-2.26 c 0.79,0 1.07,-0.43 1.07,-0.99 0,-0.56 -0.28,-0.98 -1.07,-0.98 h -1.57 v 1.98 h 1.57 z" clip-path="url(#SVGID_00000150804494495873189020000014494503066165521073_)" id="path60" />
      <path style="fill:#1c7f8f" d="m 114.98,227.7 v -1.59 h -3.05 v 1.59 h -0.5 v -2.79 c 0,-1.24 0.72,-2.02 2.03,-2.02 1.32,0 2.04,0.78 2.04,2.02 v 2.79 z m 0,-2.79 c 0,-0.95 -0.52,-1.54 -1.53,-1.54 -0.99,0 -1.52,0.59 -1.52,1.54 v 0.73 h 3.05 z" clip-path="url(#SVGID_00000150804494495873189020000014494503066165521073_)" id="path62" />
      <path style="fill:#1c7f8f" d="m 116.36,227.7 v -4.71 h 2.04 c 1.14,0 1.64,0.63 1.64,1.5 0,0.86 -0.51,1.51 -1.64,1.51 h -1.52 v 1.71 h -0.52 z m 2.04,-2.18 c 0.81,0 1.11,-0.45 1.11,-1.03 0,-0.58 -0.29,-1.02 -1.11,-1.02 h -1.53 v 2.05 z" clip-path="url(#SVGID_00000150804494495873189020000014494503066165521073_)" id="path64" />

      <rect x="120.69" y="222.99001" style="fill:#1c7f8f" width="0.51999998" height="4.71" clip-path="url(#SVGID_00000150804494495873189020000014494503066165521073_)" id="rect66" />
      <path style="fill:#1c7f8f" d="m 125.63,227.7 v -1.59 h -3.05 v 1.59 h -0.5 v -2.79 c 0,-1.24 0.72,-2.02 2.03,-2.02 1.32,0 2.04,0.78 2.04,2.02 v 2.79 z m 0,-2.79 c 0,-0.95 -0.52,-1.54 -1.53,-1.54 -0.99,0 -1.52,0.59 -1.52,1.54 v 0.73 h 3.05 z" clip-path="url(#SVGID_00000150804494495873189020000014494503066165521073_)" id="path68" />
      <polygon style="fill:#1c7f8f" points="149.55,227.22 149.55,227.7 146.09,227.7 146.09,222.99 149.55,222.99 149.55,223.46 146.61,223.46 146.61,225.07 149.14,225.07 149.14,225.54 146.61,225.54 146.61,227.22 " clip-path="url(#SVGID_00000150804494495873189020000014494503066165521073_)" id="polygon70" />
      <path style="fill:#1c7f8f" d="m 153.69,222.99 h 0.5 v 2.86 c 0,1.19 -0.7,1.95 -1.95,1.95 -1.28,0 -1.98,-0.76 -1.98,-1.95 v -2.86 h 0.52 v 2.86 c 0,0.91 0.5,1.47 1.46,1.47 0.95,0 1.46,-0.57 1.46,-1.47 v -2.86 z" clip-path="url(#SVGID_00000150804494495873189020000014494503066165521073_)" id="path72" />
      <path style="fill:#1c7f8f" d="M 158.27,227.7 157,225.91 h -1.43 v 1.79 h -0.52 v -4.71 h 2.08 c 1.11,0 1.6,0.62 1.6,1.46 0,0.73 -0.37,1.29 -1.18,1.43 v 0.01 l 1.36,1.81 z m -1.14,-2.26 c 0.79,0 1.07,-0.43 1.07,-0.99 0,-0.56 -0.28,-0.98 -1.07,-0.98 h -1.57 v 1.98 h 1.57 z" clip-path="url(#SVGID_00000150804494495873189020000014494503066165521073_)" id="path74" />
      <path style="fill:#1c7f8f" d="m 161.82,227.79 c -1.47,0 -2.51,-1.04 -2.51,-2.45 0,-1.41 1.04,-2.45 2.51,-2.45 1.47,0 2.51,1.04 2.51,2.45 0,1.42 -1.04,2.45 -2.51,2.45 m 1.99,-2.45 c 0,-1.14 -0.82,-1.97 -1.99,-1.97 -1.17,0 -1.99,0.84 -1.99,1.97 0,1.14 0.82,1.98 1.99,1.98 1.18,0 1.99,-0.84 1.99,-1.98" clip-path="url(#SVGID_00000150804494495873189020000014494503066165521073_)" id="path76" />
      <path style="fill:#1c7f8f" d="m 165.06,227.7 v -4.71 h 2.04 c 1.14,0 1.64,0.63 1.64,1.5 0,0.86 -0.51,1.51 -1.64,1.51 h -1.52 v 1.71 h -0.52 z m 2.05,-2.18 c 0.81,0 1.11,-0.45 1.11,-1.03 0,-0.58 -0.29,-1.02 -1.11,-1.02 h -1.53 v 2.05 z" clip-path="url(#SVGID_00000150804494495873189020000014494503066165521073_)" id="path78" />
      <path style="fill:#1c7f8f" d="m 171.98,224.26 c -0.03,-0.54 -0.44,-0.89 -1.12,-0.89 -0.68,0 -1.12,0.36 -1.12,0.92 0,1.33 2.82,0.22 2.82,2.07 0,0.88 -0.68,1.44 -1.71,1.44 -1.02,0 -1.7,-0.54 -1.72,-1.42 h 0.51 c 0.02,0.6 0.46,0.94 1.21,0.94 0.75,0 1.21,-0.37 1.21,-0.94 0,-1.35 -2.83,-0.22 -2.83,-2.08 0,-0.84 0.65,-1.4 1.62,-1.4 0.95,0 1.58,0.54 1.61,1.36 z" clip-path="url(#SVGID_00000150804494495873189020000014494503066165521073_)" id="path80" />

      <rect x="173.34" y="222.99001" style="fill:#1c7f8f" width="0.51999998" height="4.71" clip-path="url(#SVGID_00000150804494495873189020000014494503066165521073_)" id="rect82" />
      <path style="fill:#1c7f8f" d="m 178.96,224.56 c -0.28,-0.72 -0.97,-1.2 -1.85,-1.2 -1.18,0 -1.99,0.84 -1.99,1.97 0,1.14 0.82,1.98 1.99,1.98 0.88,0 1.56,-0.48 1.85,-1.2 h 0.55 c -0.3,1 -1.21,1.67 -2.39,1.67 -1.47,0 -2.51,-1.04 -2.51,-2.45 0,-1.41 1.04,-2.45 2.51,-2.45 1.18,0 2.09,0.67 2.39,1.67 h -0.55 z" clip-path="url(#SVGID_00000150804494495873189020000014494503066165521073_)" id="path84" />
      <path style="fill:#1c7f8f" d="m 182.52,227.79 c -1.47,0 -2.51,-1.04 -2.51,-2.45 0,-1.41 1.04,-2.45 2.51,-2.45 1.47,0 2.51,1.04 2.51,2.45 0,1.42 -1.04,2.45 -2.51,2.45 m 1.99,-2.45 c 0,-1.14 -0.82,-1.97 -1.99,-1.97 -1.17,0 -1.99,0.84 -1.99,1.97 0,1.14 0.82,1.98 1.99,1.98 1.18,0 1.99,-0.84 1.99,-1.98" clip-path="url(#SVGID_00000150804494495873189020000014494503066165521073_)" id="path86" />
      <polygon style="fill:#1c7f8f" points="189.13,227.22 189.13,227.7 185.76,227.7 185.76,222.99 186.28,222.99 186.28,227.22 " clip-path="url(#SVGID_00000150804494495873189020000014494503066165521073_)" id="polygon88" />
      <path style="fill:#1c7f8f" d="m 191.77,227.79 c -1.47,0 -2.51,-1.04 -2.51,-2.45 0,-1.41 1.04,-2.45 2.51,-2.45 1.47,0 2.51,1.04 2.51,2.45 0,1.42 -1.04,2.45 -2.51,2.45 m 1.99,-2.45 c 0,-1.14 -0.82,-1.97 -1.99,-1.97 -1.17,0 -1.99,0.84 -1.99,1.97 0,1.14 0.82,1.98 1.99,1.98 1.17,0 1.99,-0.84 1.99,-1.98" clip-path="url(#SVGID_00000150804494495873189020000014494503066165521073_)" id="path90" />
      <path style="fill:#1c7f8f" d="m 199.07,224.46 c -0.3,-0.66 -0.96,-1.1 -1.79,-1.1 -1.18,0 -1.99,0.84 -1.99,1.98 0,1.14 0.82,1.97 1.99,1.97 1.02,0 1.76,-0.58 1.95,-1.5 v -0.01 h -2.25 v -0.48 h 2.8 v 0.24 c -0.11,1.29 -1.11,2.22 -2.5,2.22 -1.47,0 -2.51,-1.04 -2.51,-2.45 0,-1.41 1.04,-2.45 2.51,-2.45 1.14,0 2.03,0.63 2.36,1.57 h -0.57 z" clip-path="url(#SVGID_00000150804494495873189020000014494503066165521073_)" id="path92" />

      <rect x="200.48" y="222.99001" style="fill:#1c7f8f" width="0.51999998" height="4.71" clip-path="url(#SVGID_00000150804494495873189020000014494503066165521073_)" id="rect94" />
      <path style="fill:#1c7f8f" d="m 205.41,227.7 v -1.59 h -3.05 v 1.59 h -0.51 v -2.79 c 0,-1.24 0.72,-2.02 2.03,-2.02 1.32,0 2.04,0.78 2.04,2.02 v 2.79 z m 0,-2.79 c 0,-0.95 -0.52,-1.54 -1.53,-1.54 -0.99,0 -1.52,0.59 -1.52,1.54 v 0.73 h 3.05 z" clip-path="url(#SVGID_00000150804494495873189020000014494503066165521073_)" id="path96" />
      <path style="fill:#1c7f8f" d="m 141.59,227.7 v -4.72 h 0.66 l 1.51,2.39 c 0.35,0.55 0.62,1.05 0.85,1.53 l 0.01,-0.01 c -0.06,-0.63 -0.07,-1.2 -0.07,-1.94 v -1.97 h 0.57 v 4.72 h -0.62 l -1.5,-2.39 c -0.33,-0.52 -0.64,-1.06 -0.88,-1.57 l -0.02,0.01 c 0.04,0.6 0.05,1.16 0.05,1.95 v 2.01 h -0.56 z" clip-path="url(#SVGID_00000150804494495873189020000014494503066165521073_)" id="path98" />
   </g>
   <g id="g110" transform="translate(-19.8,-45.27)">
      <defs id="defs103">
         <rect id="SVGID_00000102521492401258882000000018054496139837911993_" width="283.45999" height="283.45999" x="0" y="0" />
      </defs>
      <clipPath id="SVGID_00000105391524038609492360000002009819230791969968_">
         <use xlink:href="#SVGID_00000102521492401258882000000018054496139837911993_" style="overflow:visible" id="use105" x="0" y="0" width="100%" height="100%" />
      </clipPath>
      <path style="fill:#1c7f8f" d="m 134.68,225.75 v 0.01 c 0.33,0.15 0.53,0.42 0.53,0.83 0,0.7 -0.56,1.15 -1.38,1.15 -0.82,0 -1.38,-0.46 -1.38,-1.17 0,-0.5 0.28,-0.85 0.74,-0.99 v -0.01 c -0.37,-0.14 -0.59,-0.43 -0.59,-0.87 0,-0.63 0.5,-1.04 1.24,-1.04 0.7,0 1.18,0.37 1.23,1.01 h -0.4 c -0.04,-0.36 -0.31,-0.64 -0.83,-0.64 -0.55,0 -0.84,0.32 -0.84,0.7 0,0.43 0.31,0.68 0.82,0.68 h 1.64 v 0.34 z m -0.8,0 h -0.1 c -0.57,0 -0.92,0.3 -0.92,0.8 0,0.47 0.32,0.83 0.98,0.83 0.64,0 0.98,-0.36 0.98,-0.83 -0.01,-0.48 -0.37,-0.8 -0.94,-0.8" clip-path="url(#SVGID_00000105391524038609492360000002009819230791969968_)" id="path108" />
   </g>
</svg>
