<?xml version="1.0" standalone="no"?>
<!DOCTYPE svg PUBLIC "-//W3C//DTD SVG 20010904//EN"
 "http://www.w3.org/TR/2001/REC-SVG-20010904/DTD/svg10.dtd">
<svg version="1.0" xmlns="http://www.w3.org/2000/svg"
 width="582.000000pt" height="355.000000pt" viewBox="0 0 582.000000 355.000000"
 preserveAspectRatio="xMidYMid meet">

<g transform="translate(0.000000,355.000000) scale(0.100000,-0.100000)"
fill="#187E90" stroke="none">
<path d="M2816 3429 c-225 -262 -371 -542 -450 -859 -32 -132 -56 -290 -56
-377 0 -80 -10 -103 -31 -77 -8 10 -54 51 -104 93 -334 278 -763 446 -1198
468 l-130 6 7 -109 c14 -215 48 -390 109 -570 94 -275 221 -489 437 -736 l41
-47 -33 -5 c-18 -3 -75 -7 -127 -10 -326 -20 -717 -164 -1007 -373 -95 -67
-254 -204 -254 -217 0 -5 28 -34 62 -65 222 -202 481 -352 758 -439 229 -72
380 -95 625 -95 327 0 594 60 880 197 210 101 348 197 565 396 209 193 335
283 525 378 302 150 574 214 915 214 201 0 301 -12 498 -58 302 -72 628 -246
859 -459 48 -44 88 -73 94 -69 21 12 -186 186 -344 289 -101 65 -318 171 -428
209 -358 121 -729 145 -1097 70 -325 -66 -666 -233 -909 -443 -46 -39 -85 -71
-88 -71 -9 0 -6 114 5 197 32 241 94 451 191 650 105 214 224 380 398 553 282
280 633 467 1020 546 119 24 278 43 370 44 l43 0 -7 -92 c-9 -129 -33 -289
-55 -378 -19 -73 -19 -93 -1 -74 25 25 81 382 81 517 l0 50 -127 -6 c-892 -46
-1663 -682 -1884 -1553 -33 -133 -59 -308 -59 -404 0 -39 -4 -70 -9 -70 -5 0
-46 43 -90 97 -253 303 -407 646 -465 1036 -21 141 -21 420 0 568 54 387 217
750 473 1049 45 52 86 97 92 99 20 6 160 -161 260 -310 126 -188 242 -465 287
-684 10 -47 22 -85 27 -83 17 5 -11 136 -66 303 -87 268 -243 530 -451 759
l-54 60 -98 -115z m-1601 -800 c353 -63 680 -215 950 -441 141 -118 133 -103
145 -258 23 -299 80 -511 210 -775 82 -167 158 -284 274 -422 l87 -103 -63 0
c-75 0 -204 15 -308 36 -667 136 -1234 607 -1487 1239 -69 173 -109 328 -132
510 -9 65 -15 200 -12 239 1 13 209 -3 336 -25z"/>
</g>
</svg>
