<?xml version="1.0" encoding="UTF-8" standalone="no"?>
<svg xmlns:dc="http://purl.org/dc/elements/1.1/"
    xmlns:cc="http://creativecommons.org/ns#"
    xmlns:rdf="http://www.w3.org/1999/02/22-rdf-syntax-ns#"
    xmlns:svg="http://www.w3.org/2000/svg"
    xmlns="http://www.w3.org/2000/svg"
    xmlns:sodipodi="http://sodipodi.sourceforge.net/DTD/sodipodi-0.dtd"
    xmlns:inkscape="http://www.inkscape.org/namespaces/inkscape" viewBox="0 0 332.73371 268.63449" height="268.63449" width="335" xml:space="preserve" id="svg2" version="1.1" sodipodi:docname="newlogo.svg" inkscape:version="1.0.2-2 (e86c870879, 2021-01-15)">
    <sodipodi:namedview pagecolor="#ffffff" bordercolor="#666666" borderopacity="1" objecttolerance="10" gridtolerance="10" guidetolerance="10" inkscape:pageopacity="0" inkscape:pageshadow="2" inkscape:window-width="2560" inkscape:window-height="1377" id="namedview17" showgrid="false" inkscape:zoom="3.1316369" inkscape:cx="166.36692" inkscape:cy="152.53876" inkscape:window-x="-8" inkscape:window-y="-8" inkscape:window-maximized="1" inkscape:current-layer="svg2" />
    <metadata id="metadata8">
        <rdf:RDF>
            <cc:Work rdf:about="">
                <dc:format>image/svg+xml</dc:format>
                <dc:type rdf:resource="http://purl.org/dc/dcmitype/StillImage" />
            </cc:Work>
        </rdf:RDF>
    </metadata>
    <defs id="defs6" />
    <g transform="matrix(1.3333333,0,0,-1.3333333,2.4831645e-4,305.07876)" id="g10">
        <g transform="scale(0.1)" id="g12">
            <path id="path506" style="fill:#ffffff;fill-opacity:1;fill-rule:nonzero;stroke:#FFF;stroke-width:20" d="m 1069.3,1781.53 c -15.77,-55.21 -14.51,-113.17 3.39,-165.31 17.7,-52.27 48.84,-99.04 86.19,-139.76 35.35,-41.56 82.19,-71.2 131.92,-96.51 49.75,-25.05 102.19,-45.62 155.82,-61.75 53.58,-15.97 108.73,-28.07 163.13,-31.48 27.72,-1.51 55.9,-1.7 83.95,-0.85 28.07,0.68 56.17,1.99 84.16,4.58 27.97,2.69 55.92,5.83 83.66,10.37 27.71,4.67 55.29,10.23 82.57,17.15 54.46,14.1 107.81,33.53 157.82,61.71 -43.97,-37.07 -96.5,-64.04 -150.99,-83.75 -27.28,-9.98 -55.21,-18.16 -83.51,-24.68 -28.27,-6.68 -56.84,-12.06 -85.63,-15.71 -57.59,-7.85 -115.52,-10.74 -174.04,-8.37 -29.79,1.27 -59.18,5.67 -87.79,11.65 -28.69,5.9 -56.87,13.38 -84.72,21.88 -55.56,17.31 -109.99,38.4 -161.76,65.78 -25.88,13.68 -51.09,28.93 -75.09,46.43 -11.98,8.79 -23.59,18.26 -34.68,28.51 -5.56,5.11 -10.87,10.57 -16.11,16.13 -4.91,5.55 -9.75,11.04 -14.43,16.74 -37.11,45.47 -67.83,98.08 -81.37,156.05 -6.97,28.81 -8.8,58.76 -6.06,87.91 3.03,29.17 11.19,57.43 23.57,83.28" />
            <path id="path508" style="fill:#ffffff;fill-opacity:1;fill-rule:nonzero;stroke:#FFF;stroke-width:20" d="m 1887,273.332 c -35.24,109.25 -65.63,219.789 -94.4,330.668 -14.72,55.371 -28.01,111.07 -41.73,166.68 -13.45,55.672 -26.06,111.539 -38.91,167.351 -12.33,55.93 -24.31,111.949 -36.06,168.029 -11.03,56.23 -22.61,112.37 -32.2,168.98 -4.85,28.32 -9.7,56.56 -13.57,85.38 l -2.53,21.73 c -0.62,6.81 -1.48,13.76 -2.41,20.75 -1.91,13.99 -4.18,28.08 -6.47,42.17 -8.56,56.49 -19.3,113.05 -23.78,170.4 13.62,-55.73 29.46,-110.63 43.61,-166.33 3.41,-13.97 6.81,-27.94 9.9,-42.13 1.52,-7.11 2.99,-14.27 4.26,-21.65 l 4.01,-20.7 c 5.49,-27.65 11.67,-55.6 18.05,-83.41 l 38.39,-167.13 37.76,-167.401 36.63,-167.688 c 11.68,-56.019 24.03,-111.89 35.18,-168.043 23,-112.156 44.99,-224.519 64.27,-337.656" />
            <path id="path510" style="fill:#ffffff;fill-opacity:1;fill-rule:nonzero;stroke:#FFF;stroke-width:20" d="m 918.477,1294.85 c -82.774,-42.31 -158.223,-95.65 -223.098,-159.34 -16.156,-15.96 -31.649,-32.54 -46.504,-49.63 -14.805,-17.16 -29.324,-34.63 -41.297,-52.87 -11.984,-18.29 -22.531,-37.119 -28.301,-56.701 -2.941,-9.739 -4.765,-19.579 -5.234,-29.309 -0.051,-4.859 -0.051,-9.699 0.508,-14.48 0.07,-1.301 0.187,-2.438 0.336,-2.758 0.062,-0.543 0.199,-1.153 0.488,-1.852 0.352,-1.308 1.09,-2.89 1.973,-4.5 3.558,-6.512 10.054,-13.922 17.636,-20.281 7.625,-6.469 16.325,-12.34 25.536,-17.609 18.488,-10.54 38.921,-18.688 59.937,-25.188 42.051,-13.551 86.898,-19.273 131.891,-21.242 22.554,-0.91 45.332,-0.36 68.121,0.711 22.797,1 45.621,2.937 68.328,5.84 45.508,5.41 90.753,14.078 134.633,29.519 -40.23,-23.789 -85.645,-38.058 -131.153,-49.14 -45.816,-10.391 -92.5,-17.122 -140.031,-18.461 -23.789,-0.809 -47.723,0.011 -71.551,2.812 -23.84,2.617 -47.609,6.981 -71.058,13.379 -23.364,6.691 -46.336,15.539 -68.317,27.609 -10.968,6.082 -21.672,13.02 -31.843,21.403 -10.047,8.5 -20.024,18.078 -27.391,32.07 -1.824,3.5 -3.512,7.227 -4.731,11.5 -1.3,3.719 -2.167,9.727 -2.253,12.418 -0.664,6.762 -0.625,13.5 -0.407,20.219 0.809,13.422 3.473,26.48 7.383,38.851 7.895,24.78 20.293,46.86 34.692,66.56 14.308,19.94 30.25,37.55 46.382,54.83 16.055,17.43 33.539,33.47 51.379,48.96 71.457,61.8 154.903,109.48 243.946,136.68" />
            <path id="path512" style="fill:#ffffff;fill-opacity:1;fill-rule:nonzero;stroke:#FFF;stroke-width:20" d="m 2116.05,1033.75 c 23.96,-1.2 47.52,4.59 70.42,10.83 22.91,6.55 45.33,14.79 67.15,24.26 43.67,18.81 85.46,42.31 122.58,71.57 36.76,29.23 69.71,64.9 87.21,107.64 4.33,10.62 7.66,21.6 9.81,32.77 2.22,11.03 2.57,22.73 3.42,34.46 0.98,23.38 -0.02,46.77 -3.31,69.79 -6.17,46.12 -21.97,90.61 -45.38,130.73 -23.29,40.29 -54.04,76 -88.08,108.27 -17.03,16.18 -34.98,31.46 -53.34,46.62 l -54.97,45.97 c -36.64,29.84 -75.09,57.45 -114.8,83.18 -159.69,101.97 -335.94,177.42 -511.03,252.82 -175.2,73.35 -357.51,130.86 -543.9,165.49 -93.158,17.3 -187.494,27.94 -281.861,30.99 -94.313,2.03 -189.059,-4.14 -281.446,-21.94 -92.168,-17.86 -182.632,-47.49 -262.363,-95.65 -19.828,-12.03 -39.039,-25.35 -57.101,-39.51 -17.661,-14.11 -33.786,-30.38 -48.262,-48.14 -29.098,-35.46 -51.879,-76.48 -69.1915,-119.54 -17.0274,-43.15 -29.0235,-88.79 -32.6797,-134.62 -0.8594,-11.43 -1.2383,-22.88 -0.6797,-34.13 0.625,-10.98 1.9492,-22.94 3.6328,-34.34 3.3203,-23.02 8.1719,-45.82 14.9297,-68.06 13.293,-44.57 33.6719,-86.94 59.5004,-125.91 25.738,-39.18 57.078,-74.29 89.82,-109.2 63.66,-69.86 138.191,-129.89 220.199,-178.01 40.996,-24 83.777,-45.17 128.188,-62.35 22.238,-8.45 44.746,-16.36 67.808,-22.38 23.028,-5.85 46.59,-10.95 70.563,-10.36 -23.942,-1.84 -47.946,2.04 -71.422,6.72 -23.524,4.88 -46.672,11.48 -69.402,19.28 -45.473,15.58 -89.516,35.28 -131.977,57.96 -84.75,45.49 -163.844,103.31 -230.262,173.86 -33.109,34.34 -66.301,70.4 -93.7107,110.91 -27.5664,40.36 -49.7461,84.81 -64.4453,131.74 -7.4649,23.43 -12.93753,47.47 -16.77737,71.73 -1.95704,12.23 -3.47266,24.05 -4.394536,36.92 -0.800782,12.63 -0.5625003,25.14 0.195312,37.56 3.285154,49.64 15.289094,97.71 32.652394,143.71 17.6992,45.85 41.207,89.84 72.2652,128.84 15.465,19.52 32.911,37.68 52.399,53.72 19.258,15.74 39.387,29.78 60.305,42.77 83.925,51.69 177.957,83.2 273.07,102.55 95.355,19.31 192.601,26.52 289.461,24.49 96.859,-2.8 193.16,-13.3 288.146,-30.58 95.09,-16.88 188.55,-41.32 280.57,-69.79 92.01,-28.57 182.49,-61.84 271.03,-99.75 87.93,-38.66 175.23,-77.64 261.7,-119.79 86.3,-42.21 171.53,-87.81 251.56,-142.15 40.04,-27.05 78.84,-56.06 115.79,-87.34 l 54.21,-47.13 c 18.22,-15.63 36.41,-31.72 53.74,-48.82 34.64,-34.12 66.3,-72.25 90.14,-115.36 23.97,-42.93 39.87,-90.62 45.45,-139.47 2.71,-24.42 2.97,-49.03 1.18,-73.39 -1.26,-12.07 -2,-24.35 -4.88,-36.74 -2.76,-12.24 -6.8,-24.13 -11.86,-35.49 -20.55,-45.67 -56.23,-81.36 -94.84,-110.15 -39.01,-28.75 -82.09,-51.16 -126.81,-68.7 -22.45,-8.62 -45.38,-15.93 -68.72,-21.53 -23.29,-5.28 -47.27,-10.08 -71.2,-7.83" />
            <path id="path514" style="fill:#ffffff;fill-opacity:1;fill-rule:nonzero;stroke:#FFF;stroke-width:8" d="m 904.617,507.238 c -19.715,2.133 -44.219,17.051 -58.082,39.692 l 13.32,14.39 c 17.856,-25.851 27.446,-32.769 44.489,-35.429 11.199,-1.602 19.992,1.058 26.383,6.398 6.929,5.582 10.39,11.981 11.191,19.441 0.793,7.719 -1.074,14.11 -5.598,19.711 -4.793,5.868 -14.382,13.059 -30.105,21.848 -14.125,7.992 -24.777,14.641 -32.238,20.512 -7.723,6.129 -13.321,13.859 -17.047,22.64 -3.992,9.071 -5.328,18.379 -4.266,27.707 1.606,14.653 7.992,26.641 19.449,35.434 11.192,8.527 24.782,11.988 39.965,10.398 8.258,-0.808 16.25,-3.199 23.438,-6.66 7.726,-3.738 14.925,-10.66 24.777,-24.261 l -15.445,-12.778 c -5.071,7.989 -6.403,10.129 -8.266,11.989 -6.66,7.992 -14.914,12.261 -24.773,13.32 -9.856,1.07 -16.25,-1.059 -20.246,-4.789 -4.797,-4.27 -7.196,-9.332 -7.727,-14.66 -0.801,-6.661 1.066,-12.52 5.859,-17.852 4.805,-5.848 14.922,-13.32 30.375,-22.367 15.188,-9.063 26.11,-15.992 33.028,-21.063 7.461,-5.578 13.324,-13.039 17.05,-21.839 4,-9.309 5.34,-19.18 4.266,-30.09 -1.867,-17.059 -9.316,-30.641 -22.105,-40.508 -13.063,-9.863 -29.047,-13.313 -47.692,-11.184" />
            <path id="path516" style="fill:#ffffff;fill-opacity:1;fill-rule:nonzero;stroke:#FFF;stroke-width:8" d="m 1060.28,690.789 c -3.2,0 -6.13,0 -8.52,0 V 615.93 h 7.46 c 11.18,0 18.91,0.269 24.5,2.14 5.6,1.59 10.13,4.52 13.86,10.391 3.73,5.859 5.86,13.32 5.86,22.629 0,14.93 -3.73,24.519 -9.86,30.371 -6.13,5.871 -16.52,9.328 -33.3,9.328 z m 54.61,-87.91 c -10.39,-4.797 -26.9,-5.59 -48.48,-5.59 h -14.65 v -36.238 c 0,-7.992 -0.28,-12.262 0,-18.641 l -5.86,5.59 c 5.86,-5.871 5.86,-41.031 5.86,-41.031 h -39.17 v 54.082 93.238 56.481 h 44.76 c 19.98,0 35.7,-2.129 47.15,-5.329 11.72,-3.461 21.31,-10.121 29.04,-18.64 7.73,-9.332 11.46,-20.52 11.46,-33.571 0,-11.449 -2.4,-21.308 -7.73,-30.371 -5.33,-9.058 -13.05,-15.449 -22.38,-19.98" />
            <path id="path518" style="fill:#ffffff;fill-opacity:1;fill-rule:nonzero;stroke:#FFF;stroke-width:8" d="M 1325.17,506.969 1199.71,672.141 V 511.77 h -18.39 v 47.949 99.371 51.68 h 38.09 l 99.91,-133.461 v 94.031 39.43 h 19.97 v -41.551 -162.25 h -14.12" />
            <path id="path520" style="fill:#ffffff;fill-opacity:1;fill-rule:nonzero;stroke:#FFF;stroke-width:8" d="m 1428.38,690.789 c -3.2,0 -6.13,0 -8.52,0 V 615.93 h 7.46 c 11.18,0 18.91,0.269 24.51,2.14 5.59,1.59 10.12,4.52 13.85,10.391 3.73,5.859 5.86,13.32 5.86,22.629 0,14.93 -3.73,24.519 -9.86,30.371 -6.13,5.871 -16.52,9.328 -33.3,9.328 z m 54.61,-87.91 c -10.39,-4.797 -26.91,-5.59 -48.48,-5.59 h -14.65 v -36.238 c 0,-7.992 -0.28,-12.262 0,-18.641 L 1414,548 c 5.86,-5.871 5.86,-41.031 5.86,-41.031 h -39.17 v 54.082 93.238 56.481 h 44.76 c 19.98,0 35.7,-2.129 47.15,-5.329 11.73,-3.461 21.31,-10.121 29.04,-18.64 7.73,-9.332 11.46,-20.52 11.46,-33.571 0,-11.449 -2.4,-21.308 -7.73,-30.371 -5.33,-9.058 -13.05,-15.449 -22.38,-19.98" />
            <path id="path522" style="fill:#ffffff;fill-opacity:1;fill-rule:nonzero;stroke:#FFF;stroke-width:5" d="m 1513.16,528.289 7.46,-9.328 c -0.26,-0.262 -0.26,-0.262 -0.52,-0.539 z m 24.51,-25.051 c -10.39,2.141 -18.64,8.262 -27.96,22.653 l 14.64,9.859 c 6.13,-11.199 10.4,-14.398 16.25,-15.719 4.54,-0.801 7.2,0 9.06,1.598 2.67,2.133 4,4.531 4.53,7.18 0.81,3.48 0.26,6.132 -1.33,8.531 -1.86,2.672 -6.39,7.191 -14.65,13.32 -8.79,6.66 -15.19,13.32 -18.92,19.449 -4.26,6.661 -5.32,13.86 -3.73,21.852 1.33,7.719 5.6,14.379 12,19.711 7.19,6.129 15.71,7.988 25.3,6.129 9.59,-1.871 16.79,-7.192 24.51,-20.512 l -14.39,-9.598 c -5.86,10.129 -9.06,12.25 -13.05,13.059 -3.2,0.801 -5.6,0.27 -7.46,-1.07 -2.12,-1.598 -3.2,-3.2 -3.46,-5.321 -0.53,-2.398 -0.27,-4.539 1.59,-6.929 1.87,-2.668 6.13,-6.93 13.85,-12.258 12,-8.524 20.26,-16.781 22.65,-25.301 2.14,-6.941 2.67,-13.59 1.34,-19.723 -1.87,-9.589 -6.66,-17.316 -14.66,-22.378 -7.72,-4.79 -16.78,-6.391 -26.11,-4.532" />
            <path id="path524" style="fill:#ffffff;fill-opacity:1;fill-rule:nonzero;stroke:#FFF;stroke-width:5" d="m 1649.35,439.582 h -17.85 l 27.98,64.188 -47.95,106.031 h 31.17 l 32.23,-71.66 31.17,71.66 h 18.38 l -75.13,-170.219" />
        </g>
    </g>
</svg>
