<?xml version="1.0" encoding="UTF-8" standalone="no"?>
<svg xmlns="http://www.w3.org/2000/svg"
    version="1.1"
    x="0px"
    y="0px"
    viewBox="0 0 290.45246 178.26278"
    xml:space="preserve"
    width="290.45245"
    height="178.26279">
    <path
        d="m 215.45553,116.35278 c -26.05,0 -50.6,9.82 -69.41,27.71 0.85,-53.99 44.88,-97.08 99.01,-97.39 -0.06,9.05 -1.32,18.02 -3.78,26.66 l 1.12,0.31 c 2.53,-8.92 3.82,-18.2 3.82,-27.56 v -0.58 h -0.58 c -55.1,0 -100.02,44.46 -100.75,99.38 -18.21,-18.7 -28.21,-43.31 -28.21,-69.44 0,-26.41 10.21,-51.26 28.77,-70.02 14.47,14.64 23.93,33.06 27.35,53.3 l 1.15,-0.2 c -3.51,-20.67 -13.22,-39.46 -28.1,-54.34 l -0.41,-0.42 -0.42,0.42 c -18.71,18.7 -29.16,43.47 -29.49,69.88 -18.909996,-18.43 -43.809996,-28.56 -70.269996,-28.56 h -0.58 v 0.58 c 0,26.74 10.34,51.88 29.13,70.86 -25.38,0.19 -50.69,9.97 -70.0600001,29.33 38.9900001,39 102.1199961,39.13 141.2799961,0.42 0.14,-0.14 0.29,-0.28 0.43,-0.43 18.77,-18.53 43.6,-28.75 70,-28.75 26.61,0 51.63,10.37 70.44,29.18 l 0.81,-0.83 c -19.02,-19.03 -44.32,-29.51 -71.25,-29.51 z m -140.449996,0.17 c -18.67,-18.67 -29.02,-43.47 -29.17,-69.86 26.31,0.15 51.01,10.44 69.679996,29 0.06,26.34 10.17,51.14 28.53,70 -26.07,-0.33 -50.539996,-10.66 -69.039996,-29.14 z"
        fill="#037d91" />
    <path
        d="m 74.595534,175.76278 c -0.09,0 -0.18,0 -0.28,0 -26.7,-0.07 -51.8,-10.51 -70.6800001,-29.39 l -0.1,-0.1 0.1,-0.1 c 18.6800001,-18.67 43.4600001,-29.09 69.8200001,-29.37 -18.65,-18.97 -28.93,-44.07 -28.93,-70.72 v -0.73 h 0.73 c 26.34,0 51.24,10.07 70.139996,28.37 0.42,-26.31 10.9,-51.03 29.53,-69.65 l 0.52,-0.52 0.51,0.52 c 14.89,14.89 24.62,33.71 28.14,54.41 l 0.02,0.14 -1.44,0.25 -0.02,-0.14 c -3.41,-20.15 -12.82,-38.51 -27.21,-53.12 -18.46,18.72 -28.63,43.51 -28.63,69.82 0,25.94 9.92,50.47 27.93,69.09 0.44,-26.49 11.1,-51.34 30.02,-70.03 19.03,-18.79 44.19,-29.14 70.87,-29.14 h 0.73 v 0.73 c 0,9.36 -1.29,18.65 -3.83,27.6 l -0.04,0.14 -1.39,-0.39 0.04,-0.14 c 2.43,-8.56 3.7,-17.47 3.77,-26.47 -54.4,0.39 -97.68,42.9 -98.71,96.9 18.78,-17.75 43.37,-27.52 69.26,-27.52 26.95,0 52.3,10.5 71.36,29.56 l 0.1,0.1 -1.02,1.03 -0.1,-0.1 c -18.79,-18.79 -43.77,-29.14 -70.34,-29.14 -26.33,0 -51.16,10.2 -69.9,28.71 -0.09,0.1 -0.19,0.2 -0.29,0.29 l -0.14,0.14 c -18.91,18.69 -43.95,28.97 -70.539996,28.97 z m -70.6400001,-29.49 c 38.7900001,38.69 101.9899961,38.84 140.9699961,0.31 l 0.14,-0.14 c 0.09,-0.09 0.19,-0.19 0.28,-0.29 18.8,-18.57 43.7,-28.79 70.11,-28.79 26.6,0 51.61,10.34 70.44,29.12 l 0.61,-0.62 c -18.99,-18.94 -44.22,-29.37 -71.05,-29.37 -25.93,0 -50.55,9.83 -69.31,27.67 l -0.25,0.24 0.01,-0.35 c 0.41,-26.12 10.91,-50.6 29.57,-68.92 18.63,-18.3 43.34,-28.46 69.58,-28.61 h 0.15 v 0.15 c -0.06,9.03 -1.32,17.96 -3.74,26.56 l 0.84,0.23 c 2.51,-8.88 3.78,-18.09 3.78,-27.38 v -0.44 h -0.44 c -54.74,0 -99.87,44.52 -100.6,99.23 v 0.35 l -0.24,-0.25 c -18.22,-18.71 -28.26,-43.41 -28.26,-69.54 0,-26.43 10.23,-51.34 28.81,-70.13 l 0.1,-0.1 0.1,0.1 c 14.46,14.63 23.92,33.04 27.37,53.24 l 0.86,-0.15 c -3.52,-20.59 -13.22,-39.3 -28.03,-54.12 l -0.31,-0.31 -0.31,0.31 c -18.65,18.64 -29.11,43.43 -29.45,69.78 v 0.34 l -0.24,-0.24 c -18.889996,-18.38 -43.809996,-28.51 -70.189996,-28.51 h -0.44 v 0.44 c 0,26.68 10.33,51.81 29.09,70.76 l 0.24,0.25 h -0.34 c -26.36,0.19 -51.16,10.55 -69.8500001,29.18 z m 140.4299961,-0.46 h -0.35 c -26.08,-0.34 -50.629996,-10.7 -69.139996,-29.19 v 0 c -18.68,-18.68 -29.05,-43.53 -29.2,-69.96 v -0.15 h 0.15 c 26.32,0.15 51.11,10.47 69.779996,29.05 l 0.04,0.04 v 0.06 c 0.06,26.27 10.17,51.09 28.49,69.9 z m -69.279996,-29.39 c 18.37,18.35 42.719996,28.67 68.589996,29.1 -18.2,-18.82 -28.25,-43.59 -28.32,-69.79 -18.589996,-18.47 -43.219996,-28.74 -69.389996,-28.92 0.19,26.3 10.53,51.01 29.12,69.61 z"
        stroke="#037d91"
        stroke-width="5" />
</svg>
